<?xml version="1.0" encoding="UTF-8" standalone="no"?><!DOCTYPE svg PUBLIC "-//W3C//DTD SVG 1.1//EN" "http://www.w3.org/Graphics/SVG/1.1/DTD/svg11.dtd"><svg width="100%" height="100%" viewBox="0 0 2500 2500" version="1.1" xmlns="http://www.w3.org/2000/svg" xmlns:xlink="http://www.w3.org/1999/xlink" xml:space="preserve" xmlns:serif="http://www.serif.com/" style="fill-rule:evenodd;clip-rule:evenodd;stroke-linejoin:round;stroke-miterlimit:1.41421;"><g><g><g><path d="M626.701,2228.75l-192.909,0c-44.182,0 -80.001,-35.819 -80.001,-80.001l0,-65.375c0,-44.182 35.819,-80.035 80.001,-80.035l192.909,0c44.215,0 80.001,35.853 80.001,80.035l0,65.375c0,44.182 -35.786,80.001 -80.001,80.001Z" style="fill:#858d9a;fill-rule:nonzero;"/><path d="M2003.58,2228.75l-192.909,0c-44.215,0 -80.001,-35.819 -80.001,-80.001l0,-65.375c0,-44.182 35.786,-80.035 80.001,-80.035l192.909,0c44.182,0 79.967,35.853 79.967,80.035l0,65.375c0,44.182 -35.785,80.001 -79.967,80.001Z" style="fill:#858d9a;fill-rule:nonzero;"/><path d="M2358.11,2116.04l-2216.22,0c-78.41,0 -141.889,-63.547 -141.889,-141.888l0,-1560.95c0,-78.409 63.479,-141.922 141.889,-141.922l2216.22,0c78.342,0 141.888,63.513 141.888,141.922l0,1560.95c0,78.341 -63.546,141.888 -141.888,141.888Z" style="fill:#fff;fill-rule:nonzero;"/><path d="M227.984,529.332c-39.916,0 -72.384,39.984 -72.384,89.108l0,1166.06c0,49.125 32.468,89.074 72.384,89.074l1387,0c39.882,0 72.349,-39.949 72.349,-89.074l0,-1166.06c0,-49.124 -32.467,-89.108 -72.349,-89.108l-1387,0Zm1387,1378.03l-1387,0c-58.063,0 -105.291,-55.15 -105.291,-122.862l0,-1166.06c0,-67.745 47.228,-122.862 105.291,-122.862l1387,0c58.028,0 105.257,55.117 105.257,122.862l0,1166.06c0,67.712 -47.229,122.862 -105.257,122.862Z" style="fill:#d7dceb;fill-rule:nonzero;"/><path d="M1899.54,528.96c-32.501,0 -58.943,26.441 -58.943,58.976l0,1227.06c0,32.502 26.442,58.977 58.943,58.977l387.105,0c32.468,0 58.976,-26.475 58.976,-58.977l0,-1227.06c0,-32.535 -26.508,-58.976 -58.976,-58.976l-387.105,0Zm387.105,1378.4l-387.105,0c-50.919,0 -92.358,-41.439 -92.358,-92.358l0,-1227.06c0,-50.952 41.439,-92.358 92.358,-92.358l387.105,0c50.886,0 92.358,41.406 92.358,92.358l0,1227.06c0,50.919 -41.472,92.358 -92.358,92.358Z" style="fill:#d7dceb;fill-rule:nonzero;"/><path d="M1584.21,1204.55c0,363.033 -299.148,657.341 -668.242,657.341c-369.027,0 -668.209,-294.308 -668.209,-657.341c0,-363.034 299.182,-657.341 668.209,-657.341c369.094,0 668.242,294.307 668.242,657.341Z" style="fill:#d7dceb;fill-rule:nonzero;"/><clipPath id="_clip1"><path d="M1503.53,1201.47c0,324.506 -263.059,587.53 -587.564,587.53c-324.472,0 -587.565,-263.024 -587.565,-587.53c0,-324.506 263.093,-587.564 587.565,-587.564c324.505,0 587.564,263.058 587.564,587.564Z"/></clipPath><g clip-path="url(#_clip1)"><path d="M1503.53,1201.47c0,324.506 -263.059,587.53 -587.564,587.53c-324.472,0 -587.565,-263.024 -587.565,-587.53c0,-324.506 263.093,-587.564 587.565,-587.564c324.505,0 587.564,263.058 587.564,587.564Z" style="fill:#717989;fill-rule:nonzero;"/><clipPath id="_clip2"><path d="M1503.53,1201.47c0,324.506 -263.059,587.53 -587.564,587.53c-324.472,0 -587.565,-263.024 -587.565,-587.53c0,-324.506 263.093,-587.564 587.565,-587.564c324.505,0 587.564,263.058 587.564,587.564Z" clip-rule="nonzero"/></clipPath><g clip-path="url(#_clip2)"><rect x="867.956" y="567.183" width="83.082" height="1232.89" style="fill:#fff;fill-rule:nonzero;"/><rect x="1216.94" y="567.183" width="83.081" height="1232.89" style="fill:#fff;fill-rule:nonzero;"/><rect x="542.909" y="567.183" width="83.081" height="1232.89" style="fill:#fff;fill-rule:nonzero;"/><rect x="305.005" y="1118.39" width="1232.89" height="83.082" style="fill:#fff;fill-rule:nonzero;"/><rect x="305.005" y="1480.74" width="1232.89" height="83.082" style="fill:#fff;fill-rule:nonzero;"/><rect x="305.005" y="805.086" width="1232.89" height="83.082" style="fill:#fff;fill-rule:nonzero;"/><rect x="305.005" y="649.655" width="1232.89" height="27.863" style="fill:#fff;fill-rule:nonzero;"/><rect x="305.005" y="701.895" width="1232.89" height="27.897" style="fill:#fff;fill-rule:nonzero;"/><rect x="305.005" y="754.167" width="1232.89" height="27.897" style="fill:#fff;fill-rule:nonzero;"/><rect x="305.005" y="914.948" width="1232.89" height="27.931" style="fill:#fff;fill-rule:nonzero;"/><rect x="305.005" y="967.221" width="1232.89" height="27.897" style="fill:#fff;fill-rule:nonzero;"/><rect x="305.005" y="1019.49" width="1232.89" height="27.897" style="fill:#fff;fill-rule:nonzero;"/><rect x="305.005" y="1066.38" width="1232.89" height="27.931" style="fill:#fff;fill-rule:nonzero;"/><rect x="305.005" y="1224.76" width="1232.89" height="27.931" style="fill:#fff;fill-rule:nonzero;"/><rect x="305.005" y="1277.03" width="1232.89" height="27.897" style="fill:#fff;fill-rule:nonzero;"/><rect x="305.005" y="1329.31" width="1232.89" height="27.897" style="fill:#fff;fill-rule:nonzero;"/><rect x="305.005" y="1376.2" width="1232.89" height="27.931" style="fill:#fff;fill-rule:nonzero;"/><rect x="305.005" y="1425.8" width="1232.89" height="27.931" style="fill:#fff;fill-rule:nonzero;"/><rect x="305.005" y="1585.66" width="1232.89" height="27.931" style="fill:#fff;fill-rule:nonzero;"/><rect x="305.005" y="1637.9" width="1232.89" height="27.965" style="fill:#fff;fill-rule:nonzero;"/><rect x="305.005" y="1690.17" width="1232.89" height="27.931" style="fill:#fff;fill-rule:nonzero;"/><rect x="305.005" y="1737.1" width="1232.89" height="27.897" style="fill:#fff;fill-rule:nonzero;"/></g></g><path d="M2500,411.346c-0.982,-77.53 -64.156,-140.061 -141.888,-140.061l-1106.4,0l0,-0.034l1106.4,0c77.732,0 140.906,62.565 141.888,140.095Z" style="fill:#86b3c3;fill-rule:nonzero;"/><path d="M2003.58,2228.75l-192.909,0c-44.215,0 -80.001,-35.819 -80.001,-80.001l0,-32.705l352.877,0l0,32.705c0,44.182 -35.785,80.001 -79.967,80.001Z" style="fill:#767f8b;fill-rule:nonzero;"/><path d="M2358.11,2116.04l-274.57,0l-352.877,0l-478.956,0l0,-208.686l363.272,0c58.028,0 105.257,-55.15 105.257,-122.862l0,-1166.06c0,-67.745 -47.229,-122.862 -105.257,-122.862l-363.272,0l0,-224.327l1106.4,0.034c77.732,0 140.906,62.531 141.888,140.061l0,1562.81c0,78.341 -63.546,141.888 -141.888,141.888Zm-458.575,-1620.47c-50.919,0 -92.358,41.406 -92.358,92.358l0,1227.06c0,50.919 41.439,92.358 92.358,92.358l387.105,0c50.886,0 92.358,-41.439 92.358,-92.358l0,-1227.06c0,-50.952 -41.472,-92.358 -92.358,-92.358l-387.105,0Zm387.105,1378.4l-387.105,0c-32.501,0 -58.943,-26.475 -58.943,-58.977l0,-1227.06c0,-32.535 26.442,-58.976 58.943,-58.976l387.105,0c32.468,0 58.976,26.441 58.976,58.976l0,1227.06c0,32.502 -26.508,58.977 -58.976,58.977Zm-671.661,-0.407l-363.272,0l0,-100.55c198.869,-113.891 332.497,-325.827 332.497,-568.47c0,-242.644 -133.628,-454.614 -332.497,-568.47l0,-106.747l363.272,0c39.882,0 72.349,39.984 72.349,89.108l0,1166.06c0,49.125 -32.467,89.074 -72.349,89.074Z" style="fill:#e3e6e6;fill-rule:nonzero;"/><path d="M1614.98,1907.36l-363.272,0l0,-33.788l363.272,0c39.882,0 72.349,-39.949 72.349,-89.074l0,-1166.06c0,-49.124 -32.467,-89.108 -72.349,-89.108l-363.272,0l0,-33.754l363.272,0c58.028,0 105.257,55.117 105.257,122.862l0,1166.06c0,67.712 -47.229,122.862 -105.257,122.862Z" style="fill:#bfc5d2;fill-rule:nonzero;"/><path d="M2286.64,1907.36l-387.105,0c-50.919,0 -92.358,-41.439 -92.358,-92.358l0,-1227.06c0,-50.952 41.439,-92.358 92.358,-92.358l387.105,0c50.886,0 92.358,41.406 92.358,92.358l0,1227.06c0,50.919 -41.472,92.358 -92.358,92.358Zm-387.105,-1378.4c-32.501,0 -58.943,26.441 -58.943,58.976l0,1227.06c0,32.502 26.442,58.977 58.943,58.977l387.105,0c32.468,0 58.976,-26.475 58.976,-58.977l0,-1227.06c0,-32.535 -26.508,-58.976 -58.976,-58.976l-387.105,0Z" style="fill:#bfc5d2;fill-rule:nonzero;"/><path d="M1251.71,1773.02l0,-89.312c8.228,-5.755 16.32,-11.714 24.241,-17.842c11.478,-8.904 22.616,-18.248 33.383,-27.965c8.7,-7.854 17.198,-15.945 25.424,-24.308c8.871,-9.039 17.436,-18.35 25.731,-27.931c6.196,-7.109 12.187,-14.422 18.012,-21.836c20.414,-26.036 38.696,-53.797 54.541,-83.082c4.807,-8.87 9.378,-17.876 13.711,-27.017c4.368,-9.175 8.531,-18.485 12.425,-27.931c2.946,-7.144 5.755,-14.388 8.464,-21.668c3.352,-9.208 6.534,-18.519 9.446,-27.93c1.964,-6.264 3.826,-12.629 5.552,-18.994c2.54,-9.208 4.842,-18.484 6.94,-27.896c1.761,-8.058 3.386,-16.183 4.842,-24.376c1.659,-9.209 3.081,-18.519 4.266,-27.898c1.049,-8.057 1.93,-16.182 2.606,-24.342c0.813,-9.242 1.389,-18.553 1.761,-27.93c0.305,-7.72 0.474,-15.506 0.474,-23.293c0,-28.202 -1.998,-55.963 -5.857,-83.082c-1.117,-8.092 -2.437,-16.115 -3.893,-24.071c-1.728,-9.378 -3.691,-18.722 -5.857,-27.931c-1.524,-6.399 -3.115,-12.696 -4.808,-18.993c-2.539,-9.378 -5.315,-18.688 -8.328,-27.897c-2.675,-8.193 -5.519,-16.352 -8.532,-24.376c-3.521,-9.412 -7.279,-18.723 -11.275,-27.897c-3.588,-8.227 -7.346,-16.319 -11.273,-24.342c-4.638,-9.446 -9.513,-18.756 -14.66,-27.931c-5.078,-9.074 -10.394,-18.011 -15.946,-26.78c-18.687,-29.59 -39.915,-57.385 -63.411,-83.082c-7.212,-7.854 -14.626,-15.573 -22.209,-23.022c-9.852,-9.648 -20.009,-18.959 -30.504,-27.897c-9.92,-8.464 -20.145,-16.589 -30.606,-24.376c-4.807,-3.555 -9.716,-7.109 -14.66,-10.529l0,-83.183c198.869,113.856 332.497,325.826 332.497,568.47c0,242.643 -133.628,454.579 -332.497,568.47Z" style="fill:#bfc5d2;fill-rule:nonzero;"/><path d="M1309.33,1637.9l-9.312,0l0,-24.308l34.736,0c-8.226,8.363 -16.724,16.454 -25.424,24.308Zm51.155,-52.239l-60.467,0l0,-21.836l78.479,0c-5.825,7.414 -11.816,14.727 -18.012,21.836Zm72.553,-104.918l-133.02,0l0,-27.017l146.731,0c-4.333,9.141 -8.904,18.147 -13.711,27.017Zm26.136,-54.948l-159.156,0l0,-21.668l167.62,0c-2.709,7.28 -5.518,14.524 -8.464,21.668Zm17.91,-49.598l-177.066,0l0,-18.994l182.618,0c-1.726,6.365 -3.588,12.73 -5.552,18.994Zm12.492,-46.89l-189.558,0l0,-24.376l194.4,0c-1.456,8.193 -3.081,16.318 -4.842,24.376Zm9.108,-52.274l-198.666,0l0,-24.342l201.272,0c-0.676,8.16 -1.557,16.285 -2.606,24.342Zm4.367,-52.272l-203.033,0l0,-23.293l203.507,0c0,7.787 -0.169,15.573 -0.474,23.293Zm-5.383,-106.375l-197.65,0l0,-24.071l193.757,0c1.456,7.956 2.776,15.979 3.893,24.071Zm-9.75,-52.002l-187.9,0l0,-18.993l183.092,0c1.693,6.297 3.284,12.594 4.808,18.993Zm-13.136,-46.89l-174.764,0l0,-24.376l166.232,0c3.013,8.024 5.857,16.183 8.532,24.376Zm-19.807,-52.273l-154.957,0l0,-24.342l143.684,0c3.927,8.023 7.685,16.115 11.273,24.342Zm-25.933,-52.273l-129.024,0l0,-26.78l113.078,0c5.552,8.769 10.868,17.706 15.946,26.78Zm-79.357,-109.862l-49.667,0l0,-23.022l27.458,0c7.583,7.449 14.997,15.168 22.209,23.022Z" style="fill:#656e7b;fill-rule:nonzero;"/><path d="M1251.71,1683.71l0,-17.842l24.241,0c-7.921,6.128 -16.013,12.087 -24.241,17.842Zm48.312,-45.807l-48.312,0l0,-24.308l48.312,0l0,24.308Zm0,-52.239l-48.312,0l0,-21.836l48.312,0l0,21.836Zm0,-104.918l-48.312,0l0,-27.017l48.312,0l0,27.017Zm0,-54.948l-48.312,0l0,-21.668l48.312,0l0,21.668Zm0,-49.598l-48.312,0l0,-18.994l48.312,0l0,18.994Zm0,-46.89l-48.312,0l0,-24.376l48.312,0l0,24.376Zm0,-52.274l-48.312,0l0,-24.342l48.312,0l0,24.342Zm0,-52.272l-48.312,0l0,-23.293l48.312,0l0,23.293Zm0,-106.375l-48.312,0l0,-24.071l48.312,0l0,24.071Zm0,-52.002l-48.312,0l0,-18.993l48.312,0l0,18.993Zm0,-46.89l-48.312,0l0,-24.376l48.312,0l0,24.376Zm0,-52.273l-48.312,0l0,-24.342l48.312,0l0,24.342Zm0,-52.273l-48.312,0l0,-26.78l48.312,0l0,26.78Zm0,-109.862l-48.312,0l0,-23.022l48.312,0l0,23.022Zm-3.046,-50.919l-45.266,0l0,-24.376l14.66,0c10.461,7.787 20.686,15.912 30.606,24.376Z" style="fill:#e3e6e6;fill-rule:nonzero;"/><path d="M1503.53,1201.47l-203.507,0l-48.312,0l0,-83.082l245.962,0c3.859,27.119 5.857,54.88 5.857,83.082Z" style="fill:#e3e6e6;fill-rule:nonzero;"/><path d="M1378.5,1563.83l-78.479,0l-48.312,0l0,-83.082l181.332,0c-15.845,29.285 -34.127,57.046 -54.541,83.082Z" style="fill:#e3e6e6;fill-rule:nonzero;"/><path d="M1413.1,888.168l-113.078,0l-48.312,0l0,-83.082l97.979,0c23.496,25.697 44.724,53.492 63.411,83.082Z" style="fill:#e3e6e6;fill-rule:nonzero;"/><path d="M1266.37,729.791l-14.66,0l0,-10.529c4.944,3.42 9.853,6.974 14.66,10.529Z" style="fill:#e3e6e6;fill-rule:nonzero;"/><path d="M1327.48,782.064l-27.458,0l-48.312,0l0,-27.897l45.266,0c10.495,8.938 20.652,18.249 30.504,27.897Z" style="fill:#e3e6e6;fill-rule:nonzero;"/><path d="M1443.7,942.879l-143.684,0l-48.312,0l0,-27.931l177.336,0c5.147,9.175 10.022,18.485 14.66,27.931Z" style="fill:#e3e6e6;fill-rule:nonzero;"/><path d="M1466.25,995.118l-166.232,0l-48.312,0l0,-27.897l203.269,0c3.996,9.174 7.754,18.485 11.275,27.897Z" style="fill:#e3e6e6;fill-rule:nonzero;"/><path d="M1483.11,1047.39l-183.092,0l-48.312,0l0,-27.897l223.076,0c3.013,9.209 5.789,18.519 8.328,27.897Z" style="fill:#e3e6e6;fill-rule:nonzero;"/><path d="M1493.78,1094.32l-193.757,0l-48.312,0l0,-27.931l236.212,0c2.166,9.209 4.129,18.553 5.857,27.931Z" style="fill:#e3e6e6;fill-rule:nonzero;"/><path d="M1501.29,1252.69l-201.272,0l-48.312,0l0,-27.93l251.345,0c-0.372,9.377 -0.948,18.688 -1.761,27.93Z" style="fill:#e3e6e6;fill-rule:nonzero;"/><path d="M1494.42,1304.93l-194.4,0l-48.312,0l0,-27.898l246.978,0c-1.185,9.379 -2.607,18.689 -4.266,27.898Z" style="fill:#e3e6e6;fill-rule:nonzero;"/><path d="M1482.64,1357.2l-182.618,0l-48.312,0l0,-27.896l237.87,0c-2.098,9.412 -4.4,18.688 -6.94,27.896Z" style="fill:#e3e6e6;fill-rule:nonzero;"/><path d="M1467.64,1404.13l-167.62,0l-48.312,0l0,-27.93l225.378,0c-2.912,9.411 -6.094,18.722 -9.446,27.93Z" style="fill:#e3e6e6;fill-rule:nonzero;"/><path d="M1446.75,1453.73l-146.731,0l-48.312,0l0,-27.931l207.468,0c-3.894,9.446 -8.057,18.756 -12.425,27.931Z" style="fill:#e3e6e6;fill-rule:nonzero;"/><path d="M1334.76,1613.59l-34.736,0l-48.312,0l0,-27.931l108.779,0c-8.295,9.581 -16.86,18.892 -25.731,27.931Z" style="fill:#e3e6e6;fill-rule:nonzero;"/><path d="M1275.95,1665.87l-24.241,0l0,-27.965l57.624,0c-10.767,9.717 -21.905,19.061 -33.383,27.965Z" style="fill:#e3e6e6;fill-rule:nonzero;"/></g></g></g></svg>