<?xml version="1.0" encoding="UTF-8" standalone="no"?><!DOCTYPE svg PUBLIC "-//W3C//DTD SVG 1.1//EN" "http://www.w3.org/Graphics/SVG/1.1/DTD/svg11.dtd"><svg width="100%" height="100%" viewBox="0 0 2623 2512" version="1.1" xmlns="http://www.w3.org/2000/svg" xmlns:xlink="http://www.w3.org/1999/xlink" xml:space="preserve" xmlns:serif="http://www.serif.com/" style="fill-rule:evenodd;clip-rule:evenodd;stroke-linejoin:round;stroke-miterlimit:1.41421;"><g><path d="M1233.77,2341.42c-694.63,0 -1093.98,-249.397 -1054.56,-778.027c52.933,-709.85 165.322,-1390.54 859.928,-1390.54c694.556,0 887.421,310.303 1153.08,877.226c506.356,1080.48 -263.917,1291.34 -958.45,1291.34Z" style="fill:#d9eeee;fill-rule:nonzero;"/><path d="M0,2337.6c0,28.411 585.961,51.363 1308.86,51.363c722.871,0 1308.83,-22.952 1308.83,-51.363c0,-28.339 -585.961,-51.338 -1308.83,-51.338c-722.896,0 -1308.86,22.999 -1308.86,51.338Z" style="fill:#a4d8d4;fill-rule:nonzero;"/><path d="M938.687,719c-22.468,-3.503 0.749,47.957 7.03,61.051c4.977,33.993 21.357,163.269 -9.228,208.254c-44.453,65.181 -83.205,99.15 -83.205,99.15l68.467,48.536c0,0 71.439,-33.606 83.084,-123.478c11.114,-86.516 -28.87,-228.717 -31.89,-239.179c-4.035,-16.597 -14.834,-51.241 -34.258,-54.334Z" style="fill:#f99c73;fill-rule:nonzero;"/><path d="M601.422,1550.08c0,0 -0.555,236.109 -102.87,344.947c-28.073,29.789 -232.22,21.333 -232.22,21.333l-10.895,46.893c0,0 286.868,175.687 495.991,-136.138l-150.006,-277.035Z" style="fill:#cc322e;fill-rule:nonzero;"/><path d="M264.665,1986.06c0,0 -24.304,0.7 -42.303,50.541c-17.998,49.816 -40.781,38.63 -31.672,-3.914c9.108,-42.569 10.074,-152.494 36.142,-134.906c26.14,17.564 47.642,5.823 47.642,5.823l-9.809,82.456Z" style="fill:#312e3f;fill-rule:nonzero;"/><path d="M604.926,1575.45c0,0 55.952,206.394 128.624,270.319c72.719,63.974 171.822,227.194 194.797,318.445l23.024,91.225l46.337,0.411c0,0 -44.501,-546.774 -219.753,-678.902l-173.029,-1.498Z" style="fill:#e2443a;fill-rule:nonzero;"/><path d="M1014.04,2246.55c0,0 0.169,28.92 41.82,49.407c41.675,20.559 31.842,47.932 -3.745,37.833c-35.659,-10.05 -127.996,-9.229 -112.824,-40.564c15.051,-31.48 5.533,-56.798 5.533,-56.798l69.216,10.122Z" style="fill:#312e3f;fill-rule:nonzero;"/><path d="M957.579,1116.33l-72.163,-70.521c0,0 -83.93,92.361 -39.428,121.57c44.477,29.16 88.374,-27.953 111.591,-51.049Z" style="fill:#3aaab8;fill-rule:nonzero;"/><path d="M737.899,1062.23c0,0 -122.609,6.644 -128.528,176.291c-5.871,169.671 -26.165,354.007 -26.165,354.007c0,0 161.361,55.035 239.806,30.658c0,0 266.695,-571.127 -85.113,-560.956Z" style="fill:#534c82;fill-rule:nonzero;"/><path d="M816.948,1130.51l-23.169,58.828l38.099,44.163l22.903,-50.203l-37.833,-52.788Z" style="fill:#f8d646;fill-rule:nonzero;"/><path d="M827.844,1228.81c0,0 -4.952,266.115 -89.994,296.435l-22.443,70.207l68.274,-22.903c0,0 123.502,-96.637 58.538,-361.689l-14.375,17.95Z" style="fill:#f8d646;fill-rule:nonzero;"/><path d="M767.325,1024.13l-28.822,80.16c0,0 13.674,51.074 68.105,12.104l-5.605,-90.645l-33.678,-1.619Z" style="fill:#f99c73;fill-rule:nonzero;"/><path d="M781.941,887.488c-10.533,13.553 -31.455,39.693 -30.706,64.336c0.579,24.787 -0.339,67.791 16.96,86.394c17.273,18.675 36.069,2.73 42.496,-5.291c10.316,-13.118 43.148,-98.449 17.612,-135.123c-19.303,-27.687 -38.437,-20.536 -46.362,-10.316Z" style="fill:#f99c73;fill-rule:nonzero;"/><path d="M885.73,908.99c0,0 -69.506,21.09 -89.8,3.889c-20.318,-17.346 -26.093,10.558 -27.035,13.409c-0.967,2.971 -9.398,42.616 -17.419,39.645c-8.021,-3.165 -3.117,-55.18 18.7,-81.417c21.671,-26.333 115.312,-21.526 115.554,24.474Z" style="fill:#312e3f;fill-rule:nonzero;"/><path d="M2114.4,731.225c0,336.419 -272.735,609.129 -609.081,609.129c-336.418,0 -609.105,-272.71 -609.105,-609.129c0,-336.323 272.687,-609.081 609.105,-609.081c336.346,0 609.081,272.758 609.081,609.081Z" style="fill:#c6bdfe;fill-rule:nonzero;"/><path d="M2096.96,749.659c0,326.199 -268.797,590.695 -600.385,590.695c-331.587,0 -600.359,-264.496 -600.359,-590.695c0,-326.248 268.772,-590.721 600.359,-590.721c331.588,0 600.385,264.473 600.385,590.721Z" style="fill:#6556b1;fill-rule:nonzero;"/><path d="M2096.96,731.564c0,316.245 -268.797,572.648 -600.385,572.648c-331.587,0 -600.359,-256.403 -600.359,-572.648c0,-316.27 268.772,-572.626 600.359,-572.626c331.588,0 600.385,256.356 600.385,572.626Z" style="fill:#ab94e6;fill-rule:nonzero;"/><path d="M2041.9,731.225c0,296.339 -240.265,536.628 -536.58,536.628c-296.338,0 -536.579,-240.289 -536.579,-536.628c0,-296.29 240.241,-536.506 536.579,-536.506c296.315,0 536.58,240.216 536.58,536.506Z" style="fill:#8575ae;fill-rule:nonzero;"/><path d="M2026.39,731.225c0,287.835 -233.282,521.141 -521.069,521.141c-287.786,0 -521.093,-233.306 -521.093,-521.141c0,-287.762 233.307,-521.02 521.093,-521.02c287.787,0 521.069,233.258 521.069,521.02Z" style="fill:#ffdd93;fill-rule:nonzero;"/><path d="M1949.51,731.225c0,245.386 -198.856,444.315 -444.194,444.315c-245.362,0 -444.29,-198.929 -444.29,-444.315c0,-245.266 198.928,-444.194 444.29,-444.194c245.338,0 444.194,198.928 444.194,444.194Z" style="fill:#ffcf6e;fill-rule:nonzero;"/><path d="M1517.35,337.283l-24.087,0l6.571,-98.45l17.516,0l0,98.45Z" style="fill:#e29733;fill-rule:nonzero;"/><path d="M1519.5,1100.43l-28.436,0l7.779,116.013l20.657,0l0,-116.013Z" style="fill:#e29733;fill-rule:nonzero;"/><path d="M1782.91,979.704l-16.018,16.839l73.179,61.22l11.717,-12.224l-68.878,-65.835Z" style="fill:#e29733;fill-rule:nonzero;"/><path d="M1792.5,467.888l13.963,18.579l72.406,-62.259l-10.146,-13.529l-76.223,57.209Z" style="fill:#e29733;fill-rule:nonzero;"/><path d="M1276.51,1035.8l-15.076,-17.733l-68.515,66.438l10.968,12.925l72.623,-61.63Z" style="fill:#e29733;fill-rule:nonzero;"/><path d="M1234.62,431.673l-14.157,16.912l-65.255,-62.476l10.316,-12.297l69.096,57.861Z" style="fill:#e29733;fill-rule:nonzero;"/><path d="M1862.06,745.455l-1.764,-28.363l116.279,0.507l1.256,20.633l-115.771,7.223Z" style="fill:#e29733;fill-rule:nonzero;"/><path d="M1137.42,745.455l1.763,-28.363l-116.278,0.507l-1.281,20.633l115.796,7.223Z" style="fill:#e29733;fill-rule:nonzero;"/><path d="M1563.66,733.447c31.407,24.547 36.916,69.99 12.322,101.398c-24.667,31.431 -70.087,36.915 -101.494,12.297c-31.407,-24.619 -36.867,-70.063 -12.297,-101.47c24.667,-31.359 70.038,-36.891 101.469,-12.225Z" style="fill:#f4be4a;fill-rule:nonzero;"/><path d="M1545.71,756.302c18.7,14.737 22.082,41.869 7.345,60.592c-14.689,18.796 -41.82,22.034 -60.616,7.321c-18.747,-14.665 -22.057,-41.796 -7.344,-60.568c14.785,-18.747 41.892,-22.009 60.615,-7.345Z" style="fill:#f4be4a;fill-rule:nonzero;"/><path d="M1481.81,742.484l-15.631,19.834l-286.506,-196.029l-12.973,-52.28l53.923,0.121l261.187,228.354Z" style="fill:#f4be4a;fill-rule:nonzero;"/><path d="M1542.91,778.964l-1.304,-25.174l344.681,-40.83l44.188,30.9l-40.661,35.37l-346.904,-0.266Z" style="fill:#f4be4a;fill-rule:nonzero;"/><path d="M1486.55,719l-15.559,19.835l-286.53,-195.932l-12.949,-52.353l53.923,0.121l261.115,228.329Z" style="fill:#ffecb4;fill-rule:nonzero;"/><path d="M1568.47,709.965c31.382,24.619 36.843,70.014 12.248,101.445c-24.617,31.407 -70.037,36.915 -101.445,12.273c-31.382,-24.619 -36.915,-70.038 -12.297,-101.421c24.643,-31.408 70.063,-36.939 101.494,-12.297Z" style="fill:#ffecb4;fill-rule:nonzero;"/><path d="M1550.5,732.868c18.796,14.689 22.009,41.819 7.296,60.591c-14.664,18.748 -41.771,22.01 -60.567,7.321c-18.723,-14.689 -22.009,-41.82 -7.321,-60.592c14.738,-18.747 41.748,-21.985 60.592,-7.32Z" style="fill:#ffcf6e;fill-rule:nonzero;"/><path d="M1562,764.517l-1.401,-25.174l344.778,-40.878l44.139,30.948l-40.66,35.393l-346.856,-0.289Z" style="fill:#ffecb4;fill-rule:nonzero;"/><path d="M1015.1,1027.39c-18.554,-14.81 -18.119,58.731 -18.119,58.731c0,0 -10.679,212.699 -83.954,210.235c-31.745,-1.064 -132.973,-89.221 -132.973,-89.221l-42.69,55.881c0,0 196.609,202.914 240.99,108.064c44.404,-94.849 49.381,-274.643 49.381,-274.643c0.556,-13.457 5.968,-54.335 -12.635,-69.047Z" style="fill:#f99c73;fill-rule:nonzero;"/><path d="M737.464,1286.02l53.053,-89.848c0,0 -123.622,-105.166 -141.114,-49.793c-17.54,55.398 56.364,110.456 88.061,139.641Z" style="fill:#3aaab8;fill-rule:nonzero;"/><path d="M2115.01,1029.38c0,0 -54.286,-8.166 -77.721,24.473c-23.41,32.567 -21.091,45.806 -72.768,42.037c-277.784,-20.197 -102.266,154.402 -275.03,168.052c-73.13,5.775 -136.114,58.949 53.15,242.392c30.634,29.667 32.301,-134.013 53.852,-148.074c21.429,-14.084 159.162,-69.313 188.346,-98.134c29.45,-28.895 60.906,9.881 88.351,-6.958c27.396,-16.96 33.219,-58.055 46.99,-68.251c50.251,-37.398 48.343,-86.538 34.934,-124.589c-13.336,-38.003 -40.104,-30.948 -40.104,-30.948Z" style="fill:#312e3f;fill-rule:nonzero;"/><path d="M1678.93,1605.6l399.379,309.965l120.337,337.336l51.484,5.896l-66.511,-386.405l-258.843,-299.987l-245.846,33.195Z" style="fill:#423f70;fill-rule:nonzero;"/><path d="M2196.76,2226.42l55.35,-0.121l-0.339,37.568l10.389,15.945l81.683,55.808l-20.366,-2.102l-80.282,-19.448l-7.078,4.638l-29.958,-3.43l-9.399,-88.858Z" style="fill:#7a92ce;fill-rule:nonzero;"/><path d="M1850.07,1631.43l-109.079,322.455l-293.512,220.213l-24.208,-30.828l202.866,-220.864l42.521,-313.565l209.05,-66.052l-27.638,88.641Z" style="fill:#534c82;fill-rule:nonzero;"/><path d="M1424.68,2129.06l39.887,38.34l-26.262,26.865l-3.6,18.652l20.101,96.854l-13.215,-15.606l-44.284,-69.724l-8.383,-1.595l-19.087,-23.313l54.843,-70.473Z" style="fill:#7a92ce;fill-rule:nonzero;"/><path d="M2053.74,1399.91c0,0 -63.057,178.368 10.557,187.693c73.541,9.35 128.431,-11.427 128.431,-11.427l15.583,-40.66c0,0 -111.979,43.849 -134.132,-6.523c-9.665,-21.792 28.29,-112.365 28.29,-112.365l-48.729,-16.718Z" style="fill:#f99c73;fill-rule:nonzero;"/><path d="M2107.03,1440.35l-108.935,-33.799c0,0 47.136,-160.804 100.093,-130.001c52.788,30.803 19.423,121.038 8.842,163.8Z" style="fill:#f8d646;fill-rule:nonzero;"/><path d="M1965.24,1170.27c0,0 -126.378,-32.687 -191.318,119.251c-64.964,151.914 -111.882,318.42 -111.882,318.42c0,0 150.851,78.662 265.849,55.615c0,0 396.648,-391.213 37.351,-493.286Z" style="fill:#3aaab8;fill-rule:nonzero;"/><path d="M2048.76,1118.79l-64.53,61.897c0,0 39.549,115.747 55.083,74.266c14.496,-38.511 53.296,-108.403 53.296,-108.403l-43.849,-27.76Z" style="fill:#f99c73;fill-rule:nonzero;"/><path d="M2102.78,1035.08c-14.931,11.452 -44.26,33.727 -49.333,58.128c-5.026,24.545 -16.356,66.655 -1.498,87.818c14.809,21.213 36.505,-0.7 46.241,-6.377c9.712,-5.581 73.734,-81.393 53.851,-121.86c-14.955,-30.417 -37.834,-26.503 -49.261,-17.709Z" style="fill:#f99c73;fill-rule:nonzero;"/><path d="M2128.12,1063.73c0,0 -46.893,31.987 -79.508,24.111c0,0 40.249,-71.801 83.905,-56.581c0,0 47.763,25.657 11.428,91.008c0,0 -27.107,-35.369 -15.825,-58.538Z" style="fill:#312e3f;fill-rule:nonzero;"/><path d="M1843.43,1278.94c0,0 -38.099,284.984 74.218,275.948c112.341,-9.107 270.44,-98.401 270.44,-98.401l-24.861,-26.719c0,0 -200.522,102.894 -249.155,34.886c-21.164,-29.499 7.055,-176.001 7.055,-176.001l-77.697,-9.713Z" style="fill:#f99c73;fill-rule:nonzero;"/><path d="M1945.34,1351.44l-113.356,12.49c0,0 -21.043,-166.241 39.814,-159.138c60.761,7.103 66.077,103.161 73.542,146.648Z" style="fill:#f8d646;fill-rule:nonzero;"/><path d="M2157.99,1432.06c0,0 45.227,-21.72 75.619,-10.316c30.344,11.451 25.753,29.764 19.085,52.16c-6.668,22.468 -48.608,-7.031 -71.608,-6.137c-22.951,0.797 -23.096,-35.707 -23.096,-35.707Z" style="fill:#f99c73;fill-rule:nonzero;"/><path d="M2208.31,1535.51c0,0 62.717,-37.399 64.674,-14.037c1.933,23.387 -49.551,52.885 -80.257,54.697c-30.754,1.788 15.583,-40.66 15.583,-40.66Z" style="fill:#f99c73;fill-rule:nonzero;"/></g></svg>