<?xml version="1.0" encoding="UTF-8" standalone="no"?><!DOCTYPE svg PUBLIC "-//W3C//DTD SVG 1.1//EN" "http://www.w3.org/Graphics/SVG/1.1/DTD/svg11.dtd"><svg width="100%" height="100%" viewBox="0 0 1000 720" version="1.1" xmlns="http://www.w3.org/2000/svg" xmlns:xlink="http://www.w3.org/1999/xlink" xml:space="preserve" xmlns:serif="http://www.serif.com/" style="fill-rule:evenodd;clip-rule:evenodd;stroke-linejoin:round;stroke-miterlimit:1.41421;"><g><rect x="8.773" y="353.789" width="250.246" height="14.167" style="fill:#7fbfce;"/><rect x="8.773" y="630.797" width="250.246" height="9.442" style="fill:#7fbfce;"/><rect x="8.773" y="367.957" width="250.246" height="262.843" style="fill:#b8e4f0;"/><rect x="94.288" y="373.542" width="60.329" height="29.814" style="fill:#7fbfce;"/><path d="M150.42,377.461l-51.935,0l0,0.359l51.935,21.468l0,-21.827Z" style="fill:#2a445d;fill-rule:nonzero;"/><path d="M98.485,377.821l0,21.611l51.935,0l0,-0.144l-51.935,-21.467Z" style="fill:#48647c;fill-rule:nonzero;"/><path d="M213.717,380.462c0,2.286 -1.849,4.135 -4.126,4.135c-2.286,0 -4.135,-1.849 -4.135,-4.135c0,-2.281 1.849,-4.126 4.135,-4.126c2.277,0 4.126,1.845 4.126,4.126Z" style="fill:#7fbfce;fill-rule:nonzero;"/><path d="M213.717,395.671c0,2.287 -1.849,4.136 -4.126,4.136c-2.286,0 -4.135,-1.849 -4.135,-4.136c0,-2.281 1.849,-4.124 4.135,-4.124c2.277,0 4.126,1.843 4.126,4.124Z" style="fill:#7fbfce;fill-rule:nonzero;"/><path d="M227.942,380.462c0,2.286 -1.849,4.135 -4.125,4.135c-2.286,0 -4.135,-1.849 -4.135,-4.135c0,-2.281 1.849,-4.126 4.135,-4.126c2.276,0 4.125,1.845 4.125,4.126Z" style="fill:#7fbfce;fill-rule:nonzero;"/><path d="M227.942,395.671c0,2.287 -1.849,4.136 -4.125,4.136c-2.286,0 -4.135,-1.849 -4.135,-4.136c0,-2.281 1.849,-4.124 4.135,-4.124c2.276,0 4.125,1.843 4.125,4.124Z" style="fill:#7fbfce;fill-rule:nonzero;"/><path d="M242.167,380.462c0,2.286 -1.849,4.135 -4.125,4.135c-2.286,0 -4.135,-1.849 -4.135,-4.135c0,-2.281 1.849,-4.126 4.135,-4.126c2.276,0 4.125,1.845 4.125,4.126Z" style="fill:#7fbfce;fill-rule:nonzero;"/><path d="M242.167,395.671c0,2.287 -1.849,4.136 -4.125,4.136c-2.286,0 -4.135,-1.849 -4.135,-4.136c0,-2.281 1.849,-4.124 4.135,-4.124c2.276,0 4.125,1.843 4.125,4.124Z" style="fill:#7fbfce;fill-rule:nonzero;"/><path d="M87.137,362.952l-3.117,5.004l-18.524,29.804c-4.548,7.325 -12.563,11.777 -21.188,11.777l-35.534,0l0,-7.867l31.356,0c8.5,0 16.4,-4.395 20.891,-11.613l13.73,-22.101l5.696,-9.163l6.69,4.159Z" style="fill:#7fbfce;fill-rule:nonzero;"/><path d="M191.534,388.449c0,6.954 -5.638,12.592 -12.592,12.592c-6.949,0 -12.587,-5.638 -12.587,-12.592c0,-6.954 5.638,-12.592 12.587,-12.592c6.954,0 12.592,5.638 12.592,12.592Z" style="fill:#7fbfce;fill-rule:nonzero;"/><path d="M188.307,388.069c0,4.966 -4.025,8.99 -8.986,8.99c-4.965,0 -8.99,-4.024 -8.99,-8.99c0,-4.966 4.025,-8.99 8.99,-8.99c4.961,0 8.986,4.024 8.986,8.99Z" style="fill:#b8e4f0;fill-rule:nonzero;"/><path d="M176.699,378.752l2.242,13.601l2.248,-13.601l-4.49,0Z" style="fill:#7fbfce;fill-rule:nonzero;"/><path d="M179.134,374.982c-0.874,0 -1.576,-0.533 -1.576,-1.195l0,-3.208c0,-0.663 0.702,-1.197 1.576,-1.197c0.869,0 1.57,0.534 1.57,1.197l0,3.208c0,0.662 -0.701,1.195 -1.57,1.195Z" style="fill:#2a445d;fill-rule:nonzero;"/><path d="M167.132,381.173c-0.437,0.753 -1.253,1.095 -1.82,0.763l-2.781,-1.604c-0.571,-0.331 -0.686,-1.206 -0.249,-1.959c0.437,-0.754 1.248,-1.096 1.82,-0.769l2.78,1.609c0.572,0.327 0.687,1.206 0.25,1.96Z" style="fill:#2a445d;fill-rule:nonzero;"/><path d="M166.494,394.658c0.432,0.755 0.317,1.633 -0.25,1.96l-2.781,1.609c-0.571,0.331 -1.387,-0.015 -1.825,-0.769c-0.432,-0.754 -0.322,-1.627 0.25,-1.959l2.78,-1.604c0.572,-0.331 1.389,0.009 1.826,0.763Z" style="fill:#2a445d;fill-rule:nonzero;"/><path d="M177.852,401.958c0.869,0 1.571,0.533 1.571,1.196l0,3.209c0,0.662 -0.702,1.195 -1.571,1.195c-0.87,0 -1.575,-0.533 -1.575,-1.195l0,-3.209c0,-0.663 0.705,-1.196 1.575,-1.196Z" style="fill:#2a445d;fill-rule:nonzero;"/><path d="M189.848,395.768c0.437,-0.754 1.254,-1.095 1.825,-0.764l2.781,1.604c0.577,0.331 0.682,1.206 0.25,1.964c-0.437,0.749 -1.254,1.095 -1.825,0.764l-2.781,-1.609c-0.571,-0.326 -0.677,-1.205 -0.25,-1.959Z" style="fill:#2a445d;fill-rule:nonzero;"/><path d="M190.492,382.282c-0.437,-0.754 -0.322,-1.633 0.25,-1.96l2.78,-1.608c0.572,-0.331 1.383,0.014 1.821,0.768c0.437,0.754 0.321,1.628 -0.25,1.959l-2.781,1.604c-0.566,0.332 -1.383,-0.009 -1.82,-0.763Z" style="fill:#2a445d;fill-rule:nonzero;"/><rect x="8.773" y="325.459" width="250.246" height="35.414" style="fill:#b8e4f0;"/><path d="M47.473,382.383l-24.676,0c-2.531,0 -4.581,2.051 -4.581,4.582c0,2.526 2.05,4.582 4.581,4.582l24.676,0c2.531,0 4.581,-2.056 4.581,-4.582c0,-2.531 -2.05,-4.582 -4.581,-4.582Z" style="fill:#7fbfce;fill-rule:nonzero;"/><path d="M213.717,491.199c0,44.082 -35.736,79.818 -79.819,79.818c-44.087,0 -79.823,-35.735 -79.823,-79.818c0,-44.088 35.736,-79.819 79.823,-79.819c44.082,0 79.819,35.731 79.819,79.819Z" style="fill:#7fbfce;fill-rule:nonzero;"/><path d="M205.269,491.199c0,39.414 -31.951,71.37 -71.371,71.37c-39.418,0 -71.374,-31.956 -71.374,-71.37c0,-39.419 31.956,-71.375 71.374,-71.375c39.42,0 71.371,31.956 71.371,71.375Z" style="fill:#b8e4f0;fill-rule:nonzero;"/><path d="M187.774,491.189c0,11.474 -3.602,22.097 -9.715,30.833l-4.832,-3.165c-8.683,12.357 -23.071,20.43 -39.328,20.43c-26.567,0 -48.102,-21.53 -48.102,-48.098c0,-26.548 21.535,-48.093 48.102,-48.093c15.565,0 29.401,7.397 38.18,18.851l4.899,-3.098c6.767,9.019 10.796,20.204 10.796,32.34l0,0Z" style="fill:#69aeb9;fill-rule:nonzero;"/><path d="M181.996,491.189c0,10.311 -3.242,19.849 -8.769,27.668c-8.683,12.357 -23.071,20.43 -39.329,20.43c-26.567,0 -48.101,-21.53 -48.101,-48.098c0,-26.548 21.534,-48.093 48.101,-48.093c15.566,0 29.402,7.397 38.181,18.851c6.219,8.106 9.917,18.245 9.917,29.242l0,0Z" style="fill:#7fbfce;fill-rule:nonzero;"/><path d="M176.396,491.189c0,23.485 -19.032,42.513 -42.498,42.513l-0.696,-0.015c12.794,-7.319 21.419,-21.107 21.419,-36.893c0,-23.245 -18.662,-42.133 -41.83,-42.479c6.215,-3.573 13.409,-5.619 21.107,-5.619c23.466,0 42.498,19.029 42.498,42.493Z" style="fill:#638197;fill-rule:nonzero;"/><path d="M154.622,496.794c0,15.786 -8.626,29.574 -21.419,36.893c-23.149,-0.36 -41.802,-19.249 -41.802,-42.497c0,-15.781 8.611,-29.555 21.39,-36.874c23.168,0.345 41.831,19.233 41.831,42.478Z" style="fill:#48647c;fill-rule:nonzero;"/><rect x="8.773" y="587.295" width="250.246" height="7.934" style="fill:#7fbfce;"/><path d="M163.814,601.68l0,29.117l4.725,0l0,-24.396l71.27,0l0,24.396l4.721,0l0,-29.117l-80.716,0l0,0Z" style="fill:#7fbfce;fill-rule:nonzero;"/><path d="M133.866,428.228c39.957,-3.665 73.853,29.435 66.745,74.805c-4.197,24.996 -28.119,53.706 -66.745,50.118c76.274,-14.896 75.659,-110.184 0,-124.923Z" style="fill:#fff;fill-rule:nonzero;"/><path d="M15.977,331.414l-1.959,-0.183l1.81,0l0.149,0.183Z" style="fill:#daf1f8;fill-rule:nonzero;"/><path d="M259.019,605.828l0,-10.604l0,-7.934l0,-17.337c0,13.394 0,25.554 0,35.875Z" style="fill:#df3a63;fill-rule:nonzero;"/><path d="M259.019,375.861l0,-7.905l-41.685,0l41.685,0l0,-6.906c0,4.601 0,9.552 0,14.811Z" style="fill:#f27394;fill-rule:nonzero;"/><path d="M259.019,361.05l0,-0.177l0,-34.483c0,3.905 0,16.55 0,34.66Z" style="fill:#f16486;fill-rule:nonzero;"/><path d="M259.019,438.299l0,-25.098c0,8.097 0,16.502 0,25.098Z" style="fill:#f27394;fill-rule:nonzero;"/><path d="M259.019,413.2l0,-24.377c0,7.703 0,15.872 0,24.377Z" style="fill:#f16486;fill-rule:nonzero;"/><path d="M259.019,500.727l0,-49.471c0,16.266 0,33.003 0,49.471Z" style="fill:#f16486;fill-rule:nonzero;"/><path d="M259.019,563.16l0,-21.011c0,7.223 0,14.249 0,21.011Z" style="fill:#f27394;fill-rule:nonzero;"/><path d="M259.019,542.149l0,-28.46c0,9.697 0,19.244 0,28.46Z" style="fill:#f16486;fill-rule:nonzero;"/><path d="M259.019,367.957l-41.685,0l-133.315,0l3.117,-5.005l-3.342,-2.079l175.226,0l0,7.084l-0.001,0Zm-184.268,0l-29.958,0l-5.586,-7.084l39.948,0l-4.404,7.084Z" style="fill:#91cad7;fill-rule:nonzero;"/><path d="M259.019,639.567l-6.911,-8.765l6.911,0l0,8.765Z" style="fill:#91cad7;fill-rule:nonzero;"/><path d="M259.019,630.797l-6.911,0l-7.578,-9.61l0,-19.507l-15.387,0l-5.091,-6.455l34.967,0l0,35.572Zm0,-43.506l-41.225,0l-29.627,-37.56c15.715,-14.581 25.55,-35.409 25.55,-58.534c0,-44.087 -35.736,-79.818 -79.819,-79.818c-16.386,0 -31.614,4.932 -44.283,13.399l-22.88,-29.012l17.284,-27.811l175,0l0,219.336Zm-81.167,-185.334c-0.87,0 -1.575,0.533 -1.575,1.195l0,3.209c0,0.663 0.705,1.195 1.575,1.195c0.869,0 1.571,-0.532 1.571,-1.195l0,-3.209c0,-0.662 -0.702,-1.195 -1.571,-1.195Zm-83.564,-28.417l0,29.814l60.33,0l0,-29.814l-60.33,0Zm84.654,2.315c-6.949,0 -12.587,5.638 -12.587,12.592c0,6.954 5.638,12.593 12.587,12.593c6.954,0 12.593,-5.639 12.593,-12.593c0,-6.954 -5.639,-12.592 -12.593,-12.592Zm59.101,15.69c-2.287,0 -4.135,1.844 -4.135,4.125c0,2.286 1.848,4.135 4.135,4.135c2.276,0 4.125,-1.849 4.125,-4.135c0,-2.281 -1.849,-4.125 -4.125,-4.125Zm-14.226,0c-2.286,0 -4.135,1.844 -4.135,4.125c0,2.286 1.849,4.135 4.135,4.135c2.277,0 4.126,-1.849 4.126,-4.135c0,-2.281 -1.849,-4.125 -4.126,-4.125Zm-14.225,0c-2.286,0 -4.135,1.844 -4.135,4.125c0,2.286 1.849,4.135 4.135,4.135c2.277,0 4.125,-1.849 4.125,-4.135c0,-2.281 -1.848,-4.125 -4.125,-4.125Zm-18.398,3.333c-0.49,0 -1.019,0.331 -1.345,0.888c-0.427,0.754 -0.322,1.633 0.25,1.96l2.78,1.608c0.149,0.087 0.313,0.125 0.485,0.125c0.486,0 1.019,-0.331 1.341,-0.888c0.432,-0.759 0.326,-1.633 -0.25,-1.964l-2.781,-1.604c-0.149,-0.087 -0.313,-0.125 -0.48,-0.125Zm-26.04,-1.11c-0.172,0 -0.336,0.039 -0.485,0.125l-2.781,1.604c-0.571,0.332 -0.682,1.205 -0.249,1.96c0.327,0.561 0.855,0.893 1.345,0.893c0.168,0 0.331,-0.038 0.48,-0.125l2.781,-1.609c0.566,-0.326 0.681,-1.205 0.249,-1.959c-0.322,-0.558 -0.855,-0.889 -1.34,-0.889Zm72.889,-17.433c-2.286,0 -4.135,1.844 -4.135,4.125c0,2.286 1.849,4.135 4.135,4.135c2.276,0 4.125,-1.849 4.125,-4.135c0,-2.281 -1.849,-4.125 -4.125,-4.125Zm-14.225,0c-2.287,0 -4.136,1.844 -4.136,4.125c0,2.286 1.849,4.135 4.136,4.135c2.276,0 4.125,-1.849 4.125,-4.135c0,-2.281 -1.849,-4.125 -4.125,-4.125Zm-14.226,0c-2.286,0 -4.135,1.844 -4.135,4.125c0,2.286 1.849,4.135 4.135,4.135c2.277,0 4.126,-1.849 4.126,-4.135c0,-2.281 -1.849,-4.125 -4.126,-4.125Zm-15.589,2.253c-0.168,0 -0.331,0.038 -0.48,0.124l-2.781,1.609c-0.571,0.326 -0.686,1.206 -0.25,1.959c0.323,0.558 0.856,0.889 1.341,0.889c0.168,0 0.336,-0.039 0.48,-0.125l2.78,-1.604c0.572,-0.331 0.688,-1.205 0.25,-1.959c-0.321,-0.562 -0.855,-0.893 -1.34,-0.893Zm-30.38,-1.11c-0.486,0 -1.019,0.331 -1.34,0.894c-0.437,0.753 -0.322,1.627 0.249,1.958l2.781,1.605c0.149,0.087 0.312,0.125 0.481,0.125c0.485,0 1.018,-0.332 1.339,-0.888c0.437,-0.755 0.322,-1.633 -0.25,-1.96l-2.78,-1.609c-0.149,-0.082 -0.312,-0.125 -0.48,-0.125Zm15.512,-8.097c-0.874,0 -1.575,0.533 -1.575,1.196l0,3.208c0,0.662 0.701,1.195 1.575,1.195c0.869,0 1.57,-0.533 1.57,-1.195l0,-3.208c0,-0.663 -0.701,-1.196 -1.57,-1.196Zm-117.581,19.815l-16.76,-21.241l29.958,0l-13.198,21.241Z" style="fill:#c4e8f3;fill-rule:nonzero;"/><path d="M154.617,403.356l-60.33,0l0,-29.815l60.33,0l0,29.815Zm-56.132,-25.536l0,21.612l51.935,0l0,-0.144l-51.935,-21.468Zm0,-0.359l0,0.359l51.935,21.468l0,-21.827l-51.935,0Z" style="fill:#91cad7;fill-rule:nonzero;"/><path d="M150.42,399.288l-51.935,-21.468l0,-0.359l51.935,0l0,21.827Z" style="fill:#2e506f;fill-rule:nonzero;"/><path d="M150.42,399.432l-51.935,0l0,-21.611l51.935,21.467l0,0.144Z" style="fill:#537594;fill-rule:nonzero;"/><path d="M209.591,384.597c-2.286,0 -4.135,-1.849 -4.135,-4.135c0,-2.281 1.849,-4.125 4.135,-4.125c2.277,0 4.125,1.844 4.125,4.125c0,2.286 -1.848,4.135 -4.125,4.135Z" style="fill:#91cad7;fill-rule:nonzero;"/><path d="M209.591,399.807c-2.286,0 -4.135,-1.85 -4.135,-4.136c0,-2.281 1.849,-4.124 4.135,-4.124c2.277,0 4.125,1.843 4.125,4.124c0,2.286 -1.848,4.136 -4.125,4.136Z" style="fill:#91cad7;fill-rule:nonzero;"/><path d="M223.817,384.597c-2.286,0 -4.135,-1.849 -4.135,-4.135c0,-2.281 1.849,-4.125 4.135,-4.125c2.276,0 4.125,1.844 4.125,4.125c0,2.286 -1.849,4.135 -4.125,4.135Z" style="fill:#91cad7;fill-rule:nonzero;"/><path d="M223.817,399.807c-2.286,0 -4.135,-1.85 -4.135,-4.136c0,-2.281 1.849,-4.124 4.135,-4.124c2.276,0 4.125,1.843 4.125,4.124c0,2.286 -1.849,4.136 -4.125,4.136Z" style="fill:#91cad7;fill-rule:nonzero;"/><path d="M238.042,384.597c-2.287,0 -4.135,-1.849 -4.135,-4.135c0,-2.281 1.848,-4.125 4.135,-4.125c2.276,0 4.125,1.844 4.125,4.125c0,2.286 -1.849,4.135 -4.125,4.135Z" style="fill:#91cad7;fill-rule:nonzero;"/><path d="M238.042,399.807c-2.287,0 -4.135,-1.85 -4.135,-4.136c0,-2.281 1.848,-4.124 4.135,-4.124c2.276,0 4.125,1.843 4.125,4.124c0,2.286 -1.849,4.136 -4.125,4.136Z" style="fill:#91cad7;fill-rule:nonzero;"/><path d="M66.735,395.768l-5.182,-6.57l13.198,-21.242l4.403,-7.083l4.64,0l3.342,2.079l-3.117,5.004l-17.284,27.812Z" style="fill:#91cad7;fill-rule:nonzero;"/><path d="M178.942,401.041c-6.949,0 -12.588,-5.638 -12.588,-12.592c0,-6.954 5.639,-12.593 12.588,-12.593c6.954,0 12.592,5.639 12.592,12.593c0,6.954 -5.638,12.592 -12.592,12.592Zm-2.128,-21.607c-3.746,1.085 -6.483,4.544 -6.483,8.635c0,4.966 4.024,8.99 8.99,8.99c4.961,0 8.985,-4.024 8.985,-8.99c0,-4.355 -3.092,-7.982 -7.203,-8.813l0.086,-0.504l-4.49,0l0.115,0.682Z" style="fill:#91cad7;fill-rule:nonzero;"/><path d="M179.321,397.06c-4.966,0 -8.99,-4.025 -8.99,-8.991c0,-4.091 2.737,-7.55 6.483,-8.635l2.127,12.919l2.162,-13.096c4.111,0.83 7.203,4.457 7.203,8.812c0,4.966 -4.024,8.991 -8.985,8.991Z" style="fill:#c4e8f3;fill-rule:nonzero;"/><path d="M178.942,392.353l-2.128,-12.919l-0.115,-0.682l4.49,0l-0.086,0.504l-2.161,13.097Z" style="fill:#91cad7;fill-rule:nonzero;"/><path d="M179.134,374.982c-0.874,0 -1.576,-0.533 -1.576,-1.195l0,-3.208c0,-0.663 0.702,-1.197 1.576,-1.197c0.869,0 1.57,0.534 1.57,1.197l0,3.208c0,0.662 -0.701,1.195 -1.57,1.195Z" style="fill:#2e506f;fill-rule:nonzero;"/><path d="M165.792,382.061c-0.168,0 -0.331,-0.038 -0.48,-0.125l-2.781,-1.604c-0.571,-0.331 -0.686,-1.206 -0.249,-1.959c0.321,-0.562 0.854,-0.893 1.339,-0.893c0.168,0 0.332,0.042 0.481,0.124l2.78,1.609c0.572,0.327 0.687,1.206 0.25,1.96c-0.322,0.557 -0.855,0.888 -1.34,0.888Z" style="fill:#2e506f;fill-rule:nonzero;"/><path d="M162.983,398.352c-0.49,0 -1.018,-0.332 -1.345,-0.894c-0.432,-0.754 -0.322,-1.627 0.249,-1.959l2.781,-1.604c0.149,-0.087 0.313,-0.125 0.485,-0.125c0.485,0 1.018,0.331 1.341,0.888c0.432,0.755 0.317,1.633 -0.25,1.96l-2.781,1.609c-0.149,0.087 -0.312,0.125 -0.48,0.125Z" style="fill:#2e506f;fill-rule:nonzero;"/><path d="M177.852,407.558c-0.87,0 -1.575,-0.533 -1.575,-1.196l0,-3.208c0,-0.663 0.705,-1.196 1.575,-1.196c0.869,0 1.571,0.533 1.571,1.196l0,3.208c0,0.663 -0.702,1.196 -1.571,1.196Z" style="fill:#2e506f;fill-rule:nonzero;"/><path d="M193.364,399.461c-0.173,0 -0.336,-0.039 -0.485,-0.125l-2.781,-1.608c-0.571,-0.327 -0.677,-1.206 -0.25,-1.96c0.327,-0.557 0.855,-0.888 1.345,-0.888c0.168,0 0.331,0.038 0.48,0.124l2.781,1.604c0.577,0.331 0.682,1.206 0.25,1.964c-0.322,0.558 -0.855,0.889 -1.34,0.889Z" style="fill:#2e506f;fill-rule:nonzero;"/><path d="M191.832,383.17c-0.485,0 -1.018,-0.331 -1.341,-0.888c-0.436,-0.754 -0.321,-1.633 0.25,-1.96l2.781,-1.608c0.149,-0.087 0.312,-0.125 0.48,-0.125c0.485,0 1.019,0.331 1.34,0.894c0.437,0.753 0.322,1.627 -0.25,1.958l-2.78,1.605c-0.144,0.086 -0.312,0.124 -0.48,0.124Z" style="fill:#2e506f;fill-rule:nonzero;"/><path d="M259.019,360.873l-175.225,0l-4.64,0l-39.947,0l-23.23,-29.459l238.321,22.375l0,-22.558l-238.47,0l-4.553,-5.772l247.744,0l0,35.414l0,0Z" style="fill:#c4e8f3;fill-rule:nonzero;"/><path d="M188.167,549.732l-5.249,-6.656c13.764,-13.015 22.351,-31.442 22.351,-51.877c0,-39.419 -31.951,-71.375 -71.371,-71.375c-14.407,0 -27.816,4.269 -39.034,11.612l-5.249,-6.657c12.669,-8.466 27.897,-13.398 44.283,-13.398c44.083,0 79.819,35.73 79.819,79.818c0,23.124 -9.835,43.953 -25.55,58.534l0,-0.001Z" style="fill:#91cad7;fill-rule:nonzero;"/><path d="M182.918,543.076l-3.121,-3.963c11.535,-9.878 18.691,-23.455 20.814,-36.08c6.747,-43.07 -23.451,-75.079 -60.714,-75.079c-1.993,0 -4.005,0.091 -6.032,0.274c58.284,11.353 72.034,70.506 40.409,103.883l-5.864,-7.429c1.753,-1.811 3.367,-3.756 4.817,-5.826l4.831,3.165c6.113,-8.736 9.715,-19.359 9.715,-30.832c0,-12.136 -4.028,-23.321 -10.795,-32.34l-4.899,3.097c-8.779,-11.454 -22.615,-18.85 -38.18,-18.85c-8.962,0 -17.357,2.45 -24.536,6.719l-14.499,-18.379c11.219,-7.343 24.627,-11.613 39.035,-11.613c39.419,0 71.37,31.956 71.37,71.375c0,20.435 -8.587,38.863 -22.351,51.877l0,0.001Z" style="fill:#c4e8f3;fill-rule:nonzero;"/><path d="M178.058,522.022l-4.831,-3.165c5.527,-7.819 8.769,-17.357 8.769,-27.668c0,-10.998 -3.698,-21.136 -9.917,-29.242c-8.779,-11.454 -22.615,-18.851 -38.181,-18.851c-8.961,0 -17.356,2.45 -24.536,6.719c7.18,-4.269 15.575,-6.719 24.536,-6.719c15.566,0 29.402,7.397 38.181,18.851l4.898,-3.098c6.767,9.019 10.796,20.204 10.796,32.34c0,11.473 -3.602,22.097 -9.715,30.833l0,0Z" style="fill:#7bbdc8;fill-rule:nonzero;"/><path d="M168.41,524.682l-3.496,-4.433c7.121,-7.602 11.483,-17.818 11.483,-29.06c0,-23.465 -19.033,-42.493 -42.499,-42.493c-7.665,0 -14.83,2.032 -21.025,5.571l-3.511,-4.452c7.18,-4.269 15.575,-6.719 24.536,-6.719c15.566,0 29.402,7.397 38.181,18.851c6.219,8.106 9.917,18.244 9.917,29.242c0,10.311 -3.242,19.849 -8.769,27.668c-1.451,2.069 -3.064,4.015 -4.817,5.825l0,0Z" style="fill:#91cad7;fill-rule:nonzero;"/><path d="M164.914,520.249l-11.282,-14.302c0.649,-2.949 0.99,-6.013 0.99,-9.154c0,-23.205 -18.6,-42.065 -41.71,-42.478l-0.039,-0.048c6.196,-3.539 13.361,-5.571 21.026,-5.571c23.465,0 42.498,19.028 42.498,42.493c0,11.242 -4.362,21.458 -11.483,29.06l0,0Z" style="fill:#7097ab;fill-rule:nonzero;"/><path d="M153.632,505.948l-40.72,-51.632c23.11,0.413 41.71,19.273 41.71,42.478c0,3.141 -0.341,6.205 -0.99,9.154Z" style="fill:#537594;fill-rule:nonzero;"/><path d="M259.019,595.229l-34.967,0l-6.258,-7.934l41.225,0l0,7.934Z" style="fill:#91cad7;fill-rule:nonzero;"/><path d="M239.809,615.202l-6.944,-8.798l6.944,0l0,8.798Z" style="fill:#c4e8f3;fill-rule:nonzero;"/><path d="M244.53,621.192l-4.721,-5.989l0,-8.798l-6.945,0l-3.721,-4.72l15.387,0l0,19.507Z" style="fill:#91cad7;fill-rule:nonzero;"/><path d="M179.797,539.113l-5.523,-7.002c31.625,-33.377 17.875,-92.53 -40.408,-103.883c2.026,-0.183 4.038,-0.274 6.031,-0.274c37.263,0 67.461,32.009 60.714,75.079c-2.123,12.625 -9.279,26.202 -20.814,36.08l0,0Z" style="fill:#fff;fill-rule:nonzero;"/><path d="M254.298,353.789l-238.321,-22.375l-0.149,-0.183l238.471,0l0,22.558l-0.001,0Z" style="fill:#e0f3fa;fill-rule:nonzero;"/><rect x="193.311" y="608.758" width="22.039" height="4.726" style="fill:#7fbfce;"/><rect x="788.005" y="636.219" width="12.554" height="9.975" style="fill:#58595c;"/><rect x="785.262" y="646.191" width="18.053" height="4.985" style="fill:#7f8d8e;"/><rect x="960.076" y="636.219" width="12.558" height="9.975" style="fill:#58595c;"/><rect x="957.326" y="646.191" width="18.053" height="4.985" style="fill:#7f8d8e;"/><rect x="781.316" y="434.956" width="202.143" height="29.91" style="fill:#949699;"/><rect x="781.316" y="433.118" width="202.143" height="14.96" style="fill:#58595c;"/><rect x="774.095" y="460.112" width="217.785" height="178.458" style="fill:#bdbec0;"/><rect x="774.095" y="455.012" width="217.785" height="5.1" style="fill:#e7e7e8;"/><rect x="773.187" y="212.335" width="217.795" height="5.749" style="fill:#e7e7e8;"/><rect x="773.18" y="218.074" width="217.79" height="226.737" style="fill:#bdbec0;"/><rect x="844.978" y="245.276" width="80.625" height="32.825" style="fill:#e7e7e8;"/><rect x="796.083" y="218.074" width="40.236" height="226.737" style="fill:#c8c9cb;"/><rect x="796.083" y="460.112" width="40.236" height="178.458" style="fill:#c8c9cb;"/><path d="M792.742,328.576c-4.322,0 -7.818,2.967 -7.818,6.627l0,81.566c0,3.659 3.496,6.627 7.818,6.627c1.066,0 2.085,-0.182 3.007,-0.508l0,-93.803c-0.922,-0.327 -1.941,-0.509 -3.007,-0.509Z" style="fill:#949699;fill-rule:nonzero;"/><path d="M795.745,329.084l0,93.803c2.824,-0.999 4.812,-3.362 4.812,-6.119l0,-81.566c0,-2.756 -1.988,-5.119 -4.812,-6.118Z" style="fill:#808285;fill-rule:nonzero;"/><path d="M792.742,473.381c-4.322,0 -7.818,2.968 -7.818,6.628l0,81.566c0,3.659 3.496,6.627 7.818,6.627c1.066,0 2.085,-0.182 3.007,-0.508l0,-93.798c-0.922,-0.327 -1.941,-0.515 -3.007,-0.515l0,0Z" style="fill:#949699;fill-rule:nonzero;"/><path d="M795.745,473.896l0,93.798c2.824,-0.999 4.812,-3.362 4.812,-6.119l0,-81.566c0,-2.756 -1.988,-5.115 -4.812,-6.113l0,0Z" style="fill:#808285;fill-rule:nonzero;"/><path d="M851.652,248.867l60.517,25.641l0.601,0l0,-25.641l-61.118,0Z" style="fill:#2a445d;fill-rule:nonzero;"/><path d="M851.652,248.867l-1.455,0l0,25.641l61.972,0l-60.517,-25.641Z" style="fill:#48647c;fill-rule:nonzero;"/><rect x="915.674" y="249.012" width="8.827" height="4.082" style="fill:#949699;"/><rect x="915.674" y="255.812" width="8.827" height="4.082" style="fill:#949699;"/><rect x="915.674" y="262.613" width="8.827" height="4.078" style="fill:#949699;"/><rect x="915.674" y="269.413" width="8.827" height="4.078" style="fill:#949699;"/><rect x="930.924" y="218.074" width="40.24" height="226.737" style="fill:#c8c9cb;"/><rect x="930.924" y="460.112" width="40.24" height="178.458" style="fill:#c8c9cb;"/><rect x="276.337" y="398.923" width="2.958" height="10.575" style="fill:#7fbfce;"/><rect x="267.664" y="365.358" width="235.252" height="13.313" style="fill:#7fbfce;"/><rect x="267.664" y="625.757" width="235.252" height="8.88" style="fill:#7fbfce;"/><rect x="267.664" y="378.671" width="235.252" height="247.085" style="fill:#b8e4f0;"/><rect x="348.053" y="383.925" width="56.713" height="38.67" style="fill:#7fbfce;"/><path d="M400.823,389.011l-48.827,0l0,0.461l48.827,27.845l0,-28.306Z" style="fill:#2a445d;fill-rule:nonzero;"/><path d="M351.996,389.472l0,28.037l48.827,0l0,-0.192l-48.827,-27.845Z" style="fill:#48647c;fill-rule:nonzero;"/><rect x="267.664" y="352.468" width="235.252" height="19.546" style="fill:#b8e4f0;"/><rect x="267.664" y="584.861" width="235.252" height="7.458" style="fill:#7fbfce;"/><rect x="267.664" y="426.389" width="235.252" height="7.458" style="fill:#7fbfce;"/><rect x="315.189" y="385.509" width="17.755" height="6.723" style="fill:#7fbfce;"/><rect x="315.189" y="397.482" width="17.755" height="6.729" style="fill:#7fbfce;"/><rect x="315.189" y="409.459" width="17.755" height="6.729" style="fill:#7fbfce;"/><rect x="414.813" y="388.151" width="17.755" height="6.729" style="fill:#7fbfce;"/><rect x="414.813" y="400.128" width="17.755" height="6.723" style="fill:#7fbfce;"/><rect x="414.813" y="412.101" width="17.755" height="6.729" style="fill:#7fbfce;"/><path d="M449.108,392.094c0,2.051 -1.666,3.707 -3.717,3.707c-2.046,0 -3.708,-1.656 -3.708,-3.707c0,-2.05 1.662,-3.712 3.708,-3.712c2.051,0 3.717,1.662 3.717,3.712Z" style="fill:#7fbfce;fill-rule:nonzero;"/><path d="M449.108,402.424c0,2.05 -1.666,3.713 -3.717,3.713c-2.046,0 -3.708,-1.663 -3.708,-3.713c0,-2.046 1.662,-3.707 3.708,-3.707c2.051,0 3.717,1.661 3.717,3.707Z" style="fill:#7fbfce;fill-rule:nonzero;"/><path d="M449.108,412.759c0,2.051 -1.666,3.713 -3.717,3.713c-2.046,0 -3.708,-1.662 -3.708,-3.713c0,-2.051 1.662,-3.713 3.708,-3.713c2.051,0 3.717,1.662 3.717,3.713Z" style="fill:#cf2032;fill-rule:nonzero;"/><path d="M485.497,402.424c0,6.517 -5.287,11.8 -11.8,11.8c-6.517,0 -11.794,-5.283 -11.794,-11.8c0,-6.512 5.277,-11.795 11.794,-11.795c6.513,0 11.8,5.283 11.8,11.795Z" style="fill:#7fbfce;fill-rule:nonzero;"/><path d="M482.313,402.424c0,4.76 -3.862,8.616 -8.616,8.616c-4.754,0 -8.616,-3.856 -8.616,-8.616c0,-4.754 3.862,-8.611 8.616,-8.611c4.754,0 8.616,3.857 8.616,8.611Z" style="fill:#b8e4f0;fill-rule:nonzero;"/><path d="M312.697,404.211c0,6.517 -5.278,11.799 -11.795,11.799c-6.517,0 -11.8,-5.282 -11.8,-11.799c0,-6.517 5.283,-11.8 11.8,-11.8c6.517,0 11.795,5.283 11.795,11.8Z" style="fill:#7fbfce;fill-rule:nonzero;"/><path d="M309.513,404.211c0,4.759 -3.852,8.615 -8.611,8.615c-4.76,0 -8.616,-3.856 -8.616,-8.615c0,-4.755 3.856,-8.616 8.616,-8.616c4.759,0 8.611,3.861 8.611,8.616Z" style="fill:#b8e4f0;fill-rule:nonzero;"/><path d="M277.816,400.402c-2.099,0 -3.808,1.709 -3.808,3.808c0,2.099 1.709,3.809 3.808,3.809c2.104,0 3.809,-1.71 3.809,-3.809c0,-2.099 -1.705,-3.808 -3.809,-3.808Zm0,10.58c-3.731,0 -6.766,-3.04 -6.766,-6.772c0,-3.732 3.035,-6.767 6.766,-6.767c3.736,0 6.772,3.035 6.772,6.767c0,3.732 -3.036,6.772 -6.772,6.772Z" style="fill:#7fbfce;fill-rule:nonzero;"/><rect x="484.479" y="390.932" width="9.985" height="2.958" style="fill:#7fbfce;"/><rect x="484.479" y="410.622" width="9.985" height="2.963" style="fill:#7fbfce;"/><rect x="454.012" y="391.099" width="9.989" height="2.963" style="fill:#7fbfce;"/><rect x="454.012" y="410.79" width="9.989" height="2.963" style="fill:#7fbfce;"/><rect x="343.303" y="442.967" width="80.39" height="9.37" style="fill:#7fbfce;"/><path d="M502.916,375.861l0,-3.847l0,-19.546l0,23.393Z" style="fill:#f16486;fill-rule:nonzero;"/><path d="M502.916,438.299l0,-4.452l0,-7.458l0,-13.188l0,25.098Z" style="fill:#f27394;fill-rule:nonzero;"/><path d="M502.916,605.828l0,-13.51l0,-7.458l0,-8.741l0,29.709Z" style="fill:#f16486;fill-rule:nonzero;"/><path d="M502.916,378.671l-204.569,0c-1.834,-2.277 -3.626,-4.501 -5.369,-6.657l209.938,0l0,6.657l0,0Z" style="fill:#91cad7;fill-rule:nonzero;"/><path d="M502.916,629.919c-1.081,-1.316 -2.219,-2.705 -3.405,-4.16l3.405,0l0,4.16Z" style="fill:#91cad7;fill-rule:nonzero;"/><path d="M502.916,625.757l-3.405,0c-7.352,-8.995 -16.66,-20.387 -27.317,-33.435l30.722,0l0,33.435Zm0,-40.893l-36.797,0c-30.789,-37.715 -71.049,-87.075 -108.014,-132.526l65.589,0l0,-9.369l-73.214,0c-2.483,-3.065 -4.947,-6.104 -7.401,-9.12l159.838,0l0,151.015l-0.001,0Zm0,-158.474l-165.889,0c-2.815,-3.449 -5.567,-6.853 -8.289,-10.196c0,-0.005 -0.005,-0.005 -0.005,-0.005l4.211,0l0,-6.728l-9.662,0c-1.436,-1.772 -2.858,-3.515 -4.265,-5.249l13.927,0l0,-6.729l-17.755,0l0,1.998l-0.004,-0.004c-5.931,-7.31 -11.569,-14.279 -16.838,-20.805l204.569,0l0,47.718l0,0Zm-154.862,-42.464l0,38.67l56.713,0l0,-38.67l-56.713,0Zm66.76,28.176l0,6.729l17.755,0l0,-6.729l-17.755,0Zm30.577,-3.054c-2.046,0 -3.707,1.662 -3.707,3.713c0,2.05 1.661,3.712 3.707,3.712c2.051,0 3.717,-1.662 3.717,-3.712c0,-2.051 -1.666,-3.713 -3.717,-3.713Zm28.306,-18.418c-6.517,0 -11.794,5.283 -11.794,11.796c0,6.516 5.277,11.799 11.794,11.799c6.513,0 11.8,-5.283 11.8,-11.799c0,-6.513 -5.287,-11.796 -11.8,-11.796Zm-19.685,20.161l0,2.963l9.99,0l0,-2.963l-9.99,0Zm30.467,-0.168l0,2.963l9.985,0l0,-2.963l-9.985,0Zm-69.665,-10.493l0,6.723l17.755,0l0,-6.723l-17.755,0Zm30.577,-1.412c-2.046,0 -3.707,1.662 -3.707,3.708c0,2.05 1.661,3.712 3.707,3.712c2.051,0 3.717,-1.662 3.717,-3.712c0,-2.046 -1.666,-3.708 -3.717,-3.708Zm0,-10.335c-2.046,0 -3.707,1.662 -3.707,3.712c0,2.051 1.661,3.707 3.707,3.707c2.051,0 3.717,-1.656 3.717,-3.707c0,-2.05 -1.666,-3.712 -3.717,-3.712Zm-30.577,-0.231l0,6.729l17.755,0l0,-6.729l-17.755,0Zm39.198,2.949l0,2.963l9.99,0l0,-2.963l-9.99,0Zm30.467,-0.168l0,2.958l9.985,0l0,-2.958l-9.985,0Zm-169.289,-5.422l0,6.723l17.755,0l0,-6.723l-17.755,0Z" style="fill:#c4e8f3;fill-rule:nonzero;"/><path d="M404.766,422.594l-56.713,0l0,-38.67l56.713,0l0,38.67Zm-52.77,-33.123l0,28.038l48.827,0l0,-0.193l-24.248,-13.826l24.248,13.826l0,-13.826l0,-3.362l0,-11.118l-48.827,0l0,0.461l18.682,10.657l-18.682,-10.657Z" style="fill:#91cad7;fill-rule:nonzero;"/><path d="M400.823,417.317l-24.248,-13.827l24.248,0l0,13.827Zm0,-17.189l-30.145,0l-18.682,-10.657l0,-0.46l48.827,0l0,11.117Z" style="fill:#2e506f;fill-rule:nonzero;"/><path d="M400.823,417.509l-48.827,0l0,-28.038l18.682,10.657l-18.682,0l0,3.362l24.579,0l24.248,13.826l0,0.193Z" style="fill:#537594;fill-rule:nonzero;"/><path d="M502.916,372.014l-209.938,0c-1.849,-2.276 -3.626,-4.499 -5.369,-6.656c-2.042,-2.541 -4,-4.976 -5.878,-7.309l216.435,9.523l0,-9.927l-216.757,0c-1.436,-1.786 -2.823,-3.515 -4.154,-5.177l225.661,0l0,19.546l0,0Z" style="fill:#c4e8f3;fill-rule:nonzero;"/><path d="M502.916,592.321l-30.722,0c-1.979,-2.43 -4.005,-4.913 -6.075,-7.459l36.797,0l0,7.459Z" style="fill:#91cad7;fill-rule:nonzero;"/><path d="M502.916,433.847l-159.838,0c-2.041,-2.502 -4.053,-5.004 -6.051,-7.458l165.889,0l0,7.458l0,0Z" style="fill:#91cad7;fill-rule:nonzero;"/><rect x="315.189" y="385.509" width="17.755" height="6.723" style="fill:#91cad7;"/><path d="M332.944,404.211l-13.927,0c-1.282,-1.599 -2.555,-3.165 -3.828,-4.731l0,-1.998l17.755,0l0,6.729Z" style="fill:#91cad7;fill-rule:nonzero;"/><path d="M332.944,416.188l-4.212,0c-1.829,-2.277 -3.65,-4.51 -5.451,-6.729l9.663,0l0,6.729Z" style="fill:#91cad7;fill-rule:nonzero;"/><rect x="414.813" y="388.151" width="17.755" height="6.729" style="fill:#91cad7;"/><rect x="414.813" y="400.128" width="17.755" height="6.723" style="fill:#91cad7;"/><rect x="414.813" y="412.101" width="17.755" height="6.729" style="fill:#91cad7;"/><path d="M445.391,395.801c-2.046,0 -3.708,-1.656 -3.708,-3.707c0,-2.051 1.662,-3.712 3.708,-3.712c2.051,0 3.717,1.661 3.717,3.712c0,2.051 -1.666,3.707 -3.717,3.707Z" style="fill:#91cad7;fill-rule:nonzero;"/><path d="M445.391,406.137c-2.046,0 -3.708,-1.663 -3.708,-3.713c0,-2.046 1.662,-3.708 3.708,-3.708c2.051,0 3.717,1.662 3.717,3.708c0,2.05 -1.666,3.713 -3.717,3.713Z" style="fill:#91cad7;fill-rule:nonzero;"/><path d="M445.391,416.472c-2.046,0 -3.708,-1.662 -3.708,-3.713c0,-2.051 1.662,-3.712 3.708,-3.712c2.051,0 3.717,1.661 3.717,3.712c0,2.051 -1.666,3.713 -3.717,3.713Z" style="fill:#d71f3a;fill-rule:nonzero;"/><path d="M473.697,414.224c-6.517,0 -11.794,-5.283 -11.794,-11.8c0,-6.512 5.277,-11.795 11.794,-11.795c6.513,0 11.8,5.283 11.8,11.795c0,6.517 -5.287,11.8 -11.8,11.8Zm0,-20.411c-4.754,0 -8.616,3.857 -8.616,8.611c0,4.76 3.862,8.616 8.616,8.616c4.755,0 8.616,-3.856 8.616,-8.616c0,-4.754 -3.861,-8.611 -8.616,-8.611Z" style="fill:#91cad7;fill-rule:nonzero;"/><path d="M473.697,411.04c-4.754,0 -8.616,-3.857 -8.616,-8.616c0,-4.754 3.862,-8.612 8.616,-8.612c4.755,0 8.616,3.858 8.616,8.612c0,4.759 -3.861,8.616 -8.616,8.616Z" style="fill:#c4e8f3;fill-rule:nonzero;"/><rect x="484.479" y="390.932" width="9.985" height="2.958" style="fill:#91cad7;"/><rect x="484.479" y="410.622" width="9.985" height="2.963" style="fill:#91cad7;"/><rect x="454.012" y="391.099" width="9.989" height="2.963" style="fill:#91cad7;"/><rect x="454.012" y="410.79" width="9.989" height="2.963" style="fill:#91cad7;"/><path d="M400.823,403.49l-24.248,0l-5.897,-3.362l30.145,0l0,3.362Z" style="fill:#223b53;fill-rule:nonzero;"/><path d="M376.576,403.49l-24.58,0l0,-3.362l18.682,0l5.898,3.362Z" style="fill:#3d576e;fill-rule:nonzero;"/><path d="M423.694,452.336l-65.589,0c-2.56,-3.136 -5.085,-6.272 -7.616,-9.359c-0.005,-0.005 -0.005,-0.005 -0.01,-0.01l73.214,0l0,9.369l0.001,0Z" style="fill:#91cad7;fill-rule:nonzero;"/><path d="M281.731,358.049l-9.202,-0.404l8.88,0c0.11,0.135 0.216,0.269 0.322,0.404Z" style="fill:#daf1f8;fill-rule:nonzero;"/><path d="M498.166,367.572l-216.435,-9.523c-0.106,-0.135 -0.212,-0.269 -0.322,-0.404l216.757,0l0,9.927l0,0Z" style="fill:#e0f3fa;fill-rule:nonzero;"/><rect x="519.446" y="363.974" width="230.949" height="284.8" style="fill:#2c3e50;"/><rect x="519.446" y="584.156" width="230.949" height="46.666" style="fill:#c1c1c1;"/><rect x="519.446" y="433.899" width="230.949" height="140.68" style="fill:#c1c1c1;"/><rect x="519.446" y="375.943" width="230.949" height="49.062" style="fill:#c1c1c1;"/><path d="M539.482,452.649l190.877,0l-5.216,7.16l-180.685,0l-4.975,-7.16l-0.001,0Z" style="fill:#a5a8aa;fill-rule:nonzero;"/><path d="M544.103,464.497l-1.322,0l0,90.94l184.284,0l0,-1.052l-182.962,-89.888l0,0Z" style="fill:#37474f;fill-rule:nonzero;"/><path d="M727.065,464.497l-182.962,0l182.962,89.888l0,-89.888Z" style="fill:#455a64;fill-rule:nonzero;"/><path d="M535.006,447.592c0,3.88 3.146,7.03 7.022,7.03l185.781,0c3.885,0 7.035,-3.15 7.035,-7.03c0,-3.886 -3.15,-7.031 -7.035,-7.031l-185.781,0c-3.876,0 -7.022,3.145 -7.022,7.031Z" style="fill:#e7e7e8;fill-rule:nonzero;"/><path d="M625.501,400.099c0,7.598 -6.162,13.76 -13.764,13.76c-7.598,0 -13.759,-6.162 -13.759,-13.76c0,-7.602 6.161,-13.764 13.759,-13.764c7.602,0 13.764,6.162 13.764,13.764Z" style="fill:#e7e7e8;fill-rule:nonzero;"/><path d="M575.972,400.099c0,7.598 -6.157,13.76 -13.759,13.76c-7.598,0 -13.765,-6.162 -13.765,-13.76c0,-7.602 6.167,-13.764 13.765,-13.764c7.602,0 13.759,6.162 13.759,13.764Z" style="fill:#e7e7e8;fill-rule:nonzero;"/><path d="M664.391,400.099c0,7.598 -6.161,13.76 -13.759,13.76c-7.603,0 -13.764,-6.162 -13.764,-13.76c0,-7.602 6.161,-13.764 13.764,-13.764c7.598,0 13.759,6.162 13.759,13.764Z" style="fill:#e7e7e8;fill-rule:nonzero;"/><path d="M703.282,400.099c0,7.598 -6.161,13.76 -13.764,13.76c-7.598,0 -13.759,-6.162 -13.759,-13.76c0,-7.602 6.161,-13.764 13.759,-13.764c7.603,0 13.764,6.162 13.764,13.764Z" style="fill:#e7e7e8;fill-rule:nonzero;"/><path d="M742.177,400.099c0,7.598 -6.161,13.76 -13.764,13.76c-7.597,0 -13.759,-6.162 -13.759,-13.76c0,-7.602 6.162,-13.764 13.759,-13.764c7.603,0 13.764,6.162 13.764,13.764Z" style="fill:#e7e7e8;fill-rule:nonzero;"/><rect x="527.668" y="389.178" width="15.257" height="8.078" style="fill:#2c3e50;"/><rect x="527.668" y="402.943" width="15.257" height="8.073" style="fill:#2c3e50;"/><rect x="541.197" y="356.795" width="69.281" height="7.18" style="fill:#2c3e50;"/><rect x="659.363" y="356.795" width="69.286" height="7.18" style="fill:#2c3e50;"/><rect x="635.753" y="68.768" width="29.488" height="76.163" style="fill:#c1c1c1;"/><rect x="606.9" y="68.768" width="28.854" height="76.163" style="fill:#b0b0b1;"/><path d="M606.9,144.931l-95.384,73.388l124.237,0l0,-73.388l-28.853,0l0,0Z" style="fill:#b0b0b1;fill-rule:nonzero;"/><path d="M760.624,218.324l-124.866,0l0,-73.393l29.492,0l95.373,73.393l0.001,0Z" style="fill:#c1c1c1;fill-rule:nonzero;"/><rect x="511.517" y="218.319" width="124.237" height="25.18" style="fill:#838488;"/><rect x="635.753" y="218.319" width="124.871" height="25.18" style="fill:#949699;"/><path d="M665.242,224.822c-3.362,0 -6.085,2.727 -6.085,6.085c0,3.361 2.723,6.089 6.085,6.089c3.361,0 6.084,-2.728 6.084,-6.089c0,-3.358 -2.723,-6.085 -6.084,-6.085Z" style="fill:#c1c1c1;fill-rule:nonzero;"/><path d="M685.589,224.822c-3.361,0 -6.089,2.727 -6.089,6.085c0,3.361 2.728,6.089 6.089,6.089c3.358,0 6.085,-2.728 6.085,-6.089c0,-3.358 -2.727,-6.085 -6.085,-6.085Z" style="fill:#c1c1c1;fill-rule:nonzero;"/><path d="M705.933,224.822c-3.362,0 -6.084,2.727 -6.084,6.085c0,3.361 2.722,6.089 6.084,6.089c3.362,0 6.085,-2.728 6.085,-6.089c0,-3.358 -2.723,-6.085 -6.085,-6.085Z" style="fill:#c1c1c1;fill-rule:nonzero;"/><path d="M726.28,224.822c-3.366,0 -6.085,2.727 -6.085,6.085c0,3.361 2.719,6.089 6.085,6.089c3.362,0 6.08,-2.728 6.08,-6.089c0,-3.358 -2.718,-6.085 -6.08,-6.085Z" style="fill:#cf2032;fill-rule:nonzero;"/><rect x="528.619" y="224.822" width="82.911" height="12.174" style="fill:#b0b0b1;"/><path d="M606.55,136.038c-2.46,0 -4.447,1.993 -4.447,4.447c0,2.458 1.987,4.447 4.447,4.447l29.161,0l0,-8.894l-29.161,0Z" style="fill:#707273;fill-rule:nonzero;"/><path d="M665.63,136.038l-29.919,0l0,8.894l29.919,0c2.45,0 4.448,-1.989 4.448,-4.447c0,-2.454 -1.998,-4.447 -4.448,-4.447Z" style="fill:#949699;fill-rule:nonzero;"/><path d="M508.328,211.787c-1.921,0 -3.472,1.556 -3.472,3.473l0,0.442c0,1.916 1.551,3.472 3.472,3.472l127.383,0l0,-7.387l-127.383,0Z" style="fill:#707273;fill-rule:nonzero;"/><path d="M762.927,211.787l-127.213,0l0,7.387l127.213,0c1.917,0 3.468,-1.556 3.468,-3.472l0,-0.442c0,-1.917 -1.551,-3.473 -3.468,-3.473Z" style="fill:#838488;fill-rule:nonzero;"/><rect x="20.118" y="239.311" width="233.504" height="18.514" style="fill:#48647c;"/><path d="M199.837,104.825l-179.471,0c-6.766,0 -12.256,4.597 -12.256,10.259l0,122.589c0,5.662 5.49,10.258 12.256,10.258l199.877,0l0,-19.998l0,-103.11l0,-19.998l-20.406,0Z" style="fill:#b8e4f0;fill-rule:nonzero;"/><path d="M254.687,104.825l-30.131,0l0,143.106l30.131,0c6.632,0 12.006,-4.595 12.006,-10.258l0,-122.589c0,-5.662 -5.374,-10.258 -12.006,-10.258l0,-0.001Z" style="fill:#b8e4f0;fill-rule:nonzero;"/><rect x="27.042" y="126.192" width="163.603" height="100.359" style="fill:#fff;"/><rect x="30.342" y="129.631" width="157.005" height="93.486" style="fill:#34495e;"/><path d="M59.368,129.631l-29.026,30.242l0,23.373l51.454,-53.615l-22.428,0Z" style="fill:#48647c;fill-rule:nonzero;"/><path d="M126.657,129.631l-89.716,93.486l21.111,0l89.717,-93.486l-21.112,0Z" style="fill:#48647c;fill-rule:nonzero;"/><path d="M187.346,139.25l-80.48,83.867l18.47,0l62.01,-64.618l0,-19.248l0,-0.001Z" style="fill:#48647c;fill-rule:nonzero;"/><path d="M232.221,121.192l0,16.92l0.716,0l25.376,-16.92l-26.092,0Z" style="fill:#48647c;fill-rule:nonzero;"/><path d="M232.937,138.112l26.102,0l0,-16.92l-0.726,0l-25.376,16.92Z" style="fill:#34495e;fill-rule:nonzero;"/><rect x="230.627" y="145.546" width="11.473" height="6.128" style="fill:#fff;"/><rect x="230.627" y="155.987" width="11.473" height="6.128" style="fill:#fff;"/><rect x="230.627" y="166.428" width="11.473" height="6.128" style="fill:#fff;"/><rect x="230.627" y="176.868" width="11.473" height="6.128" style="fill:#fff;"/><rect x="230.627" y="187.309" width="11.473" height="6.128" style="fill:#fff;"/><rect x="249.155" y="145.546" width="11.473" height="6.128" style="fill:#fff;"/><rect x="249.155" y="155.987" width="11.473" height="6.128" style="fill:#fff;"/><rect x="249.155" y="166.428" width="11.473" height="6.128" style="fill:#fff;"/><rect x="249.155" y="176.868" width="11.473" height="6.128" style="fill:#fff;"/><rect x="249.155" y="187.309" width="11.473" height="6.128" style="fill:#fff;"/><path d="M251.686,199.248l-10.84,0c-5.186,0 -9.379,4.121 -9.552,9.255l29.939,0c-0.173,-5.134 -4.37,-9.255 -9.547,-9.255Z" style="fill:#86cdd8;fill-rule:nonzero;"/><path d="M231.295,208.503l-0.029,0.322c0,5.288 4.288,9.576 9.581,9.576l10.839,0c5.288,0 9.572,-4.288 9.572,-9.576l-0.024,-0.322l-29.939,0Z" style="fill:#7fbfce;fill-rule:nonzero;"/><path d="M215.474,247.773l6.023,0l0,-116.177l-11.094,-11.095l-3.727,3.007l-3.246,0c0,0 0,113.157 0,112.422c0,-0.446 6.791,6.44 12.044,11.843l0,0Z" style="fill:#a7d7db;fill-rule:nonzero;"/><rect x="220.243" y="104.821" width="4.313" height="143.101" style="fill:#7fbfce;"/><path d="M206.677,118.955c-2.906,0 -5.264,2.362 -5.264,5.268l0,108.225c0,2.91 2.358,5.263 5.264,5.263c2.914,0 5.268,-2.353 5.268,-5.263l0,-108.225c0,-1.456 -0.586,-2.771 -1.542,-3.722c-0.955,-0.956 -2.271,-1.546 -3.726,-1.546Z" style="fill:#edf2f3;fill-rule:nonzero;"/><path d="M206.677,190.373c-1.792,0 -3.252,-0.888 -3.252,-1.974l0,-65.463c0,-1.086 1.46,-1.97 3.252,-1.97c0.874,0 1.69,0.207 2.305,0.577c0.615,0.374 0.951,0.869 0.951,1.393l0,65.463c0,1.086 -1.461,1.974 -3.256,1.974Z" style="fill:#fff;fill-rule:nonzero;"/><rect x="230.627" y="226.219" width="30.63" height="7.665" style="fill:#fff;"/><path d="M347.261,98.784l0,183.85l-43.742,0l0,-144.723c0,-9.341 3.285,-17.933 8.761,-24.657c2.506,-3.097 5.489,-5.796 8.826,-8.01c3.65,-2.406 7.737,-4.231 12.107,-5.307c3.026,-0.754 6.181,-1.153 9.438,-1.153l4.61,0l0,0Z" style="fill:#48647c;fill-rule:nonzero;"/><path d="M457.565,137.91l0,144.724l-43.746,0l0,-183.851l4.61,0c4.712,0 9.231,0.836 13.414,2.363c3.117,1.134 6.051,2.656 8.74,4.51c3.367,2.314 6.359,5.148 8.842,8.375c5.11,6.604 8.14,14.893 8.14,23.878l0,0.001Z" style="fill:#48647c;fill-rule:nonzero;"/><path d="M433.956,282.639l-104.349,0l0,-176.199c0,-4.227 3.429,-7.66 7.66,-7.66l89.034,0c4.232,0 7.655,3.433 7.655,7.66l0,176.199l0,0Z" style="fill:#2c3e50;fill-rule:nonzero;"/><path d="M434.701,110.295l-0.044,-0.245c-2.842,-15.516 -13.643,-27.739 -27.532,-30.957c-7.771,-1.796 -16.742,-3.088 -26.582,-3.088c-9.836,0 -18.812,1.292 -26.577,3.088c-13.89,3.218 -24.691,15.435 -27.529,30.957l-0.048,0.245l108.312,0Z" style="fill:#48647c;fill-rule:nonzero;"/><rect x="343.539" y="112.442" width="74.007" height="67.014" style="fill:#48647c;"/><path d="M417.551,179.456l-74.017,0l5.033,15.287c4.548,13.808 17.443,23.134 31.976,23.134c14.537,0 27.431,-9.326 31.979,-23.134l5.029,-15.287l0,0Z" style="fill:#34495e;fill-rule:nonzero;"/><path d="M468.679,290.717c-0.62,-5.936 -5.634,-10.56 -11.733,-10.56l-152.802,0c-6.095,0 -11.113,4.624 -11.732,10.56l176.267,0l0,0Z" style="fill:#48647c;fill-rule:nonzero;"/><rect x="366.053" y="112.442" width="28.988" height="67.014" style="fill:#5e84a7;"/><rect x="361.154" y="222.075" width="5.797" height="17.39" style="fill:#949699;"/><rect x="394.134" y="222.075" width="5.801" height="17.39" style="fill:#949699;"/><rect x="360.549" y="179.456" width="11.401" height="4.553" style="fill:#949699;"/><path d="M360.549,184.01l0,45.629c0,0.624 0.51,1.133 1.134,1.133l9.134,0c0.63,0 1.134,-0.509 1.134,-1.133l0,-45.629l-11.402,0Z" style="fill:#bdc2c7;fill-rule:nonzero;"/><path d="M389.139,184.01l0,45.629c0,0.624 0.509,1.133 1.133,1.133l9.135,0c0.624,0 1.128,-0.509 1.128,-1.133l0,-45.629l-11.396,0Z" style="fill:#bdc2c7;fill-rule:nonzero;"/><rect x="389.139" y="179.456" width="11.397" height="4.553" style="fill:#949699;"/><path d="M406.216,220.85c0,-2.138 -1.728,-3.871 -3.871,-3.871l-43.607,0c-2.136,0 -3.866,1.733 -3.866,3.871l0,0.639l51.344,0l0,-0.639Z" style="fill:#bdc2c7;fill-rule:nonzero;"/><path d="M354.873,221.489l0,0.475c0,2.138 1.729,3.871 3.866,3.871l43.607,0c2.142,0 3.871,-1.733 3.871,-3.871l0,-0.475l-51.344,0Z" style="fill:#949699;fill-rule:nonzero;"/><path d="M415.807,271.325c-2.914,0 -5.829,-1.043 -8.034,-2.997l1.628,-1.839c2.507,2.209 6.305,2.963 9.461,1.873c3.156,-1.096 5.687,-4.035 6.287,-7.319c0.6,-3.309 -0.836,-6.715 -3.429,-8.102c-1.335,-0.711 -3.117,-0.769 -4.654,-0.145c-1.33,0.539 -2.277,1.48 -2.656,2.651l-2.339,-0.749c0.596,-1.854 2.08,-3.38 4.073,-4.188c2.228,-0.898 4.75,-0.801 6.733,0.265c3.511,1.872 5.479,6.382 4.688,10.715c-0.769,4.192 -3.867,7.803 -7.896,9.196c-1.249,0.427 -2.555,0.639 -3.862,0.639Z" style="fill:#edf2f3;fill-rule:nonzero;"/><path d="M392.001,280.166l20.402,0c3.106,-4.264 5.066,-10.44 5.066,-17.274l0,-15.738l-30.53,0l0,15.738c0,6.834 1.964,13.01 5.062,17.274Z" style="fill:#edf2f3;fill-rule:nonzero;"/><path d="M390.742,278.216c0.399,0.687 0.817,1.34 1.259,1.95l20.401,0c3.107,-4.265 5.067,-10.441 5.067,-17.275l0,-15.378c-0.331,13.658 -13.567,28.162 -26.727,30.703Z" style="fill:#bdc2c7;fill-rule:nonzero;"/><path d="M373.642,271.099c-2.92,0 -5.826,-1.047 -8.035,-2.997l1.633,-1.845c2.497,2.214 6.301,2.964 9.46,1.874c3.156,-1.091 5.677,-4.03 6.278,-7.315c0.604,-3.309 -0.836,-6.714 -3.43,-8.102c-1.33,-0.711 -3.111,-0.768 -4.643,-0.148c-1.341,0.537 -2.281,1.484 -2.657,2.655l-2.343,-0.754c0.595,-1.853 2.08,-3.376 4.073,-4.183c2.233,-0.898 4.745,-0.802 6.737,0.26c3.507,1.877 5.476,6.382 4.683,10.714c-0.768,4.197 -3.871,7.804 -7.895,9.197c-1.244,0.432 -2.556,0.644 -3.861,0.644Z" style="fill:#edf2f3;fill-rule:nonzero;"/><path d="M349.839,279.94l20.401,0c3.098,-4.27 5.063,-10.44 5.063,-17.274l0,-15.743l-30.53,0l0,15.743c0,6.834 1.959,13.004 5.066,17.274Z" style="fill:#edf2f3;fill-rule:nonzero;"/><path d="M348.582,277.99c0.394,0.688 0.811,1.341 1.258,1.95l20.401,0c3.098,-4.27 5.062,-10.44 5.062,-17.274l0,-15.378c-0.331,13.654 -13.567,28.157 -26.721,30.702Z" style="fill:#bdc2c7;fill-rule:nonzero;"/><path d="M396.737,84.957l-31.461,0l31.461,13.635l0,-13.635Z" style="fill:#2dbfc8;fill-rule:nonzero;"/><path d="M365.275,84.957l-0.927,0l0,13.822l32.389,0l0,-0.187l-31.462,-13.635Z" style="fill:#10b0bf;fill-rule:nonzero;"/><path d="M355.555,89.352l-7.579,0c-1.248,0 -2.256,0.893 -2.256,1.998c0,1.104 1.008,1.998 2.256,1.998l7.579,0c1.244,0 2.257,-0.894 2.257,-1.998c0,-1.105 -1.013,-1.998 -2.257,-1.998Z" style="fill:#bdc2c7;fill-rule:nonzero;"/><path d="M355.555,96.041l-7.579,0c-1.248,0 -2.256,0.894 -2.256,1.998c0,1.1 1.008,1.998 2.256,1.998l7.579,0c1.244,0 2.257,-0.898 2.257,-1.998c0,-1.104 -1.013,-1.998 -2.257,-1.998Z" style="fill:#bdc2c7;fill-rule:nonzero;"/><path d="M355.555,102.727l-7.579,0c-1.248,0 -2.256,0.898 -2.256,1.997c0,1.106 1.008,2.003 2.256,2.003l7.579,0c1.244,0 2.257,-0.897 2.257,-2.003c0,-1.099 -1.013,-1.997 -2.257,-1.997Z" style="fill:#bdc2c7;fill-rule:nonzero;"/><path d="M413.113,89.352l-7.578,0c-1.244,0 -2.258,0.893 -2.258,1.998c0,1.104 1.014,1.998 2.258,1.998l7.578,0c1.244,0 2.252,-0.894 2.252,-1.998c0,-1.105 -1.008,-1.998 -2.252,-1.998Z" style="fill:#bdc2c7;fill-rule:nonzero;"/><path d="M413.113,96.041l-7.578,0c-1.244,0 -2.258,0.894 -2.258,1.998c0,1.1 1.014,1.998 2.258,1.998l7.578,0c1.244,0 2.252,-0.898 2.252,-1.998c0,-1.104 -1.008,-1.998 -2.252,-1.998Z" style="fill:#bdc2c7;fill-rule:nonzero;"/><path d="M413.113,102.727l-7.578,0c-1.244,0 -2.258,0.898 -2.258,1.997c0,1.106 1.014,2.003 2.258,2.003l7.578,0c1.244,0 2.252,-0.897 2.252,-2.003c0,-1.099 -1.008,-1.997 -2.252,-1.997Z" style="fill:#bdc2c7;fill-rule:nonzero;"/><path d="M394.513,102.727l-27.936,0c-1.1,0 -1.998,0.898 -1.998,1.997c0,1.106 0.898,2.003 1.998,2.003l27.936,0c1.1,0 1.998,-0.897 1.998,-2.003c0,-1.099 -0.898,-1.997 -1.998,-1.997Z" style="fill:#bdc2c7;fill-rule:nonzero;"/><path d="M311.972,113.634l0,-0.38c2.507,-3.098 5.494,-5.797 8.827,-8.01l0,0.206c-3.213,2.175 -6.09,4.802 -8.519,7.804c-0.107,0.125 -0.207,0.25 -0.308,0.38Z" style="fill:#f16f97;fill-rule:nonzero;"/><path d="M320.798,280.151l-8.826,0l0,-166.517c0.101,-0.13 0.201,-0.255 0.307,-0.38c2.43,-3.002 5.307,-5.629 8.519,-7.804l0,174.702l0,-0.001Z" style="fill:#5e84a7;fill-rule:nonzero;"/><path d="M449.117,280.151l-8.836,0l0,-174.495c3.362,2.315 6.353,5.149 8.836,8.376l0,166.119Z" style="fill:#5e84a7;fill-rule:nonzero;"/><rect x="292.334" y="290.717" width="176.422" height="11.041" style="fill:#2c3e50;"/><path d="M391.497,145.882c0,6.051 -4.903,10.955 -10.954,10.955c-6.047,0 -10.95,-4.904 -10.95,-10.955c0,-6.046 4.903,-10.949 10.95,-10.949c6.051,0 10.954,4.903 10.954,10.949Z" style="fill:#2c3e50;fill-rule:nonzero;"/><path d="M388.991,145.882c0,4.664 -3.785,8.448 -8.448,8.448c-4.659,0 -8.443,-3.784 -8.443,-8.448c0,-4.663 3.784,-8.442 8.443,-8.442c4.663,0 8.448,3.779 8.448,8.442Z" style="fill:#48647c;fill-rule:nonzero;"/></g></svg>