<?xml version="1.0" encoding="UTF-8" standalone="no"?><!DOCTYPE svg PUBLIC "-//W3C//DTD SVG 1.1//EN" "http://www.w3.org/Graphics/SVG/1.1/DTD/svg11.dtd"><svg width="100%" height="100%" viewBox="0 0 1000 720" version="1.1" xmlns="http://www.w3.org/2000/svg" xmlns:xlink="http://www.w3.org/1999/xlink" xml:space="preserve" xmlns:serif="http://www.serif.com/" style="fill-rule:evenodd;clip-rule:evenodd;stroke-linejoin:round;stroke-miterlimit:1.41421;"><g><g><path d="M47.913,376.34c-1.771,-0.262 -3.436,-0.541 -4.987,-0.833c-0.309,-0.638 -0.6,-1.28 -0.867,-1.927c-0.422,-1.014 0.06,-2.177 1.074,-2.595c0.249,-0.101 0.503,-0.152 0.756,-0.152c0.778,0 1.522,0.461 1.839,1.23c0.604,1.454 1.331,2.887 2.185,4.277Z" style="fill:url(#_Radial1);"/><g><path d="M157.839,202.585l13.655,0.376c3.872,0.148 7.26,2.654 8.524,6.319l2.346,6.82l3.669,5.972c1.999,3.25 1.825,7.388 -0.432,10.465l-4.488,6.106l-12.463,-18.126l-10.811,-17.932Z" style="fill:#86cdd8;fill-rule:nonzero;"/><path d="M20.856,205.307l-2.827,0.35c1.357,6.497 3.457,14.074 6.775,22.247c4.712,11.623 10.426,20.853 15.421,27.703c3.888,-14.381 7.776,-28.759 11.665,-43.136l-31.034,-7.164Z" style="fill:#86cdd8;fill-rule:nonzero;"/><path d="M54.966,202.585l-36.937,3.072l33.861,6.813l3.076,-9.885Z" style="fill:#215566;fill-rule:nonzero;"/><path d="M119.51,239.679l0.012,-0.038l0.026,0.287l-0.038,-0.249Z" style="fill:#b8e4f0;fill-rule:nonzero;"/><path d="M119.554,240.122l-0.008,-0.195l0.072,0.085l-0.064,0.11Z" style="fill:#b8e4f0;fill-rule:nonzero;"/><path d="M191.349,292.805c-3.546,13.938 -13.149,25.045 -25.645,32.813c-7.324,4.568 -15.658,7.979 -24.327,10.121l-2.096,-10.489c-2.67,0.38 23.283,-4.704 34.854,-29.351l0.013,-0.038l0.038,-0.064l-0.038,0.051l0,0.013l-0.013,0c2.438,-6.885 2.489,-14.087 1.526,-21.486c-0.846,-6.894 -5.181,-24.192 -7.743,-31.579c-3.668,-11.131 -10.38,-17.606 -13.109,-18.147l-0.863,-0.542l0.161,0.186l-0.013,0c-16.82,-1.614 -33.649,11.733 -34.57,15.351l-2.663,-33.98l-2.388,-8.845c3.03,-0.194 8.668,-0.355 11.698,-0.304c37.931,0.748 49.135,12.758 59.379,40.174c6.268,16.841 10.206,38.658 5.799,56.116Z" style="fill:#b8e4f0;fill-rule:nonzero;"/><rect x="40.225" y="340.408" width="103.775" height="18.578" style="fill:#2c3e50;"/><path d="M144.827,358.988l-105.433,0c-2.953,0 -5.346,2.396 -5.346,5.35l0,0.22c0,2.954 2.393,5.346 5.346,5.346l105.433,0c2.953,0 5.346,-2.392 5.346,-5.346l0,-0.22c0,-2.954 -2.393,-5.35 -5.346,-5.35Z" style="fill:#215566;fill-rule:nonzero;"/><path d="M157.814,315.756c-0.114,4.911 -0.486,9.825 -1.175,14.698c-0.452,3.2 -1.057,6.39 -1.804,9.568c-0.643,2.718 -2.143,5.072 -4.189,6.746c-2.189,1.846 -4.995,2.928 -8.025,2.928l-101.007,0c-5.824,0 -10.87,-4.014 -12.214,-9.674c-7.434,-31.345 0.296,-64.344 8.321,-93.606c4.337,-14.542 8.745,-28.172 12.979,-40.754l82.834,0c0.935,2.781 1.881,5.613 2.832,8.495c1.268,3.842 2.549,7.768 3.829,11.795c2.105,6.597 4.222,13.419 6.314,20.464c5.972,21.79 11.795,45.639 11.305,69.34l0,0Z" style="fill:#86cdd8;fill-rule:nonzero;"/><path d="M28.269,334.632c-5.164,-28.286 1.209,-57.654 8.36,-84.212l0.004,0c-7.155,26.558 -13.524,55.926 -8.364,84.212Z" style="fill:#46c4d6;fill-rule:nonzero;"/><path d="M36.633,250.414l-0.004,0c0.363,-1.339 0.727,-2.675 1.09,-3.997c1.297,-4.35 2.599,-8.614 3.901,-12.794c-1.302,4.18 -2.604,8.444 -3.901,12.789c-0.363,1.327 -0.727,2.663 -1.086,4.002Z" style="fill:#c0e5ec;fill-rule:nonzero;"/><path d="M55.148,205.662l-1.141,0l0,-0.004l1.112,0c0.008,0 0.021,0.004 0.029,0.004Z" style="fill:#58c7d7;fill-rule:nonzero;"/><path d="M71.263,205.662l-16.115,0c-0.008,0 -0.021,-0.004 -0.029,-0.004l16.144,0l0,0.004Z" style="fill:#46c4d6;fill-rule:nonzero;"/><path d="M54.007,205.662l-3.309,0c0.004,0 0.004,-0.004 0.004,-0.004l3.305,0l0,0.004Z" style="fill:#317f9a;fill-rule:nonzero;"/><path d="M76.342,349.695l-34.726,0c-5.824,0 -10.875,-4.015 -12.218,-9.678c-0.428,-1.792 -0.803,-3.588 -1.129,-5.388c-5.16,-28.287 1.209,-57.655 8.364,-84.213c0.359,-1.339 0.723,-2.675 1.086,-4.002c1.297,-4.345 2.599,-8.609 3.901,-12.789c3.055,-9.804 6.107,-19.14 9.078,-27.965l20.565,0c-7.752,21.905 -12.688,47.203 -12.696,72.197c-0.005,25.586 5.16,50.855 17.775,71.837l0,0.001Z" style="fill:#c0e5ec;fill-rule:nonzero;"/><rect x="71.263" y="205.657" width="19.606" height="0.004" style="fill:#3ab0c8;"/><path d="M132.953,349.695l-56.611,0c-12.615,-20.983 -17.78,-46.252 -17.775,-71.838c0.008,-24.993 4.944,-50.292 12.695,-72.196l19.606,0c-9.222,43.175 -4.51,95.056 24.833,127.919c5.275,5.929 11.086,11.229 17.252,16.114l0,0.001Z" style="fill:#acdee6;fill-rule:nonzero;"/><path d="M128.119,196.512l-68.921,0c-4.687,0 -8.49,3.799 -8.49,8.49l0,0.643l77.411,0.034l0,-9.167l0,0Z" style="fill:#b8e4f0;fill-rule:nonzero;"/><path d="M91.354,228.836c-13.904,0 -25.171,20.51 -25.171,45.803c0,25.303 11.267,45.813 25.171,45.813l0.136,-0.008l0,-91.604l-0.136,-0.004l0,0Z" style="fill:#2d6b7c;fill-rule:nonzero;"/><path d="M116.524,274.637c0,-25.209 -11.195,-45.664 -25.036,-45.8l0,91.604c13.841,-0.135 25.036,-20.586 25.036,-45.804l0,0Z" style="fill:#215566;fill-rule:nonzero;"/><path d="M70.076,196.512l47.401,0c0,2.21 -1.792,3.998 -4.002,3.998l-39.398,0c-2.21,0 -4.001,-1.788 -4.001,-3.998Z" style="fill:#215566;fill-rule:nonzero;"/><rect x="85.337" y="240.83" width="11.656" height="4.514" style="fill:#b8e4f0;"/><rect x="85.337" y="268.33" width="11.656" height="4.514" style="fill:#b8e4f0;"/><rect x="85.337" y="295.823" width="11.656" height="4.514" style="fill:#b8e4f0;"/><path d="M119.51,239.679l0.012,-0.038l0.026,0.287l-0.038,-0.249Z" style="fill:#b8e4f0;fill-rule:nonzero;"/><path d="M119.554,240.122l-0.008,-0.195l0.072,0.085l-0.064,0.11Z" style="fill:#b8e4f0;fill-rule:nonzero;"/><path d="M165.702,325.618c-1.441,0.9 -2.929,1.763 -4.459,2.561c-1.5,0.811 -3.038,1.564 -4.606,2.278c-1.535,0.701 -3.111,1.352 -4.699,1.957c-3.432,1.331 -6.965,2.438 -10.562,3.326l-2.096,-10.489c-1.403,0.194 5.135,-1.121 13.32,-6.01c1.691,-1.01 3.437,-2.168 5.212,-3.483c1.783,-1.344 3.579,-2.856 5.337,-4.556c4.129,-3.976 8.03,-9.002 10.984,-15.303l0,-0.013l0.013,-0.025l-0.013,0c2.439,-6.885 2.489,-14.086 1.526,-21.486c-0.845,-6.893 -5.181,-24.191 -7.743,-31.579c-2.954,-8.95 -7.865,-14.897 -11.106,-17.162c-0.786,-0.541 -1.475,-0.875 -2.003,-0.985l-0.862,-0.541l0.148,0.186c-4.755,-0.456 -9.505,0.283 -13.9,1.661c-2.426,0.765 -4.742,1.712 -6.898,2.768c-7.717,3.795 -13.257,8.892 -13.773,10.921l-2.662,-33.979l20.095,0c9.628,0 19.094,3.064 26.591,9.099c3.61,2.903 6.801,6.525 8.386,10.882c4.928,13.546 11.486,52.029 11.486,52.029c0,0 4.535,25.574 -17.716,47.943Z" style="fill:#86cdd8;fill-rule:nonzero;"/><path d="M150.647,346.766c0.367,-3.449 0.883,-8.423 1.293,-14.357c1.589,-0.604 3.165,-1.255 4.699,-1.957l0,0.005c-0.452,3.199 -1.056,6.39 -1.804,9.563c-0.364,1.539 -1.002,2.959 -1.86,4.206c-0.655,0.959 -1.441,1.813 -2.328,2.54Z" style="fill:#60b9ce;fill-rule:nonzero;"/><path d="M152.601,319.235c1.247,-29.981 -16.211,-81.985 -19.305,-90.517c2.155,-1.057 4.471,-2.004 6.897,-2.769c2.105,6.597 4.222,13.419 6.314,20.464c5.739,20.937 11.339,43.779 11.335,66.563c0,0.926 -0.013,1.851 -0.029,2.777c-1.775,1.314 -3.521,2.472 -5.212,3.482l0,0Z" style="fill:#60b9ce;fill-rule:nonzero;"/><path d="M151.937,332.412c0.291,-3.997 0.464,-8.448 0.663,-13.173c1.691,-1.01 3.436,-2.168 5.211,-3.482c1.783,-1.345 3.579,-2.857 5.337,-4.556c-0.279,5.883 -0.883,11.635 -1.906,16.976c-1.5,0.812 -3.038,1.564 -4.606,2.278c-1.534,0.702 -3.111,1.353 -4.699,1.957Zm-18.642,-103.69c-3.411,-9.416 -5.182,-14.158 -5.182,-14.158c0,0 3.643,-0.355 8.25,-0.406c0.41,-0.004 0.832,-0.008 1.255,-0.008c6.17,0 13.532,0.621 16.225,3.296c1.416,1.404 2.354,4.493 2.966,8.186c-0.786,-0.54 -1.474,-0.875 -2.003,-0.984l-0.862,-0.542l0.148,0.186c-0.951,-0.092 -1.902,-0.134 -2.853,-0.134c-3.791,0 -7.531,0.692 -11.047,1.796c-2.426,0.765 -4.742,1.712 -6.897,2.768Z" style="fill:#60b9ce;fill-rule:nonzero;"/><rect x="70.076" y="331.065" width="44.397" height="9.344" style="fill:#2d6b7c;"/></g><path d="M132.624,560.878c-2.071,-0.761 -3.377,-1.564 -3.795,-2.397c0.189,-0.232 0.435,-0.427 0.726,-0.558c2.709,-1.212 5.452,-2.708 8.182,-4.471c1.357,-0.313 2.853,-0.613 4.48,-0.9c0.046,0.055 0.093,0.11 0.135,0.173c0.622,0.904 0.393,2.143 -0.511,2.769c-2.274,1.563 -4.568,2.966 -6.859,4.187c-0.786,0.423 -1.573,0.82 -2.358,1.197Z" style="fill:url(#_Radial2);"/><g><rect x="86.185" y="413.569" width="51.627" height="7.155" style="fill:#949699;"/><rect x="125.715" y="411.943" width="8.055" height="10.967" style="fill:#b8e4f0;"/><rect x="130.941" y="409.248" width="13.748" height="17.484" style="fill:#7fbfce;"/><path d="M23.189,394.661c-1.787,0 -3.482,0.211 -5.041,0.633c-11.661,3.141 -14.602,11.758 -15.266,17.147c3.732,-4.514 11.994,-11.019 28.625,-11.019c11.867,0 26.101,3.374 42.334,10.03c-0.334,-1.141 -1.04,-2.68 -2.548,-4.378c-4.709,-5.292 -16.779,-11.741 -47.567,-12.409l-0.537,-0.004Zm-20.311,27.166c0.642,5.279 3.466,13.685 14.572,16.989c1.999,0.592 4.167,0.871 6.39,0.82c30.712,-0.676 42.757,-7.125 47.453,-12.408c1.508,-1.694 2.214,-3.233 2.548,-4.374c-16.233,6.652 -30.467,10.025 -42.334,10.025c-16.601,0.003 -24.889,-6.538 -28.629,-11.052Zm20.455,20.502c-2.316,0 -4.552,-0.322 -6.648,-0.939c-17.082,-5.076 -16.77,-21.363 -16.6,-24.026l-0.085,-0.203l0.085,-0.211c-0.195,-2.701 -0.63,-19.398 17.365,-24.251c1.948,-0.523 4.083,-0.76 6.289,-0.714c32.03,0.689 44.705,7.705 49.705,13.47c3.761,4.34 3.351,8.122 3.334,8.279l-0.216,1.77l-1.643,-0.692c-16.783,-7.105 -31.389,-10.702 -43.412,-10.702c-20.73,0 -27.315,10.553 -28.578,13.047c1.268,2.493 7.848,13.042 28.578,13.042c12.023,0 26.629,-3.605 43.412,-10.705l1.643,-0.693l0.216,1.767c0.017,0.16 0.427,3.943 -3.33,8.278c-4.991,5.761 -17.64,12.772 -49.549,13.474l-0.566,0.009Z" style="fill:#949699;fill-rule:nonzero;"/><rect x="1.45" y="415.809" width="74.01" height="2.688" style="fill:#949699;"/><path d="M278.508,436.641c4.548,0 7.958,4.149 7.083,8.608l-2.696,13.689l0,24.656c0,2.485 -1.272,4.792 -3.372,6.115l-13.723,8.617l4.531,-56.391l8.177,-5.294Z" style="fill:#7fbfce;fill-rule:nonzero;"/><path d="M275.352,425.816l-0.833,0l0,-25.057l0.833,0c6.593,0 11.931,5.342 11.931,11.931l0,1.196c0,6.588 -5.338,11.93 -11.931,11.93Z" style="fill:#cf2032;fill-rule:nonzero;"/><path d="M271.196,387.17c-4.907,-4.893 -11.686,-7.932 -19.166,-7.932l-58.728,0c-4.987,0 -11.495,0 -18.287,1.014c-20.666,3.081 -34.46,22.995 -30.539,43.518l3.623,18.937l6.478,33.929c5.406,22.889 3.888,46.877 -4.365,68.904l-1.019,2.73l0.008,0.144l116.619,0l0.009,-0.144l0.773,-4.467l1.37,-7.869c7.421,-42.804 11.152,-86.161 11.152,-129.602c0,-7.48 -3.034,-14.255 -7.928,-19.162l0,0Zm-48.356,81.263c0,-27.386 7.814,-49.587 17.454,-49.587c9.644,0 17.454,22.201 17.454,49.587c0,27.386 -7.81,49.582 -17.454,49.582c-9.64,0 -17.454,-22.196 -17.454,-49.582Z" style="fill:#b8e4f0;fill-rule:nonzero;"/><path d="M266.597,543.803l-0.773,4.467l-0.009,0.143l-116.619,0l-0.008,-0.143l1.018,-2.73c8.254,-22.027 9.771,-46.015 4.366,-68.904l-6.479,-33.929c4.509,8.165 9.488,16.081 14.665,23.794c21.372,31.882 50.059,63.034 88.164,73.705c5.151,1.442 10.391,2.612 15.674,3.597l0.001,0Z" style="fill:#a4dce4;fill-rule:nonzero;"/><path d="M260.486,557.253l-105.951,0c-4.62,0 -7.704,-4.767 -5.811,-8.981l117.578,0c1.889,4.214 -1.196,8.981 -5.815,8.981l-0.001,0Z" style="fill:#b8e4f0;fill-rule:nonzero;"/><path d="M162.419,395.54c-1.978,0 -3.58,1.449 -3.58,3.241l0,33.201c0,1.788 1.602,3.242 3.58,3.242c1.978,0 3.579,-1.454 3.579,-3.242l0,-33.201c0,-1.792 -1.601,-3.241 -3.579,-3.241Z" style="fill:#7fbfce;fill-rule:nonzero;"/><path d="M174.951,395.54c-1.973,0 -3.579,1.449 -3.579,3.241l0,33.201c0,1.788 1.606,3.242 3.579,3.242c1.978,0 3.58,-1.454 3.58,-3.242l0,-33.201c0,-1.792 -1.602,-3.241 -3.58,-3.241Z" style="fill:#7fbfce;fill-rule:nonzero;"/><path d="M187.477,395.54c-1.977,0 -3.579,1.449 -3.579,3.241l0,33.201c0,1.788 1.602,3.242 3.579,3.242c1.978,0 3.584,-1.454 3.584,-3.242l0,-33.201c0,-1.792 -1.606,-3.241 -3.584,-3.241Z" style="fill:#7fbfce;fill-rule:nonzero;"/><path d="M200.009,395.54c-1.978,0 -3.58,1.449 -3.58,3.241l0,33.201c0,1.788 1.602,3.242 3.58,3.242c1.978,0 3.584,-1.454 3.584,-3.242l0,-33.201c0,-1.792 -1.606,-3.241 -3.584,-3.241Z" style="fill:#7fbfce;fill-rule:nonzero;"/><path d="M240.293,518.012c-9.64,0 -17.454,-22.196 -17.454,-49.582c0,-27.386 7.814,-49.586 17.454,-49.586c9.644,0 17.454,22.2 17.454,49.586c0,27.386 -7.81,49.582 -17.454,49.582Zm0.279,-111.965c-15.628,0 -28.303,27.88 -28.303,62.277c0,34.402 12.675,62.282 28.303,62.282c15.629,0 28.295,-27.88 28.295,-62.282c0,-34.397 -12.666,-62.277 -28.295,-62.277Z" style="fill:#a4dce4;fill-rule:nonzero;"/><path d="M85.48,423.843l-10.038,2.104l0,-17.589l10.038,2.104c3.279,0.685 5.477,3.626 5.477,6.691c0,3.06 -2.198,6.005 -5.477,6.69Z" style="fill:#b8e4f0;fill-rule:nonzero;"/><rect x="161.97" y="443.757" width="38.493" height="10.76" style="fill:#7fbfce;"/></g><path d="M507.454,325.548c-1.666,-0.274 -3.238,-0.562 -4.7,-0.853c0.093,-0.157 0.207,-0.301 0.343,-0.432c2.772,-2.662 5.431,-5.553 7.903,-8.587c0.388,-0.486 0.959,-0.736 1.538,-0.736c0.439,0 0.887,0.148 1.255,0.449c0.854,0.692 0.985,1.944 0.288,2.793c-2.092,2.569 -4.315,5.042 -6.627,7.366Z" style="fill:url(#_Radial3);"/><g><path d="M635.455,223.237l-87.956,0l-3.546,-37.93c-0.499,-5.355 2.32,-10.19 6.995,-11.758c9.331,-3.131 21.422,-5.958 35.711,-6.491c18.667,-0.693 34.212,2.768 45.344,6.496c4.673,1.568 7.497,6.402 6.994,11.757l-3.542,37.926l0,0Z" style="fill:#f47c20;fill-rule:nonzero;"/><path d="M631.014,222.377l-79.085,0l-2.916,-34.739c-0.355,-4.244 1.935,-8.034 5.651,-9.298c8.418,-2.861 19.445,-5.485 32.529,-5.967c17.027,-0.63 31.143,2.594 41.117,5.98c3.706,1.259 5.976,5.055 5.621,9.289l-2.916,34.735l-0.001,0Z" style="fill:#fecc81;fill-rule:nonzero;"/><path d="M527.122,327.206l-6.251,0c-3.068,0 -5.549,-2.481 -5.549,-5.545l0,-18.46l17.341,0l0,18.46c0,3.064 -2.481,5.545 -5.541,5.545Z" style="fill:#cf2032;fill-rule:nonzero;"/><path d="M660.469,327.206l-6.247,0c-3.064,0 -5.549,-2.481 -5.549,-5.545l0,-18.46l17.344,0l0,18.46c0,3.064 -2.485,5.545 -5.548,5.545Z" style="fill:#cf2032;fill-rule:nonzero;"/><path d="M694.819,291.875l-18.342,0l0,-15.206l18.342,0c3.555,0 6.437,2.882 6.437,6.432l0,2.342c0,3.55 -2.882,6.432 -6.437,6.432Z" style="fill:#536e7a;fill-rule:nonzero;"/><path d="M668.554,311.056l-154.169,0c-11.221,0 -20.312,-9.095 -20.312,-20.312l0,-48.53c0,-25.978 21.064,-47.041 47.042,-47.041l100.708,0c25.978,0 47.037,21.063 47.037,47.041l0,48.53c0,11.217 -9.09,20.312 -20.306,20.312l0,0Z" style="fill:#b0bec5;fill-rule:nonzero;"/><path d="M641.598,203.645l-100.246,0c-20.945,0 -37.921,16.973 -37.921,37.918l0,51.412c0,0.592 0.029,1.167 0.088,1.741c0.279,3.103 1.336,5.981 2.963,8.457c0.435,0.676 0.925,1.327 1.453,1.945c2.638,3.068 6.256,5.265 10.372,6.111l159.528,-80.877c-4.785,-15.469 -19.196,-26.706 -36.237,-26.706l0,-0.001Z" style="fill:#d92242;fill-rule:nonzero;"/><path d="M518.304,311.226c1.212,0.249 2.467,0.385 3.761,0.385l138.811,0c5.658,0 10.722,-2.519 14.132,-6.496c0.533,-0.617 1.019,-1.268 1.454,-1.944c1.64,-2.476 2.683,-5.355 2.967,-8.457c0.059,-0.575 0.084,-1.15 0.084,-1.741l0,-51.412c0,-3.906 -0.592,-7.671 -1.682,-11.212l-159.527,80.877l0,0Z" style="fill:#cf2032;fill-rule:nonzero;"/><path d="M514.167,237.332c3.228,-15.194 16.718,-26.575 32.867,-26.575l88.882,0c15.388,0 28.358,10.333 32.343,24.445l-0.883,0.448c-6.719,-7.523 -16.503,-12.261 -27.39,-12.261l-97.018,0c-11.681,0 -22.082,5.452 -28.801,13.943l0,0Z" style="fill:#ef3961;fill-rule:nonzero;"/><path d="M668.788,237.332c-0.453,-0.575 -0.926,-1.137 -1.412,-1.682l0.883,-0.448c0.199,0.701 0.377,1.411 0.529,2.13l0,0Z" style="fill:#ee2b49;fill-rule:nonzero;"/><rect x="558.911" y="244.955" width="65.122" height="13.042" style="fill:#cfd8dc;"/><path d="M676.461,303.173c-0.435,0.676 -0.921,1.327 -1.454,1.945c-3.41,3.976 -8.473,6.495 -14.132,6.495l-138.81,0c-5.655,0 -10.719,-2.519 -14.133,-6.495c-0.529,-0.618 -1.019,-1.269 -1.454,-1.945l169.983,0Z" style="fill:#af1f2a;fill-rule:nonzero;"/></g><g><path d="M400.19,196.931l-5.963,-7.346c-0.748,2.27 -2.096,5.38 -4.59,8.495c-4.936,6.158 -11.263,8.44 -13.997,9.247c9.483,1.619 18.967,3.233 28.455,4.852l-3.905,-15.248Z" style="fill:#cf2032;fill-rule:nonzero;"/><path d="M400.045,177.405l-2.456,-4.928l24.918,-12.408l2.455,4.932l-24.917,12.404Z" style="fill:#34495e;fill-rule:nonzero;"/><path d="M401.24,179.501l-4.844,-9.12l17.176,-9.129l4.847,9.125l-17.179,9.124Z" style="fill:#7fbfce;fill-rule:nonzero;"/><path d="M395.939,158.088l3.145,0c4.653,0 8.668,3.266 9.61,7.826l15.041,72.823l-24.917,-48.116l-2.879,-32.533l0,0Z" style="fill:#2dbfc8;fill-rule:nonzero;"/><path d="M248.39,219.189l-7.087,0.845c-4.078,0.486 -7.007,4.171 -6.551,8.253l0.901,8.115l12.737,-3.098l0,-14.115Z" style="fill:#2dbfc8;fill-rule:nonzero;"/><path d="M332.944,209.892c-1.8,0 -3.398,-1.289 -3.723,-3.123c-0.368,-2.058 1.01,-4.027 3.068,-4.391l24.778,-4.404c2.062,-0.367 4.024,1.006 4.391,3.064c0.368,2.062 -1.006,4.028 -3.064,4.392l-24.783,4.403l-0.667,0.059Z" style="fill:#215566;fill-rule:nonzero;"/><path d="M298.113,204.795l15.049,-3.748c5.574,-1.387 8.981,-7.02 7.624,-12.603l-1.602,-6.58l-21.071,19.208l0,3.723Z" style="fill:#215566;fill-rule:nonzero;"/><path d="M302.225,218.246c0,0 -9.45,-10.604 -1.108,-17.809c27.002,-27.564 86.372,-26.292 86.372,-26.292c0,0 2.696,7.823 7.565,19.843c1.75,4.319 -1.129,9.103 -5.761,9.606c-26.456,2.869 -87.068,14.652 -87.068,14.652l0,0Zm95.267,-57.354c-2.037,-5.059 -6.939,-8.372 -12.391,-8.372l-4.919,0c-49.562,2.544 -98.429,27.986 -112,43.238c-13.57,15.253 -47.917,59.379 -47.917,59.379c2.595,6.842 134.419,10.363 182.763,2.544c16.517,-2.671 26.715,-0.845 22.049,-14.842c-3.753,-11.259 -18.972,-60.499 -27.585,-81.947l0,0Z" style="fill:#b8e4f0;fill-rule:nonzero;"/><path d="M389.284,203.595c-26.452,2.866 -87.06,14.652 -87.06,14.652c0,0 -9.454,-10.603 -1.108,-17.809c20.692,-21.127 60.406,-25.315 77.827,-26.118c5.004,-0.233 9.572,2.789 11.339,7.476c1.217,3.237 2.818,7.379 4.767,12.197c1.75,4.315 -1.129,9.103 -5.764,9.602l-0.001,0Zm35.788,39.245c-0.351,-1.057 -0.795,-2.439 -1.34,-4.104l-0.194,-0.6c-0.436,-1.361 -0.93,-2.895 -1.467,-4.577c-5.976,-18.663 -17.509,-55.042 -24.584,-72.666c-2.033,-5.059 -6.944,-8.372 -12.396,-8.372l-4.914,0c-49.562,2.544 -98.429,27.986 -112,43.243c-2.785,3.131 -6.454,7.489 -10.523,12.437c-10.287,12.498 -23.122,28.739 -30.771,38.472c-1.378,1.758 -2.583,3.301 -3.576,4.573c-1.923,2.451 -3.047,3.896 -3.047,3.896c0.655,1.72 9.5,3.238 23.143,4.408c40.534,3.482 123.448,3.985 159.617,-1.868c7.438,-1.204 13.591,-1.492 17.687,-2.734c5.003,-1.501 6.93,-4.413 4.365,-12.108l0,0Z" style="fill:#b8e4f0;fill-rule:nonzero;"/><path d="M360.425,201.224l-27.479,4.882c-4.213,0.748 -6.978,4.065 -6.297,7.556l43.771,-6.826l-0.693,-1.483c-1.429,-3.073 -5.38,-4.826 -9.302,-4.129Z" style="fill:#2dbfc8;fill-rule:nonzero;"/><path d="M286.144,178.398l0,3.465l27.788,-13.845l-19.745,1.644c-4.548,0.376 -8.043,4.176 -8.043,8.736Z" style="fill:#215566;fill-rule:nonzero;"/><path d="M420.712,254.95c-4.095,1.242 -10.249,1.53 -17.687,2.734c-36.168,5.854 -119.083,5.351 -159.616,1.868c4.636,-5.638 10.16,-11.871 15.92,-17.378c1.217,-1.166 2.451,-2.299 3.689,-3.393c8.119,-7.147 16.415,-12.332 23.131,-11.965c8.541,0.465 34.118,5.608 60.76,11.394c4.231,0.913 8.482,1.851 12.704,2.781c28.895,6.394 56.086,12.776 61.099,13.959Z" style="fill:#2dbfc8;fill-rule:nonzero;"/><path d="M395.939,258.682c0,0 -1.018,1.763 -2.295,3.914c-0.938,1.597 -2.037,3.423 -2.958,4.89c-144.981,11.398 -170.423,-3.698 -170.423,-3.698l0,-8.648c2.481,6.526 122.704,10.034 175.668,3.542l0.008,0Z" style="fill:#12404c;fill-rule:nonzero;"/><path d="M425.077,242.842c-0.351,-1.057 -0.795,-2.439 -1.34,-4.104c-78.139,23.988 -196.849,7.937 -196.849,7.937c-1.378,1.758 -2.583,3.301 -3.576,4.573c-1.914,2.439 -3.035,3.883 -3.043,3.896l-0.004,0c2.481,6.525 122.704,10.033 175.672,3.538c2.519,-0.308 4.894,-0.643 7.088,-0.998c16.524,-2.671 26.718,-0.845 22.052,-14.842l0,0Z" style="fill:#215566;fill-rule:nonzero;"/><path d="M382.655,152.521c-0.837,8.364 -6.872,9.04 -18.947,10.215c-61.965,8.609 -83.303,37.178 -89.498,43.374c-4.43,4.425 -12.379,3.17 -16.55,2.092c4.069,-4.949 7.738,-9.306 10.523,-12.438c13.571,-15.256 62.438,-40.698 112,-43.243l2.472,0l0,0Z" style="fill:#2dbfc8;fill-rule:nonzero;"/><path d="M382.655,219.189c0,3.875 -3.141,7.011 -7.012,7.011c-3.876,0 -7.011,-3.136 -7.011,-7.011c0,-3.872 3.135,-7.012 7.011,-7.012c3.871,0 7.012,3.14 7.012,7.012Z" style="fill:#2dbfc8;fill-rule:nonzero;"/><path d="M388.341,243.354l-1.082,-6.102l22.036,-3.901l1.077,6.103l-22.031,3.9Z" style="fill:#2dbfc8;fill-rule:nonzero;"/><path d="M359.608,240.989c-17.188,1.174 -41.151,1.5 -62.202,1.5c-15.619,0 -29.642,-0.178 -38.082,-0.317c1.217,-1.166 2.451,-2.299 3.689,-3.394c18.774,0.262 56.078,0.562 83.891,-0.57c4.23,0.912 8.482,1.851 12.704,2.781l0,0Z" style="fill:#b8e4f0;fill-rule:nonzero;"/><path d="M393.642,262.598c-0.938,1.597 -2.037,3.423 -2.958,4.89c-144.981,11.398 -170.423,-3.698 -170.423,-3.698l0,-3.952c10.012,2.126 54.468,10.3 127.607,5.482c18.777,-1.083 33.785,-1.978 45.774,-2.722Z" style="fill:#48647c;fill-rule:nonzero;"/></g><path d="M318.932,564.243c-1.145,-0.182 -2.252,-0.368 -3.334,-0.558c0.047,-0.047 0.093,-0.093 0.143,-0.135c0.372,-0.317 0.829,-0.474 1.285,-0.474c0.563,0 1.124,0.241 1.513,0.706c0.131,0.152 0.262,0.304 0.393,0.461l0,0Zm-8.963,-6.775c-0.66,0 -1.298,-0.325 -1.678,-0.921c-1.86,-2.92 -3.542,-5.963 -5.025,-9.07c1.221,-0.342 2.532,-0.68 3.926,-1.01c1.327,2.717 2.815,5.38 4.45,7.945c0.592,0.93 0.313,2.156 -0.604,2.748l-1.069,0.308Z" style="fill:url(#_Radial4);"/><path d="M578.831,561.01c0.376,-0.397 0.905,-0.63 1.454,-0.63c0.199,0 0.397,0.03 0.592,0.093c0.541,0.17 1.082,0.339 1.623,0.503c-1.213,0.017 -2.434,0.03 -3.669,0.034Zm-9.881,-0.347l-0.642,-0.11l-1.492,-0.511c-3.673,-1.259 -6.842,-2.345 -9.695,-3.051c-1.065,-0.262 -1.712,-1.344 -1.454,-2.405c0.229,-0.9 1.04,-1.509 1.932,-1.509c0.156,0 0.317,0.017 0.477,0.055c3.022,0.749 6.268,1.864 10.029,3.149l1.488,0.515c1.035,0.355 1.589,1.484 1.234,2.524c-0.279,0.823 -1.053,1.343 -1.877,1.343l0,0Zm-31.713,-1.863c-1.712,-0.229 -3.322,-0.473 -4.818,-0.731c-0.131,-0.888 0.351,-1.779 1.217,-2.13l1.09,-0.436c4.172,-1.614 7.586,-2.586 10.76,-3.072c0.098,-0.013 0.194,-0.021 0.292,-0.021c0.963,0 1.817,0.697 1.969,1.686c0.165,1.086 -0.574,2.096 -1.665,2.261c-2.607,0.401 -5.443,1.179 -8.845,2.443l0,0Z" style="fill:url(#_Radial5);"/><g><path d="M543.804,496.687l-80.501,-172.059l11.69,-5.468l80.496,172.058l-11.685,5.469l0,0Z" style="fill:#949699;fill-rule:nonzero;"/><path d="M338.878,521.606c-6.757,-1.23 -12.294,-4.916 -18.434,-7.371c-6.056,-2.497 -12.117,-4.581 -17.932,-7.079c0.558,6.488 1.741,13.262 3.719,20.295c-3.55,6.402 116.754,29.554 162.955,19.934c9.88,-2.053 16.672,-11.288 15.51,-21.312l-0.013,-0.148c-0.862,0.456 -1.737,0.87 -2.628,1.217c-46.7,17.201 -95.247,0.613 -143.177,-5.536l0,0Z" style="fill:#12404c;fill-rule:nonzero;"/><path d="M480.6,508.567c-26.296,5.329 -65.925,-0.456 -101.543,-8.436c-6.399,-18.362 -6.665,-39.954 1.512,-57.066c1.856,-3.884 4.151,-7.536 6.907,-10.866c25.631,6.145 45.811,17.142 61.001,30.306c16.136,13.972 26.655,30.396 32.124,46.062l-0.001,0Z" style="fill:#215566;fill-rule:nonzero;"/><path d="M380.567,443.067c-8.178,17.112 -7.912,38.704 -1.513,57.067c-33.307,-7.459 -63.085,-16.816 -75.18,-20.789c0.913,-4.903 2.142,-9.086 3.583,-12.666c7.959,-19.901 22.226,-21.038 24.098,-22.137c22.12,-12.966 39.668,-16.237 55.918,-12.34c-2.756,3.33 -5.051,6.981 -6.906,10.865l0,0Z" style="fill:#f04f64;fill-rule:nonzero;"/><path d="M481.922,512.692c-7.248,1.518 -15.692,2.283 -25.315,2.283c-21.44,0 -48.716,-3.77 -81.63,-11.301c-31.489,-7.211 -59.611,-16.035 -71.812,-20.02c-1.048,7.294 -1.374,15.15 -0.655,23.498c5.819,2.497 11.876,4.581 17.932,7.079c6.141,2.455 11.677,6.14 18.435,7.37c47.93,6.15 96.476,22.737 143.176,5.537c0.892,-0.347 1.763,-0.761 2.624,-1.222c-0.507,-4.264 -1.411,-8.701 -2.755,-13.224l0,0Z" style="fill:#f04f64;fill-rule:nonzero;"/><path d="M456.606,514.976c9.623,0 18.067,-0.765 25.316,-2.283c-0.398,-1.365 -0.837,-2.734 -1.323,-4.124c-50.88,10.316 -151.705,-21.013 -176.725,-29.225c-0.262,1.412 -0.507,2.853 -0.71,4.311c12.201,3.985 40.322,12.81 71.812,20.02c32.914,7.531 60.19,11.301 81.63,11.301l0,0Z" style="fill:#cf2032;fill-rule:nonzero;"/><path d="M393.365,520.998c0,22.931 -18.588,41.518 -41.523,41.518c-22.936,0 -41.527,-18.587 -41.527,-41.518c0,-22.94 18.591,-41.531 41.527,-41.531c22.935,0 41.523,18.591 41.523,41.531l0,0Z" style="fill:#215566;fill-rule:nonzero;"/><path d="M385.064,520.998c0,18.346 -14.876,33.222 -33.226,33.222c-18.355,0 -33.231,-14.876 -33.231,-33.222c0,-18.359 14.876,-33.235 33.231,-33.235c18.35,0 33.226,14.876 33.226,33.235Z" style="fill:#cf2032;fill-rule:nonzero;"/><path d="M385.064,520.991c0,18.359 -14.872,33.232 -33.231,33.232c-8.486,0 -16.233,-3.183 -22.103,-8.428c-6.825,-6.077 -11.119,-14.939 -11.119,-24.804c0,-18.349 14.877,-33.221 33.222,-33.221c0.998,0 1.983,0.038 2.951,0.134c16.972,1.484 30.28,15.739 30.28,33.087Z" style="fill:#cf2032;fill-rule:nonzero;"/><path d="M365.909,512.692c0,18.359 -14.881,33.231 -33.231,33.231c-0.993,0 -1.973,-0.038 -2.946,-0.131c-6.825,-6.077 -11.119,-14.94 -11.119,-24.804c0,-18.35 14.877,-33.222 33.222,-33.222c0.998,0 1.983,0.038 2.951,0.135c6.825,6.074 11.123,14.936 11.123,24.791Z" style="fill:#f04f64;fill-rule:nonzero;"/><path d="M448.476,462.508c-6.026,0.6 -16.947,-1.682 -33.848,-9.045c-12.057,-6.089 -23.455,-9.263 -34.059,-10.396c-34.591,-3.702 -60.638,14.344 -73.11,23.612c7.958,-19.901 22.226,-21.038 24.098,-22.137c22.12,-12.966 39.668,-16.237 55.918,-12.34c25.632,6.145 45.812,17.141 61.001,30.306l0,0Z" style="fill:#bdbec0;fill-rule:nonzero;"/><path d="M306.318,469.783l9.235,-35.59c1.762,-10.518 10.869,-18.227 21.541,-18.227l14.745,18.904c-4.856,7.168 -13.41,17.691 -27.095,26.207c-6.664,4.146 -13.033,6.876 -18.426,8.706l0,0Z" style="fill:#f04f64;fill-rule:nonzero;"/><path d="M408.983,440.562l-1.057,-0.211c-21.126,-8.731 -33.336,-8.279 -33.463,-8.275c-1.534,0.059 -2.818,-1.112 -2.886,-2.633c-0.072,-1.525 1.107,-2.819 2.633,-2.89c0.545,-0.026 13.574,-0.512 35.83,8.685c1.411,0.587 2.083,2.201 1.5,3.613c-0.444,1.065 -1.47,1.711 -2.557,1.711Z" style="fill:#215566;fill-rule:nonzero;"/><path d="M461.951,490.728c-0.448,0 -0.752,-0.013 -0.9,-0.025l0.942,-14.104l-0.118,-0.003c0.182,0.008 4.437,0.096 7.86,-3.331c3.64,-3.634 5.41,-10.308 5.127,-19.289c-0.536,-17.158 -12.193,-29.985 -35.648,-39.206c-22.311,-8.77 -54.045,-13.579 -94.326,-14.281c-10.814,-0.19 -21.075,-3.123 -29.668,-8.486c-9.221,-5.748 -16.042,-14.031 -19.732,-23.95c-7.603,-20.438 -4.412,-43.602 8.528,-61.97c14.061,-19.947 37.678,-31.197 64.793,-30.83c69.323,0.905 80.037,2.638 81.03,2.836l3.178,0.622l5.984,10.506l-12.277,6.994l-2.595,-4.552c-6.521,-0.536 -25.358,-1.622 -75.502,-2.273c-22.716,-0.296 -41.556,8.524 -53.056,24.842c-10.257,14.551 -12.81,32.833 -6.834,48.897c5.216,14.031 19.162,22.932 36.401,23.231c41.97,0.732 75.361,5.867 99.249,15.261c13.574,5.338 24.211,12.151 31.611,20.244c8.246,9.019 12.616,19.674 12.992,31.672c0.418,13.397 -2.806,23.506 -9.589,30.044c-6.767,6.534 -14.703,7.151 -17.45,7.151l0,0Z" style="fill:#2d6b7c;fill-rule:nonzero;"/><path d="M473.712,486.591l-9.121,-11.538c-1.023,-1.298 -2.903,-1.522 -4.201,-0.494l-6.394,5.054c-1.298,1.023 -1.522,2.903 -0.494,4.201l9.116,11.542c1.023,1.293 2.903,1.513 4.2,0.49l6.399,-5.055c1.293,-1.022 1.513,-2.903 0.495,-4.2Z" style="fill:#12404c;fill-rule:nonzero;"/><path d="M462.628,330.932l-19.55,-36.772l16.275,-8.656l19.551,36.772l-16.276,8.656Z" style="fill:#215566;fill-rule:nonzero;"/><path d="M559.808,532.334l-27.897,-54.506l15.316,-7.835l27.897,54.501l-15.316,7.84l0,0Z" style="fill:#215566;fill-rule:nonzero;"/><path d="M553.521,518.841l13.942,-6.45l57.151,33.535l-81.114,0l10.021,-27.085Z" style="fill:#215566;fill-rule:nonzero;"/><path d="M627.687,552.938l-88.108,0c-2.549,0 -4.611,-2.062 -4.611,-4.602c0,-2.548 2.062,-4.61 4.611,-4.61l88.108,0c2.549,0 4.611,2.062 4.611,4.61c0,2.54 -2.062,4.602 -4.611,4.602Z" style="fill:#12404c;fill-rule:nonzero;"/><path d="M474.591,317.224c-1.138,0 -2.232,-0.634 -2.76,-1.725l-10.98,-22.399c-0.748,-1.525 -0.114,-3.364 1.407,-4.112c1.521,-0.748 3.364,-0.118 4.113,1.408l10.975,22.398c0.748,1.526 0.118,3.369 -1.407,4.113c-0.432,0.215 -0.897,0.317 -1.348,0.317Z" style="fill:#12404c;fill-rule:nonzero;"/><path d="M385.064,448.672c0,0 -6.149,31.148 2.409,43.641c20.84,9.42 72.459,8.853 72.459,8.853c0,0 -66.365,-9.906 -74.868,-52.494l0,0Z" style="fill:#2d6b7c;fill-rule:nonzero;"/></g><g><rect x="744.697" y="117.633" width="43.889" height="8.524" style="fill:#83d3f6;"/><path d="M792.303,119.662l-51.319,0c-1.568,0 -2.844,-1.272 -2.844,-2.84c0,-1.572 1.276,-2.844 2.844,-2.844l51.319,0c1.572,0 2.84,1.272 2.84,2.844c0,1.568 -1.268,2.84 -2.84,2.84Z" style="fill:#b4e4fa;fill-rule:nonzero;"/><path d="M702.012,137.877l15.894,-6.36l10.946,20.67l-26.84,-14.31l0,0Z" style="fill:#83d3f6;fill-rule:nonzero;"/><path d="M715.86,137.877l-13.849,0c0,0 8.009,15.755 15.895,19.082c10.646,4.488 -2.046,-19.082 -2.046,-19.082Z" style="fill:#b4e4fa;fill-rule:nonzero;"/><path d="M820.318,225.622l-21.613,0l0,-10.556l21.613,0c0.947,0 1.83,-0.381 2.477,-1.074c0.655,-0.689 0.977,-1.593 0.917,-2.54l-2.971,-47.275c-0.11,-1.792 -1.602,-3.191 -3.393,-3.191l-9.307,0.085l3.068,-10.642l6.239,0c7.353,0 13.468,5.748 13.929,13.085l2.967,47.275c0.245,3.832 -1.124,7.632 -3.753,10.43c-2.625,2.797 -6.335,4.403 -10.173,4.403l0,0Z" style="fill:#b4e4fa;fill-rule:nonzero;"/><path d="M834.236,210.788l-2.967,-47.275c-0.461,-7.337 -6.576,-13.085 -13.93,-13.085l-0.891,0l-1.366,10.579l2.257,-0.022c1.792,0 3.284,1.4 3.394,3.191l2.971,47.275c0.06,0.947 -0.262,1.851 -0.917,2.54c-0.647,0.693 -1.53,1.074 -2.477,1.074l-12.214,0l-1.365,10.557l13.579,0c3.838,0 7.548,-1.607 10.173,-4.404c2.629,-2.798 3.998,-6.597 3.753,-10.43Z" style="fill:#83d3f6;fill-rule:nonzero;"/><path d="M798.704,215.064l0,10.557l8.034,0l1.365,-10.557l-9.399,0l0,0Z" style="fill:#83d3f6;fill-rule:nonzero;"/><path d="M811.102,150.429l-3.068,10.642l7.049,-0.064l1.365,-10.578l-5.346,0Z" style="fill:#83d3f6;fill-rule:nonzero;"/><path d="M727.842,236.851l1.039,8.664l71.449,0l1.04,-8.664l-73.528,0l0,0Z" style="fill:#83d3f6;fill-rule:nonzero;"/><path d="M805.292,145.645l-9.704,91.206l-67.746,0l-10.946,-91.206l88.396,0l0,0Z" style="fill:#b4e4fa;fill-rule:nonzero;"/><path d="M812.312,145.645l-7.019,0l-9.704,91.206l5.777,0l10.946,-91.206l0,0Z" style="fill:#83d3f6;fill-rule:nonzero;"/><path d="M819.814,346.197l-110.423,0l19.487,-100.682l71.449,0l19.487,100.682l0,0Z" style="fill:#2c3e50;fill-rule:nonzero;"/><path d="M763.388,321.835c-19.432,0 -33.096,-14.893 -30.725,-30.724l6.83,-45.597l47.79,0l6.826,45.597c2.375,15.831 -11.293,30.724 -30.721,30.724Z" style="fill:#90a4ae;fill-rule:nonzero;"/><path d="M773.123,264.186l-17.049,0c-3.352,0 -6.09,-2.739 -6.09,-6.09c0,-3.347 2.738,-6.086 6.09,-6.086l17.049,0c3.347,0 6.09,2.739 6.09,6.086c0,3.351 -2.743,6.09 -6.09,6.09Z" style="fill:#d23f4b;fill-rule:nonzero;"/><path d="M782.015,291.799c0,9.864 -8,17.861 -17.865,17.861c-9.864,0 -17.86,-7.997 -17.86,-17.861c0,-9.868 7.996,-17.864 17.86,-17.864c9.865,0 17.865,7.996 17.865,17.864Z" style="fill:#2c3e50;fill-rule:nonzero;"/><path d="M764.151,276.882l-0.004,0c-1.682,0 -3.043,1.361 -3.043,3.039l0,4.028l6.09,0l0,-4.028c0,-1.678 -1.36,-3.039 -3.043,-3.039l0,0Z" style="fill:#d23f4b;fill-rule:nonzero;"/><path d="M761.106,283.948l0,19.931c0,1.682 1.361,3.043 3.043,3.043l0.004,0c1.682,0 3.043,-1.361 3.043,-3.043l0,-19.931l-6.09,0l0,0Z" style="fill:#48647c;fill-rule:nonzero;"/><path d="M805.134,123.724l-81.055,0c-5.22,0 -9.264,4.56 -8.647,9.741l0,0.004l98.344,0l0,-0.004c0.622,-5.181 -3.427,-9.741 -8.642,-9.741l0,0Z" style="fill:#34495e;fill-rule:nonzero;"/><path d="M715.429,133.469l1.463,12.176l95.419,0l1.463,-12.176l-98.345,0l0,0Z" style="fill:#2c3e50;fill-rule:nonzero;"/><path d="M806.012,360l-82.817,0c-7.624,0 -13.803,-6.183 -13.803,-13.803l110.423,0c0,7.62 -6.179,13.803 -13.803,13.803l0,0Z" style="fill:#2c3e50;fill-rule:nonzero;"/><rect x="738.62" y="332.387" width="50.343" height="8.934" style="fill:#90a4ae;"/><path d="M754.05,236.851l-21.482,0l-10.181,-91.206l31.663,0l0,91.206Z" style="fill:#d0edfa;fill-rule:nonzero;"/><path d="M749.176,346.197l-39.782,0l19.487,-100.682l10.612,0l-6.83,45.597c-1.8,12.015 5.634,23.485 17.81,28.32l-0.626,12.958l-11.224,0l0,8.934l10.789,0l-0.236,4.873l0,0Z" style="fill:#3c5c7b;fill-rule:nonzero;"/><path d="M750.472,319.431c-12.176,-4.835 -19.611,-16.304 -17.81,-28.32l6.829,-45.596l14.56,0l-0.338,6.977c-2.185,0.926 -3.724,3.094 -3.724,5.604c0,2.303 1.294,4.319 3.191,5.355l-0.718,14.838c-3.778,3.275 -6.171,8.11 -6.171,13.507c0,4.772 1.873,9.108 4.924,12.311l-0.743,15.324Z" style="fill:#bbd1db;fill-rule:nonzero;"/><path d="M753.179,263.452c-1.898,-1.035 -3.191,-3.051 -3.191,-5.355c0,-2.51 1.538,-4.678 3.723,-5.603l-0.532,10.958l0,0Z" style="fill:#e35d72;fill-rule:nonzero;"/><path d="M751.213,304.11c-3.052,-3.204 -4.924,-7.54 -4.924,-12.311c0,-5.397 2.393,-10.232 6.17,-13.507l-1.246,25.818Z" style="fill:#3c5c7b;fill-rule:nonzero;"/><path d="M749.406,341.326l-10.79,0l0,-8.935l11.225,0l-0.435,8.935Z" style="fill:#bbd1db;fill-rule:nonzero;"/><path d="M782.792,236.851l-1.991,0l-9.598,0l4.78,-91.206l11.588,0l-4.779,91.206l0,0Z" style="fill:#d0edfa;fill-rule:nonzero;"/><path d="M747.649,273.934c0,1.627 -1.319,2.95 -2.95,2.95c-1.627,0 -2.946,-1.323 -2.946,-2.95c0,-1.627 1.319,-2.95 2.946,-2.95c1.631,0 2.95,1.323 2.95,2.95Z" style="fill:#d23f4b;fill-rule:nonzero;"/></g><g><rect x="905.234" y="438.013" width="18.663" height="98.911" style="fill:#fff;"/><rect x="908.582" y="297.119" width="11.964" height="142.145" style="fill:#7f8d8e;"/><rect x="908.582" y="297.119" width="11.964" height="142.145" style="fill:#7f8d8e;"/><rect x="904.932" y="297.119" width="19.272" height="75.581" style="fill:#b8e4f0;"/><path d="M921.679,372.696l-14.217,0l-2.527,-75.581l19.271,0l-2.527,75.581Z" style="fill:#fff;fill-rule:nonzero;"/><rect x="906.761" y="417.492" width="15.616" height="13.279" style="fill:#10b0bf;"/><rect x="904.068" y="425.981" width="21.004" height="13.283" style="fill:#10b0bf;"/><path d="M919.397,363.365c0,2.663 -2.16,4.823 -4.823,4.823c-2.667,0 -4.822,-2.16 -4.822,-4.823c0,-2.662 2.155,-4.821 4.822,-4.821c2.663,0 4.823,2.159 4.823,4.821Z" style="fill:#10b0bf;fill-rule:nonzero;"/><path d="M919.397,350.461c0,2.662 -2.16,4.818 -4.823,4.818c-2.667,0 -4.822,-2.156 -4.822,-4.818c0,-2.667 2.155,-4.823 4.822,-4.823c2.663,0 4.823,2.156 4.823,4.823Z" style="fill:#10b0bf;fill-rule:nonzero;"/><path d="M919.397,337.556c0,2.662 -2.16,4.818 -4.823,4.818c-2.667,0 -4.822,-2.156 -4.822,-4.818c0,-2.667 2.155,-4.823 4.822,-4.823c2.663,0 4.823,2.156 4.823,4.823Z" style="fill:#10b0bf;fill-rule:nonzero;"/><path d="M852.747,539.148l0,7.733l11.664,0l0,-15.552l-3.846,0c-4.319,0 -7.818,3.499 -7.818,7.819Z" style="fill:#10b0bf;fill-rule:nonzero;"/><rect x="864.411" y="531.328" width="50.157" height="15.553" style="fill:#fff;"/><path d="M976.384,539.148l0,7.733l-11.664,0l0,-15.552l3.854,0c4.311,0 7.81,3.499 7.81,7.819Z" style="fill:#10b0bf;fill-rule:nonzero;"/><rect x="914.565" y="531.328" width="50.153" height="15.553" style="fill:#fff;"/><path d="M902.462,536.016l0,10.861l24.221,0l0,-10.861c0,-3.964 -3.208,-7.18 -7.176,-7.18l-9.868,0c-3.964,0 -7.177,3.216 -7.177,7.18l0,0Z" style="fill:#10b0bf;fill-rule:nonzero;"/><path d="M903.974,275.44c0,0 -26.126,-17.416 -27.994,-38.568c-1.019,-11.568 3.575,-21.195 13.469,-27.678c7.13,-4.674 17.852,-6.927 26.342,-5.912c11.534,1.369 25.434,5.384 34.482,13.156c4.526,3.883 7.742,8.756 6.821,14.939c-0.824,5.495 -4.141,8.732 -8.237,11.225c-10.177,6.2 -18.173,15.426 -22.242,26.625c-1.319,3.618 -2.109,6.213 -2.109,6.213l-20.532,0l0,0Z" style="fill:#10b0bf;fill-rule:nonzero;"/><path d="M904.68,305.45c0,0 -2.02,31.338 -19.403,43.531c-9.508,6.669 -20.146,7.502 -30.703,2.176c-7.616,-3.837 -14.923,-11.994 -18.296,-19.859c-4.577,-10.671 -8.05,-24.715 -5.844,-36.438c1.103,-5.862 3.711,-11.086 9.53,-13.376c5.168,-2.037 9.627,-0.782 13.836,1.521c10.46,5.71 22.446,8.026 34.178,5.951c3.795,-0.673 6.441,-1.281 6.441,-1.281l10.261,17.775Z" style="fill:#10b0bf;fill-rule:nonzero;"/><path d="M935.309,282.493c0,0 28.15,-13.917 47.401,-4.957c10.527,4.898 16.567,13.693 17.234,25.497c0.487,8.516 -2.924,18.92 -8.05,25.775c-6.948,9.298 -17.375,19.331 -28.633,23.283c-5.625,1.973 -11.457,2.324 -16.347,-1.564c-4.349,-3.457 -5.49,-7.953 -5.605,-12.75c-0.282,-11.91 -4.268,-23.448 -11.934,-32.572c-2.477,-2.95 -4.328,-4.936 -4.328,-4.936l10.262,-17.776Z" style="fill:#10b0bf;fill-rule:nonzero;"/><path d="M944.654,289.965c0,17.314 -14.036,31.345 -31.346,31.345c-17.311,0 -31.346,-14.031 -31.346,-31.345c0,-17.311 14.035,-31.346 31.346,-31.346c17.31,0 31.346,14.035 31.346,31.346Z" style="fill:#7fbfce;fill-rule:nonzero;"/><path d="M937.195,289.965c0,13.19 -10.692,23.882 -23.883,23.882c-13.19,0 -23.882,-10.692 -23.882,-23.882c0,-13.191 10.692,-23.879 23.882,-23.879c13.191,0 23.883,10.688 23.883,23.879Z" style="fill:#b8e4f0;fill-rule:nonzero;"/><path d="M932.457,289.958c0,7.4 -4.201,13.811 -10.341,16.994c2.971,-3.77 4.737,-8.52 4.737,-13.689c0,-10.924 -7.911,-20.015 -18.321,-21.832c1.53,-0.406 3.132,-0.609 4.78,-0.609c10.566,0 19.145,8.575 19.145,19.136l0,0Z" style="fill:#fff;fill-rule:nonzero;"/><path d="M714.481,512.856l-9.247,3.406c-2.262,0.824 -4.721,-0.621 -5.093,-3l-4.476,-28.646l-0.013,-1.065l1.264,-9.952c0.229,-1.809 1.703,-3.199 3.512,-3.327l10.95,-0.785l3.103,43.369Z" style="fill:#455a64;fill-rule:nonzero;"/><path d="M712.943,463.146l-12.087,0c-2.811,0 -5.089,-2.278 -5.089,-5.088l0,-5.093c0,-2.81 2.278,-5.088 5.089,-5.088l12.087,0l0,15.269Z" style="fill:#455a64;fill-rule:nonzero;"/><path d="M612.423,379.168l0,45.813l-47.266,16.152c-2.845,-4.302 -10.423,-17.091 -10.929,-36.987c-0.009,-0.689 -0.022,-1.374 -0.022,-2.072c0,-3.051 0.173,-5.954 0.478,-8.68c0.067,-0.583 0.135,-1.15 0.203,-1.712c0.131,-1.077 0.295,-2.117 0.465,-3.131c0.109,-0.592 0.211,-1.162 0.325,-1.725c0.887,-4.488 2.079,-8.419 3.36,-11.757c0.553,-1.462 1.124,-2.806 1.699,-4.036c0.638,-1.416 1.276,-2.684 1.889,-3.791c0.401,-0.735 0.769,-1.395 1.133,-1.995c0.524,-0.896 1.006,-1.639 1.399,-2.232l47.266,16.153Z" style="fill:#b0bec5;fill-rule:nonzero;"/><path d="M570.506,400.639l-16.258,0c0.038,-2.528 0.19,-4.949 0.439,-7.248c0.068,-0.583 0.136,-1.15 0.203,-1.712c0.139,-1.069 0.296,-2.117 0.465,-3.131c0.11,-0.592 0.212,-1.162 0.325,-1.725c0.888,-4.488 2.08,-8.419 3.36,-11.757c0.554,-1.462 1.124,-2.806 1.699,-4.036c0.639,-1.416 1.276,-2.684 1.889,-3.791c0.402,-0.735 0.77,-1.395 1.133,-1.995c0.524,-0.896 1.006,-1.639 1.399,-2.231l47.266,16.153l-4.995,1.365l-43.67,-15.287c-0.363,0.6 -0.731,1.26 -1.133,1.995c-0.613,1.107 -1.25,2.375 -1.889,3.791l37.99,11.872l-14.724,4.014l-2.519,0.685c-4.763,1.302 -8.457,4.814 -10.109,9.243c-0.14,0.372 -0.262,0.756 -0.381,1.141c-0.236,0.862 -0.406,1.75 -0.49,2.654l0,0Z" style="fill:#c5d4db;fill-rule:nonzero;"/><path d="M598.726,382.9l-37.989,-11.871c0.638,-1.416 1.276,-2.684 1.889,-3.791c0.402,-0.736 0.769,-1.395 1.133,-1.995l43.669,15.286l-8.702,2.371Z" style="fill:#daeaf1;fill-rule:nonzero;"/><path d="M612.423,379.168l0,45.813l-30.941,-8.44c-3.267,-0.896 -6.03,-2.823 -7.979,-5.367c-1.948,-2.553 -3.068,-5.718 -3.068,-9.1c0,-1.411 0.194,-2.776 0.558,-4.086c0.118,-0.385 0.241,-0.769 0.38,-1.141c1.652,-4.429 5.346,-7.942 10.109,-9.243l2.519,-0.685l28.422,-7.751Z" style="fill:#90a4ae;fill-rule:nonzero;"/><path d="M767.982,402.069c0,0.706 -0.021,1.394 -0.051,2.071c-0.101,2.32 -0.401,4.475 -0.896,6.516c-0.342,1.433 -0.781,2.811 -1.327,4.134c-1.851,4.496 -4.876,8.418 -9.217,12.15l-0.021,0.017l0.401,-22.817l0.296,-17.32l0.114,-6.385c2.337,1.796 4.374,3.951 6.023,6.385c0.553,0.807 1.069,1.657 1.529,2.528c0.698,1.318 1.285,2.7 1.767,4.133c0.685,2.079 1.133,4.264 1.302,6.517c0.051,0.689 0.08,1.373 0.08,2.071l0,0Z" style="fill:#78919d;fill-rule:nonzero;"/><path d="M745.417,375.246l-21.334,-3.71l0,61.077l0.862,-0.148c-2.189,5.109 -3.943,10.451 -4.678,16.372c-5.275,32.318 4.129,70.481 11.334,87.8c0,0 10.634,-37.609 9.979,-60.756c-0.284,-9.881 -3.137,-20.899 -2.202,-30.649c0.887,-9.335 10.853,-12.919 17.095,-18.27l0.811,-46.526c-3.385,-2.591 -7.421,-4.417 -11.867,-5.19l0,0Z" style="fill:#90a4ae;fill-rule:nonzero;"/><path d="M731.601,536.636l-19.344,0c-4.319,-15.176 -8.122,-34.739 -8.215,-57.574c-0.017,-4.268 0.093,-8.389 0.317,-12.37c0.282,-5.219 0.752,-10.172 1.331,-14.846c-0.913,-11.826 -10.363,-21.2 -22.197,-22.007l-56.107,-3.841l-14.961,-1.018l0,-45.813l111.657,-7.632c1.496,1.72 5.976,7.121 8.867,15.383c1.04,2.958 1.868,6.285 2.282,9.936l0.123,1.132c0.152,1.623 0.219,3.305 0.181,5.042c-0.274,13.363 -6.254,22.936 -9.707,27.437c-2.604,5.718 -4.721,11.673 -5.562,18.371c-5.278,32.323 4.129,70.477 11.335,87.8l0,0Z" style="fill:#cf2032;fill-rule:nonzero;"/><rect x="653.143" y="403.701" width="46.442" height="7.916" style="fill:#e0e1e0;"/><path d="M725.034,581.485l-6.411,0l-6.364,-44.854l19.136,0l-6.361,44.854Z" style="fill:#455a64;fill-rule:nonzero;"/><path d="M743.185,547.51c-2.612,-6.935 -10.832,-11.034 -17.589,-8.769l1.825,5.427c3.897,-1.302 8.859,1.246 10.405,5.358c1.53,4.066 -0.105,9.336 -3.795,12.256c-3.571,2.824 -8.976,3.631 -13.765,2.05l-1.796,5.439c2.245,0.736 4.56,1.099 6.842,1.099c4.501,0 8.876,-1.411 12.269,-4.095c5.655,-4.476 8.013,-12.366 5.604,-18.765l0,0Z" style="fill:#455a64;fill-rule:nonzero;"/><path d="M766.599,393.484l-9.318,0l0,-4.133l7.552,0c0.697,1.319 1.284,2.7 1.766,4.133Z" style="fill:#455a64;fill-rule:nonzero;"/><path d="M767.982,402.069c0,0.706 -0.021,1.394 -0.051,2.071l-10.65,0l0,-4.142l10.621,0c0.051,0.689 0.08,1.373 0.08,2.071l0,0Z" style="fill:#455a64;fill-rule:nonzero;"/><path d="M767.039,410.66c-0.343,1.432 -0.782,2.81 -1.328,4.133l-8.426,0l0,-4.133l9.754,0Z" style="fill:#455a64;fill-rule:nonzero;"/><path d="M612.423,400.639l-41.43,0c0.118,-1.285 0.241,-2.557 0.38,-3.795c1.652,-4.429 5.346,-7.941 10.109,-9.243l2.519,-0.685l28.422,-7.75l0,21.473Z" style="fill:#acc2cc;fill-rule:nonzero;"/><path d="M735.352,400.639l-122.928,0l0,-21.473l111.656,-7.633c1.496,1.72 5.976,7.121 8.867,15.383c1.04,2.959 1.868,6.285 2.282,9.937c0.043,1.25 0.085,2.51 0.123,3.786l0,0Zm-6.183,-16.702c-0.634,-5.405 -5.406,-9.539 -5.406,-9.539c0,0 -100.875,7.358 -105.761,7.43c-0.114,-0.004 -0.174,-0.004 -0.174,-0.004c0.017,0.004 0.055,0.004 0.106,0.004c0.021,0 0.042,0 0.068,0c4.644,0.097 101.852,2.109 111.167,2.109l0,0Z" style="fill:#dc2343;fill-rule:nonzero;"/><path d="M729.167,383.938c-9.315,0 -106.522,-2.012 -111.167,-2.109c4.885,-0.072 105.761,-7.43 105.761,-7.43c0,0 4.772,4.134 5.406,9.539l0,0Zm-111.235,-2.109c-0.05,0 -0.088,0 -0.106,-0.004c0,0 0.06,0 0.174,0.004c-0.025,0 -0.046,0 -0.068,0l0,0Z" style="fill:#ea3566;fill-rule:nonzero;"/><path d="M756.476,385.134l-22.847,-1.197l-4.454,-9.538c0,0 0.038,-0.005 0.144,-0.005c0.613,0 3.533,0.136 15.286,1.915c10.464,1.581 11.871,8.825 11.871,8.825Z" style="fill:#a9b8c1;fill-rule:nonzero;"/><path d="M704.359,466.689c0.283,-5.22 0.752,-10.173 1.331,-14.847c-0.913,-11.825 -10.363,-21.199 -22.196,-22.006l-56.108,-3.841c15.02,-1.383 44.211,-3.504 61.635,-1.074c6.074,0.85 11.373,4.547 14.298,9.931c7.294,13.423 4.501,26.021 1.04,31.837Z" style="fill:#b31f2b;fill-rule:nonzero;"/><path d="M721.83,578.147l-1.238,-8.291c0.41,0.093 0.824,0.169 1.238,0.237l0,8.054Zm-1.957,-13.113l-3.664,-24.58l5.621,0l0,23.81c-0.524,-0.118 -1.048,-0.258 -1.56,-0.427l-0.397,1.197l0,0Z" style="fill:#506d7b;fill-rule:nonzero;"/><path d="M721.83,570.088c-0.414,-0.068 -0.828,-0.144 -1.238,-0.237l-0.719,-4.822l0.397,-1.196c0.512,0.169 1.036,0.308 1.56,0.427l0,5.828Z" style="fill:#506d7b;fill-rule:nonzero;"/></g></g><path d="M420.25,136.935l-0.211,-0.009c-3.863,-0.414 -7.819,-0.689 -11.745,-0.815c-1.099,-0.038 -1.957,-0.955 -1.923,-2.054c0.038,-1.095 0.798,-1.979 2.058,-1.919c4.023,0.131 8.068,0.414 12.028,0.837c1.09,0.118 1.88,1.094 1.767,2.185c-0.106,1.022 -0.968,1.775 -1.974,1.775Zm-35.699,0.084c-0.997,0 -1.856,-0.752 -1.97,-1.771c-0.122,-1.09 0.668,-2.071 1.758,-2.189c4.003,-0.435 8.047,-0.731 12.033,-0.887c1.065,-0.042 2.016,0.816 2.058,1.91c0.038,1.099 -0.816,2.02 -1.91,2.062c-3.893,0.148 -7.84,0.44 -11.749,0.862l-0.22,0.013Zm-23.435,4.252c-0.891,0 -1.694,-0.596 -1.926,-1.496c-0.267,-1.061 0.371,-2.143 1.432,-2.417c3.862,-0.99 7.831,-1.856 11.787,-2.57c1.048,-0.186 2.109,0.52 2.307,1.602c0.195,1.077 -0.524,2.113 -1.602,2.307c-3.867,0.698 -7.733,1.543 -11.507,2.511l-0.491,0.063Zm82.551,0.025l-0.52,-0.067c-3.723,-1.011 -7.577,-1.889 -11.461,-2.613c-1.078,-0.198 -1.792,-1.233 -1.594,-2.311c0.199,-1.082 1.264,-1.796 2.316,-1.593c3.995,0.74 7.959,1.644 11.779,2.679c1.057,0.287 1.686,1.382 1.399,2.439c-0.241,0.883 -1.044,1.466 -1.919,1.466Zm-105.111,7.603c-0.769,0 -1.504,-0.448 -1.825,-1.204c-0.431,-1.01 0.037,-2.177 1.048,-2.608c3.668,-1.568 7.468,-3.013 11.284,-4.298c1.044,-0.351 2.159,0.212 2.51,1.247c0.351,1.043 -0.207,2.168 -1.251,2.519c-3.706,1.25 -7.408,2.662 -10.984,4.188l-0.782,0.156Zm127.434,0.663l-0.862,-0.198c-2.143,-1.031 -4.319,-1.999 -6.517,-2.908c-1.412,-0.574 -2.836,-1.132 -4.277,-1.66c-1.027,-0.385 -1.555,-1.526 -1.174,-2.553c0.38,-1.032 1.529,-1.555 2.548,-1.175c1.488,0.545 2.958,1.12 4.412,1.716c2.274,0.93 4.514,1.935 6.732,3.005c0.989,0.473 1.403,1.661 0.926,2.649c-0.342,0.711 -1.053,1.124 -1.788,1.124Zm180.532,8.424c-1.048,0 -1.927,-0.82 -1.977,-1.881c-0.06,-1.095 0.781,-2.033 1.88,-2.088c3.99,-0.203 7.992,-0.338 11.981,-0.401c1.011,-0.081 2.004,0.857 2.021,1.957c0.012,1.094 -0.862,1.998 -1.957,2.02c-3.947,0.059 -7.899,0.189 -11.842,0.393l-0.106,0Zm35.742,0.13l-0.115,-0.004c-3.943,-0.236 -7.89,-0.397 -11.837,-0.481c-1.095,-0.026 -1.961,-0.934 -1.944,-2.034c0.029,-1.094 0.98,-1.892 2.033,-1.939c3.998,0.088 7.991,0.254 11.981,0.486c1.094,0.064 1.931,1.006 1.864,2.101c-0.06,1.056 -0.934,1.871 -1.982,1.871Zm23.823,1.408l-0.14,-0.004c-4.104,-0.284 -8.089,-0.516 -11.884,-0.732c-1.09,-0.059 -1.931,-0.997 -1.868,-2.091c0.064,-1.095 0.892,-1.923 2.092,-1.873c3.817,0.216 7.815,0.444 11.931,0.732c1.094,0.071 1.923,1.022 1.851,2.117c-0.076,1.048 -0.951,1.851 -1.982,1.851l0,0Zm-388.56,0.541c-0.651,0 -1.285,-0.321 -1.665,-0.905c-0.596,-0.921 -0.338,-2.151 0.583,-2.746c3.326,-2.165 6.834,-4.227 10.431,-6.129c0.955,-0.511 2.168,-0.143 2.683,0.829c0.511,0.968 0.144,2.172 -0.828,2.684c-3.491,1.846 -6.893,3.845 -10.118,5.942l-1.086,0.325Zm305.248,0.008c-0.984,0 -1.843,-0.735 -1.969,-1.741c-0.136,-1.086 0.638,-2.084 1.732,-2.218c3.965,-0.491 7.946,-0.909 11.923,-1.264c1.002,-0.106 2.05,0.71 2.151,1.805c0.097,1.094 -0.71,2.057 -1.805,2.155c-3.93,0.347 -7.861,0.765 -11.783,1.25l-0.249,0.013Zm107.051,1.759l-0.266,-0.017c-3.939,-0.525 -7.878,-0.964 -11.766,-1.336c-1.095,-0.102 -1.897,-1.073 -1.796,-2.164c0.11,-1.094 1.154,-1.897 2.168,-1.788c3.938,0.372 7.933,0.817 11.922,1.349c1.086,0.143 1.847,1.145 1.703,2.231c-0.131,0.997 -0.985,1.725 -1.965,1.725l0,0Zm-243.457,0.029c-0.414,0 -0.823,-0.122 -1.178,-0.385c-3.149,-2.324 -6.433,-4.522 -9.751,-6.525c-0.942,-0.566 -1.238,-1.788 -0.672,-2.726c0.567,-0.946 1.801,-1.238 2.726,-0.676c3.423,2.071 6.809,4.332 10.054,6.728c0.884,0.651 1.07,1.894 0.419,2.777c-0.389,0.528 -0.989,0.807 -1.598,0.807Zm112.871,1.991c-0.93,0 -1.759,-0.659 -1.945,-1.606c-0.215,-1.078 0.49,-2.118 1.564,-2.334c3.922,-0.773 7.857,-1.474 11.804,-2.112c1.048,-0.186 2.101,0.566 2.278,1.648c0.169,1.082 -0.571,2.1 -1.648,2.278c-3.901,0.625 -7.789,1.323 -11.665,2.088l-0.388,0.038l0,0Zm153.999,2.442l-0.503,-0.063c-3.571,-0.938 -7.442,-1.796 -11.491,-2.557c-1.082,-0.202 -1.791,-1.243 -1.589,-2.32c0.199,-1.082 1.247,-1.796 2.312,-1.585c4.15,0.778 8.106,1.657 11.783,2.616c1.052,0.275 1.694,1.366 1.412,2.426c-0.229,0.887 -1.036,1.483 -1.924,1.483Zm-177.201,2.997c-0.875,0 -1.678,-0.583 -1.915,-1.467c-0.292,-1.06 0.339,-2.151 1.391,-2.438c3.858,-1.048 7.734,-2.033 11.622,-2.942c1.073,-0.24 2.138,0.415 2.383,1.479c0.254,1.07 -0.414,2.139 -1.475,2.388c-3.845,0.9 -7.675,1.868 -11.482,2.908l-0.524,0.072Zm199.482,5.376l-0.938,-0.237c-3.203,-1.707 -6.783,-3.293 -10.638,-4.712c-1.031,-0.385 -1.559,-1.522 -1.174,-2.553c0.38,-1.031 1.538,-1.555 2.548,-1.179c4.024,1.483 7.768,3.149 11.136,4.936c0.964,0.516 1.335,1.724 0.82,2.692c-0.359,0.668 -1.044,1.053 -1.754,1.053l0,0Zm-476.432,0.418c-0.499,0 -1.002,-0.19 -1.386,-0.566c-0.782,-0.765 -0.798,-2.021 -0.034,-2.811c2.955,-3.026 5.968,-5.786 8.951,-8.207c0.841,-0.689 2.101,-0.562 2.794,0.291c0.689,0.858 0.558,2.105 -0.3,2.798c-2.862,2.321 -5.756,4.974 -8.601,7.895c-0.389,0.397 -0.908,0.6 -1.424,0.6Zm254.187,1.272c-0.82,0 -1.585,-0.511 -1.872,-1.327c-0.364,-1.04 0.181,-2.172 1.217,-2.532c3.77,-1.322 7.569,-2.573 11.381,-3.761c1.061,-0.313 2.168,0.262 2.489,1.306c0.326,1.048 -0.266,2.164 -1.31,2.489c-3.766,1.175 -7.523,2.414 -11.25,3.715l-0.655,0.11Zm-49.126,1.34c-0.528,0 -1.056,-0.211 -1.449,-0.63c-2.65,-2.84 -5.478,-5.6 -8.398,-8.195c-0.82,-0.735 -0.887,-1.99 -0.156,-2.81c0.727,-0.815 1.978,-0.888 2.806,-0.161c3.005,2.684 5.917,5.524 8.651,8.453c0.748,0.803 0.706,2.058 -0.097,2.81c-0.385,0.355 -0.871,0.533 -1.357,0.533Zm26.929,7.332c-0.768,0 -1.496,-0.447 -1.825,-1.196c-0.431,-1.009 0.03,-2.176 1.04,-2.611c3.664,-1.589 7.362,-3.107 11.081,-4.565c1.031,-0.401 2.172,0.106 2.574,1.128c0.401,1.019 -0.102,2.173 -1.125,2.574c-3.681,1.437 -7.328,2.942 -10.954,4.51l-0.791,0.16Zm262.623,4.717c-0.613,0 -1.212,-0.283 -1.606,-0.816c-0.82,-1.124 -1.698,-2.206 -2.628,-3.241c-1.555,-1.725 -3.318,-3.39 -5.249,-4.949c-0.85,-0.689 -0.981,-1.94 -0.292,-2.794c0.689,-0.854 1.944,-0.976 2.794,-0.292c2.088,1.687 4.002,3.496 5.692,5.372c1.027,1.137 1.991,2.325 2.896,3.563c0.646,0.887 0.452,2.13 -0.436,2.776c-0.351,0.258 -0.765,0.381 -1.171,0.381l0,0Zm-509.763,3.719c-0.401,0 -0.803,-0.119 -1.154,-0.372c-0.896,-0.634 -1.103,-1.877 -0.465,-2.768c2.43,-3.398 4.89,-6.623 7.316,-9.585c0.693,-0.85 1.948,-0.973 2.793,-0.275c0.849,0.693 0.976,1.944 0.279,2.794c-2.367,2.89 -4.78,6.043 -7.151,9.373c-0.389,0.541 -1.001,0.833 -1.618,0.833Zm234.754,3.081c-0.659,0 -1.301,-0.326 -1.677,-0.93c-0.617,-0.98 -1.255,-1.957 -1.906,-2.929c-1.551,0.778 -3.09,1.564 -4.624,2.367c-0.976,0.507 -2.176,0.135 -2.684,-0.841c-0.507,-0.972 -0.126,-2.172 0.842,-2.684c1.39,-0.723 2.781,-1.432 4.179,-2.138c-0.828,-1.141 -1.669,-2.27 -2.523,-3.385c-0.672,-0.867 -0.511,-2.118 0.356,-2.785c0.857,-0.668 2.108,-0.512 2.784,0.358c1.019,1.319 2.021,2.663 2.984,4.024c0.985,-0.482 1.97,-0.955 2.954,-1.424c0.985,-0.473 2.172,-0.055 2.646,0.938c0.473,0.989 0.055,2.177 -0.939,2.646c-0.798,0.38 -1.588,0.764 -2.383,1.149c0.571,0.858 1.133,1.724 1.674,2.591c0.583,0.929 0.304,2.155 -0.622,2.739l-1.061,0.304Zm-29.836,10.536c-0.66,0 -1.311,-0.334 -1.687,-0.939c-0.574,-0.933 -0.292,-2.155 0.643,-2.734c3.393,-2.109 6.829,-4.15 10.308,-6.132c0.95,-0.545 2.155,-0.212 2.708,0.744c0.541,0.955 0.212,2.167 -0.748,2.709c-3.431,1.952 -6.821,3.977 -10.177,6.051l-1.047,0.301Zm313.734,4.56c-0.938,0 -1.779,-0.672 -1.953,-1.635c-0.706,-3.943 -1.749,-7.671 -3.097,-11.077c-0.406,-1.023 0.093,-2.177 1.111,-2.579c1.019,-0.405 2.172,0.093 2.582,1.116c1.45,3.651 2.562,7.637 3.318,11.838c0.195,1.082 -0.524,2.113 -1.606,2.307l-0.355,0.03l0,0Zm-531.567,1.86l-1.006,-0.275c-0.951,-0.558 -1.264,-1.779 -0.706,-2.722c2.041,-3.465 4.142,-6.88 6.285,-10.223c0.595,-0.926 1.821,-1.192 2.747,-0.596c0.925,0.592 1.187,1.822 0.6,2.743c-2.126,3.3 -4.188,6.677 -6.208,10.096c-0.381,0.63 -1.036,0.977 -1.712,0.977Zm258.252,4.361c-0.807,0 -1.563,-0.49 -1.859,-1.293c-1.349,-3.601 -2.916,-7.214 -4.666,-10.735c-0.482,-0.985 -0.08,-2.177 0.9,-2.667c0.981,-0.486 2.173,-0.089 2.663,0.897c1.813,3.646 3.436,7.386 4.826,11.118c0.376,1.032 -0.144,2.173 -1.171,2.557l-0.693,0.123Zm-60.177,2.54c-0.609,0 -1.213,-0.279 -1.602,-0.812c-0.647,-0.887 -0.452,-2.13 0.431,-2.776c3.229,-2.359 6.5,-4.658 9.818,-6.893c0.909,-0.609 2.142,-0.376 2.755,0.537c0.617,0.912 0.377,2.146 -0.536,2.759c-3.271,2.206 -6.505,4.472 -9.695,6.805c-0.352,0.257 -0.761,0.38 -1.171,0.38Zm-209.643,13.963l-0.925,-0.232c-0.972,-0.512 -1.344,-1.712 -0.829,-2.68c1.847,-3.511 3.736,-7.032 5.668,-10.531c0.528,-0.96 1.75,-1.306 2.7,-0.782c0.964,0.532 1.31,1.741 0.778,2.705c-1.919,3.474 -3.8,6.973 -5.634,10.459c-0.354,0.673 -1.048,1.061 -1.758,1.061Zm190.967,0.842c-0.562,0 -1.116,-0.233 -1.505,-0.689c-0.718,-0.837 -0.625,-2.089 0.208,-2.803c3.034,-2.607 6.123,-5.151 9.255,-7.632c0.854,-0.685 2.104,-0.541 2.789,0.321c0.681,0.858 0.541,2.109 -0.321,2.789c-3.098,2.452 -6.137,4.962 -9.129,7.536c-0.38,0.321 -0.841,0.478 -1.297,0.478Zm352.206,3.38l-0.127,-0.004c-3.28,-0.207 -6.602,-0.308 -9.865,-0.308l-1.901,0.008l-0.021,0c-1.086,0 -1.974,-0.875 -1.987,-1.961c-0.012,-1.099 0.867,-1.999 1.965,-2.012l1.953,-0.012c2.937,0 5.93,0.084 8.897,0.249c-0.267,-0.385 -0.407,-0.862 -0.347,-1.361c0.376,-3.381 0.566,-6.74 0.566,-9.982l-0.021,-1.661c-0.025,-1.094 0.85,-2.004 1.944,-2.024l0.043,0c1.081,0 1.96,0.862 1.986,1.944l0.021,1.729c0,3.397 -0.199,6.905 -0.588,10.434c-0.08,0.701 -0.515,1.285 -1.115,1.572c0.388,0.389 0.612,0.934 0.579,1.526c-0.068,1.052 -0.943,1.863 -1.982,1.863l0,0Zm-267.559,2.338c-0.977,0 -1.826,-0.727 -1.962,-1.725c-0.515,-3.821 -1.255,-7.679 -2.21,-11.466c-0.27,-1.064 0.372,-2.147 1.441,-2.417c1.074,-0.266 2.143,0.38 2.405,1.441c0.994,3.935 1.771,7.946 2.299,11.914c0.148,1.09 -0.617,2.088 -1.703,2.231l-0.27,0.022Zm227.291,0.32c-0.926,0 -1.754,-0.646 -1.944,-1.584c-0.22,-1.078 0.473,-2.126 1.547,-2.346c1.568,-0.321 3.135,-0.608 4.699,-0.87c3.939,-0.66 7.967,-1.175 11.977,-1.53c0.994,-0.115 2.054,0.705 2.152,1.804c0.097,1.095 -0.711,2.059 -1.805,2.152c-3.905,0.35 -7.831,0.849 -11.673,1.491c-1.509,0.254 -3.03,0.533 -4.551,0.846l-0.402,0.037Zm63.858,0.588l-0.414,-0.046c-3.812,-0.816 -7.713,-1.501 -11.593,-2.033c-1.09,-0.148 -1.846,-1.15 -1.694,-2.236c0.148,-1.09 1.188,-1.838 2.235,-1.699c3.973,0.545 7.975,1.247 11.885,2.088c1.069,0.228 1.758,1.284 1.525,2.358c-0.202,0.93 -1.022,1.568 -1.944,1.568l0,0Zm22.869,6.699l-0.706,-0.127c-3.639,-1.374 -7.396,-2.629 -11.162,-3.728c-1.052,-0.308 -1.657,-1.411 -1.348,-2.467c0.309,-1.049 1.395,-1.662 2.464,-1.349c3.863,1.133 7.708,2.418 11.453,3.829c1.023,0.385 1.543,1.53 1.154,2.557c-0.3,0.794 -1.052,1.285 -1.855,1.285Zm-109.126,0.583c-0.689,0 -1.361,-0.364 -1.724,-1.006c-0.545,-0.955 -0.207,-2.168 0.748,-2.709c3.343,-1.897 7.121,-3.562 11.225,-4.957c1.035,-0.36 2.164,0.198 2.519,1.242c0.355,1.036 -0.203,2.164 -1.239,2.519c-3.875,1.315 -7.421,2.878 -10.552,4.653l-0.977,0.258l0,0Zm-306.989,2.333c-0.503,0 -1.006,-0.195 -1.395,-0.575c-0.782,-0.774 -0.786,-2.033 -0.016,-2.814c2.814,-2.841 5.692,-5.626 8.617,-8.348c0.803,-0.747 2.058,-0.701 2.806,0.098c0.748,0.803 0.701,2.062 -0.097,2.81c-2.891,2.688 -5.727,5.431 -8.504,8.241c-0.388,0.389 -0.9,0.588 -1.411,0.588Zm-184.399,4.142l-0.896,-0.212c-0.976,-0.494 -1.37,-1.69 -0.875,-2.671c1.758,-3.482 3.559,-7.041 5.401,-10.642c0.503,-0.98 1.691,-1.36 2.667,-0.866c0.98,0.503 1.369,1.695 0.871,2.676c-1.843,3.596 -3.635,7.146 -5.393,10.624c-0.351,0.689 -1.048,1.091 -1.775,1.091Zm549.322,3.005l-0.655,-0.11c-1.036,-0.36 -1.581,-1.488 -1.23,-2.528c1.285,-3.685 2.367,-7.468 3.233,-11.246c0.241,-1.069 1.302,-1.745 2.379,-1.496c1.073,0.245 1.737,1.31 1.492,2.38c-0.896,3.921 -2.02,7.843 -3.343,11.668c-0.287,0.816 -1.057,1.332 -1.876,1.332l0,0Zm72.766,0.025l-0.98,-0.258c-3.385,-1.914 -6.901,-3.732 -10.456,-5.393c-0.997,-0.464 -1.424,-1.644 -0.959,-2.637c0.465,-1.002 1.661,-1.42 2.641,-0.963c3.648,1.707 7.261,3.571 10.731,5.536c0.955,0.541 1.293,1.754 0.748,2.709c-0.363,0.642 -1.036,1.006 -1.725,1.006l0,0Zm-335.334,6.077l-0.228,-0.017c-1.091,-0.118 -1.873,-1.103 -1.75,-2.194c0.405,-3.571 0.608,-7.18 0.608,-10.73l-0.004,-0.913c-0.013,-1.099 0.862,-2.003 1.961,-2.015l0.021,0c1.087,0 1.974,0.874 1.986,1.96l0.009,0.943c0,3.723 -0.216,7.485 -0.63,11.204c-0.118,1.014 -0.976,1.762 -1.973,1.762Zm188.088,1.086l-0.896,-0.215c-0.981,-0.49 -1.373,-1.687 -0.879,-2.667c1.889,-3.736 4.446,-7.232 7.383,-10.109c0.791,-0.77 2.05,-0.749 2.81,0.029c0.77,0.782 0.753,2.042 -0.033,2.811c-2.633,2.574 -4.919,5.709 -6.614,9.061c-0.347,0.693 -1.044,1.09 -1.771,1.09l0,0Zm-306.461,3.318c-0.435,0 -0.875,-0.144 -1.247,-0.44c-0.853,-0.689 -0.984,-1.939 -0.299,-2.793c1.699,-2.113 3.448,-4.167 5.21,-6.145c0.884,-0.997 1.771,-1.987 2.667,-2.963c0.744,-0.812 2.003,-0.87 2.807,-0.131c0.815,0.74 0.87,1.995 0.126,2.806c-0.879,0.968 -1.762,1.944 -2.628,2.925c-1.725,1.936 -3.424,3.938 -5.089,6.001c-0.388,0.486 -0.968,0.74 -1.547,0.74Zm473.385,2.92c-0.444,0 -0.884,-0.144 -1.255,-0.443c-2.997,-2.435 -6.171,-4.793 -9.429,-7.008c-0.905,-0.617 -1.141,-1.851 -0.525,-2.759c0.622,-0.913 1.868,-1.138 2.76,-0.529c3.352,2.278 6.611,4.704 9.704,7.21c0.845,0.689 0.976,1.94 0.287,2.794c-0.397,0.486 -0.963,0.735 -1.542,0.735l0,0Zm-652.677,4.78l-0.943,-0.237c-0.968,-0.524 -1.327,-1.729 -0.807,-2.692l0.385,-0.718c1.673,-3.132 3.377,-6.416 5.113,-9.818c0.503,-0.981 1.712,-1.361 2.675,-0.866c0.977,0.503 1.366,1.698 0.863,2.675c-1.75,3.423 -3.461,6.728 -5.14,9.873l-0.397,0.739c-0.359,0.664 -1.044,1.044 -1.749,1.044Zm549.934,3.241l-1.069,-0.312c-0.921,-0.592 -1.196,-1.822 -0.6,-2.743c2.037,-3.186 3.934,-6.618 5.654,-10.206c0.474,-0.994 1.644,-1.408 2.65,-0.939c0.989,0.474 1.408,1.661 0.934,2.65c-1.787,3.736 -3.765,7.311 -5.891,10.638c-0.381,0.591 -1.023,0.912 -1.678,0.912l0,0Zm-257.652,7.828l-0.663,-0.115c-1.032,-0.367 -1.573,-1.504 -1.205,-2.54c1.306,-3.656 2.408,-7.429 3.288,-11.212c0.254,-1.069 1.31,-1.741 2.392,-1.487c1.065,0.249 1.732,1.314 1.483,2.383c-0.913,3.931 -2.062,7.848 -3.418,11.652c-0.292,0.811 -1.058,1.319 -1.877,1.319Zm377.513,0.692c-0.558,0 -1.112,-0.232 -1.505,-0.684l-0.634,-0.735c-2.35,-2.667 -4.852,-5.292 -7.438,-7.785c-0.787,-0.765 -0.812,-2.021 -0.051,-2.811c0.765,-0.786 2.016,-0.811 2.811,-0.05c2.662,2.569 5.244,5.274 7.67,8.029l0.647,0.753c0.718,0.824 0.625,2.083 -0.203,2.802c-0.376,0.321 -0.837,0.481 -1.297,0.481Zm-186.327,0.317c-0.823,0 -1.589,-0.511 -1.876,-1.331c-0.998,-2.848 -1.501,-5.899 -1.501,-9.065c0,-1.196 0.072,-2.392 0.216,-3.584c0.123,-1.086 1.12,-1.859 2.202,-1.741c1.09,0.131 1.872,1.116 1.737,2.206c-0.118,1.04 -0.182,2.079 -0.182,3.119c0,2.718 0.431,5.325 1.277,7.755c0.367,1.036 -0.182,2.168 -1.217,2.532l-0.656,0.109l0,0Zm-317.009,0.246l-0.829,-0.182c-1.001,-0.461 -1.432,-1.64 -0.976,-2.637c1.589,-3.466 3.593,-7.05 5.942,-10.654c0.596,-0.918 1.826,-1.175 2.751,-0.579c0.918,0.599 1.176,1.829 0.58,2.747c-2.245,3.444 -4.151,6.854 -5.664,10.146c-0.333,0.727 -1.047,1.159 -1.804,1.159Zm367.682,8.625c-0.6,0 -1.188,-0.27 -1.581,-0.782c-0.663,-0.87 -0.494,-2.117 0.377,-2.784c2.886,-2.202 5.701,-4.861 8.367,-7.895c0.719,-0.828 1.983,-0.905 2.803,-0.186c0.828,0.723 0.904,1.978 0.186,2.802c-2.844,3.237 -5.845,6.073 -8.943,8.435c-0.363,0.279 -0.782,0.41 -1.209,0.41l0,0Zm-545.459,0.03l-0.964,-0.249c-0.959,-0.528 -1.31,-1.737 -0.781,-2.697c1.922,-3.474 3.816,-6.961 5.692,-10.451c0.52,-0.972 1.712,-1.327 2.693,-0.812c0.963,0.525 1.327,1.725 0.807,2.692c-1.885,3.504 -3.787,7.008 -5.71,10.49c-0.363,0.659 -1.04,1.027 -1.737,1.027Zm511.721,6.584l-0.587,-0.088c-4.29,-1.328 -8.022,-3.381 -11.103,-6.111c-0.815,-0.727 -0.895,-1.982 -0.165,-2.802c0.728,-0.829 1.978,-0.905 2.806,-0.17c2.65,2.35 5.896,4.129 9.632,5.288c1.049,0.321 1.636,1.436 1.314,2.48c-0.265,0.854 -1.047,1.403 -1.897,1.403l0,0Zm11.77,1.513c-1.065,0 -1.948,-0.845 -1.986,-1.918c-0.042,-1.095 0.82,-2.016 1.914,-2.05c3.829,-0.135 7.54,-0.858 11.031,-2.147c1.035,-0.38 2.172,0.144 2.553,1.175c0.38,1.027 -0.145,2.172 -1.171,2.553c-3.888,1.437 -8.022,2.239 -12.274,2.387l-0.067,0Zm171.446,2.063c-0.681,0 -1.345,-0.351 -1.712,-0.985c-1.974,-3.376 -4.117,-6.694 -6.369,-9.856c-0.634,-0.891 -0.427,-2.133 0.465,-2.767c0.892,-0.639 2.134,-0.432 2.772,0.46c2.316,3.258 4.531,6.682 6.559,10.164c0.554,0.947 0.233,2.16 -0.714,2.714l-1.001,0.27Zm-401.772,1.31l-1.065,-0.313c-0.93,-0.591 -1.2,-1.817 -0.613,-2.743c2.076,-3.254 4.002,-6.686 5.718,-10.197c0.487,-0.99 1.67,-1.391 2.659,-0.918c0.984,0.483 1.394,1.674 0.908,2.659c-1.775,3.647 -3.778,7.209 -5.929,10.595c-0.38,0.592 -1.023,0.917 -1.678,0.917Zm-120.216,2.959c-1.039,0 -1.918,-0.808 -1.982,-1.86c-0.058,-0.892 -0.084,-1.779 -0.088,-2.667c0,-3.17 0.367,-6.437 1.094,-9.724c0.237,-1.07 1.289,-1.746 2.363,-1.513c1.077,0.236 1.754,1.297 1.517,2.371c-0.664,3.005 -1.001,5.983 -1.001,8.857c0.004,0.799 0.029,1.611 0.08,2.422c0.071,1.095 -0.761,2.037 -1.851,2.109l-0.132,0.005Zm-184.885,6.208l-1.035,-0.296c-0.934,-0.571 -1.23,-1.792 -0.66,-2.731c2.063,-3.368 4.079,-6.774 6.053,-10.206c0.545,-0.955 1.758,-1.276 2.717,-0.727c0.951,0.545 1.276,1.763 0.727,2.71c-1.999,3.465 -4.023,6.901 -6.103,10.299c-0.38,0.612 -1.035,0.951 -1.699,0.951Zm-122.032,4.272c-1.027,0 -1.897,-0.79 -1.978,-1.833c-0.085,-1.091 0.727,-2.051 1.826,-2.135c1.834,-0.143 3.673,-0.241 5.511,-0.3c1.627,-0.055 3.28,-0.084 4.945,-0.084l1.631,0.012c1.095,0.013 1.974,0.913 1.961,2.007c-0.013,1.099 -0.977,1.877 -2.008,1.97l-1.601,-0.013c-1.602,0 -3.212,0.025 -4.797,0.08c-1.779,0.055 -3.558,0.148 -5.333,0.288l-0.157,0.008Zm35.653,1.683l-0.322,-0.022c-3.841,-0.629 -7.772,-1.12 -11.685,-1.457c-1.091,-0.093 -1.902,-1.058 -1.805,-2.148c0.093,-1.095 1.027,-1.927 2.151,-1.809c4.011,0.343 8.038,0.846 11.978,1.488c1.081,0.178 1.817,1.2 1.639,2.283c-0.156,0.976 -1.001,1.665 -1.956,1.665Zm376.443,3.309c-0.52,0 -1.044,-0.208 -1.433,-0.613c-0.76,-0.79 -0.739,-2.05 0.055,-2.806c2.772,-2.663 5.431,-5.554 7.903,-8.588c0.689,-0.858 1.944,-0.976 2.794,-0.287c0.853,0.692 0.984,1.944 0.287,2.793c-2.574,3.161 -5.342,6.17 -8.233,8.943c-0.384,0.372 -0.879,0.558 -1.373,0.558Zm-435.311,0.021c-0.786,0 -1.534,-0.474 -1.847,-1.251c-0.405,-1.019 0.089,-2.177 1.107,-2.582c3.61,-1.441 7.561,-2.612 11.753,-3.483c1.066,-0.228 2.122,0.47 2.346,1.542c0.224,1.074 -0.469,2.127 -1.539,2.346c-3.963,0.824 -7.691,1.931 -11.085,3.284l-0.735,0.144Zm862.258,1.779c-0.812,0 -1.573,-0.495 -1.864,-1.297c-1.356,-3.686 -2.882,-7.328 -4.53,-10.836c-0.47,-0.99 -0.047,-2.177 0.946,-2.642c0.989,-0.465 2.177,-0.038 2.642,0.951c1.703,3.609 3.27,7.362 4.665,11.153c0.381,1.031 -0.143,2.172 -1.174,2.553l-0.685,0.118Zm-780.258,0.587l-0.638,-0.106c-3.626,-1.22 -7.425,-2.324 -11.288,-3.266c-1.065,-0.262 -1.716,-1.34 -1.458,-2.405c0.266,-1.065 1.348,-1.712 2.404,-1.458c3.973,0.976 7.878,2.109 11.61,3.369c1.039,0.346 1.602,1.474 1.251,2.514c-0.283,0.833 -1.057,1.352 -1.881,1.352Zm257.031,3.774c-0.553,0 -1.108,-0.232 -1.5,-0.68c-2.802,-3.22 -5.025,-6.791 -6.602,-10.621c-0.418,-1.014 0.064,-2.172 1.082,-2.59c1.019,-0.414 2.172,0.068 2.591,1.077c1.412,3.428 3.406,6.631 5.925,9.522c0.723,0.824 0.638,2.08 -0.19,2.802c-0.377,0.33 -0.841,0.49 -1.306,0.49l0,0Zm-206.933,4.455c-0.406,0 -0.811,-0.123 -1.163,-0.372c-0.891,-0.643 -1.094,-1.885 -0.452,-2.776c2.308,-3.196 4.54,-6.45 6.72,-9.746c0.6,-0.922 1.834,-1.171 2.747,-0.566c0.917,0.604 1.171,1.833 0.566,2.751c-2.206,3.347 -4.471,6.643 -6.808,9.885c-0.389,0.536 -0.998,0.824 -1.61,0.824Zm-28.426,1.568l-1.01,-0.275c-3.258,-1.927 -6.758,-3.732 -10.388,-5.363c-1.002,-0.444 -1.449,-1.623 -0.997,-2.625c0.443,-1.001 1.622,-1.445 2.624,-0.997c3.766,1.691 7.396,3.559 10.786,5.562c0.942,0.557 1.259,1.775 0.701,2.722c-0.372,0.629 -1.035,0.976 -1.716,0.976Zm-122.886,1.513c-0.439,0 -0.887,-0.148 -1.255,-0.452c-0.849,-0.694 -0.972,-1.944 -0.279,-2.794c2.616,-3.191 5.68,-6.031 9.112,-8.444c0.9,-0.629 2.138,-0.41 2.768,0.486c0.63,0.896 0.414,2.134 -0.481,2.768c-3.137,2.202 -5.939,4.797 -8.322,7.709c-0.398,0.478 -0.964,0.727 -1.543,0.727Zm435.404,0.418c-0.706,0 -1.382,-0.372 -1.741,-1.036c-0.529,-0.959 -0.178,-2.168 0.781,-2.691c3.364,-1.843 6.661,-3.956 9.793,-6.281c0.887,-0.646 2.125,-0.469 2.781,0.415c0.655,0.879 0.469,2.125 -0.41,2.781c-3.28,2.426 -6.728,4.636 -10.253,6.567l-0.951,0.245Zm-57.511,5.106l-0.693,-0.127c-3.994,-1.488 -7.7,-3.343 -11.03,-5.511c-0.921,-0.6 -1.175,-1.835 -0.579,-2.747c0.604,-0.921 1.83,-1.175 2.747,-0.584c3.085,2.012 6.529,3.732 10.249,5.118c1.026,0.385 1.546,1.53 1.17,2.553c-0.3,0.803 -1.052,1.298 -1.864,1.298Zm35.222,3.046c-0.943,0 -1.784,-0.671 -1.953,-1.635c-0.194,-1.082 0.524,-2.113 1.606,-2.303c2.891,-0.52 5.714,-1.23 8.385,-2.122c0.909,-0.308 1.826,-0.634 2.73,-0.972c1.032,-0.376 2.172,0.135 2.561,1.162c0.385,1.027 -0.14,2.173 -1.162,2.557c-0.951,0.355 -1.906,0.698 -2.869,1.019c-2.857,0.955 -5.862,1.716 -8.947,2.265l-0.351,0.029Zm-11.855,1.04l-0.038,0c-4.086,0 -8.182,-0.346 -12.167,-1.035c-1.082,-0.186 -1.809,-1.217 -1.623,-2.295c0.186,-1.086 1.234,-1.813 2.295,-1.623c3.769,0.651 7.636,0.981 11.495,0.981c1.099,0 2.003,0.887 2.003,1.986c0,1.099 -0.87,1.986 -1.965,1.986Zm486.469,1.467c-0.938,0 -1.771,-0.672 -1.952,-1.632c-0.702,-3.845 -1.577,-7.695 -2.599,-11.452c-0.292,-1.057 0.329,-2.147 1.39,-2.439c1.078,-0.279 2.156,0.338 2.438,1.394c1.057,3.864 1.958,7.827 2.685,11.783c0.198,1.082 -0.52,2.117 -1.598,2.312l-0.364,0.034l0,0Zm-751.321,4.429c-0.477,0 -0.951,-0.169 -1.331,-0.507c-0.815,-0.736 -0.883,-1.991 -0.152,-2.806c0.753,-0.833 1.496,-1.674 2.236,-2.532c-1.775,-1.695 -3.665,-3.334 -5.659,-4.898c-0.862,-0.677 -1.011,-1.923 -0.338,-2.786c0.684,-0.87 1.935,-1.009 2.794,-0.337c2.028,1.593 3.963,3.262 5.785,4.991c0.942,-1.133 1.885,-2.283 2.815,-3.445c0.684,-0.853 1.936,-0.993 2.793,-0.308c0.854,0.685 0.994,1.935 0.308,2.789c-1.018,1.276 -2.053,2.54 -3.093,3.787l0.397,0.427c0.749,0.807 0.702,2.062 -0.097,2.81c-0.811,0.748 -2.054,0.702 -2.81,-0.101l-0.089,-0.097c-0.697,0.794 -1.39,1.58 -2.084,2.358c-0.392,0.435 -0.938,0.655 -1.475,0.655Zm-144.778,6.318c-1.098,0 -1.986,-0.892 -1.986,-1.991c0,-4.137 0.82,-8.296 2.43,-12.353c0.406,-1.023 1.56,-1.513 2.582,-1.111c1.019,0.401 1.513,1.559 1.112,2.578c-1.429,3.592 -2.151,7.256 -2.151,10.891c0,1.094 -0.892,1.986 -1.987,1.986Zm127.658,10.244c-0.57,0 -1.137,-0.245 -1.529,-0.714c-0.698,-0.845 -0.588,-2.1 0.257,-2.798c2.988,-2.485 5.929,-5.13 8.753,-7.864c0.79,-0.766 2.049,-0.74 2.81,0.041c0.761,0.787 0.744,2.046 -0.042,2.811c-2.899,2.802 -5.917,5.515 -8.977,8.064c-0.376,0.308 -0.828,0.46 -1.272,0.46Zm34.985,1.099c-0.786,0 -1.534,-0.473 -1.847,-1.251c-1.407,-3.537 -3.182,-6.977 -5.27,-10.236c-0.596,-0.917 -0.33,-2.151 0.596,-2.742c0.921,-0.596 2.147,-0.33 2.747,0.595c2.227,3.47 4.121,7.139 5.621,10.913c0.401,1.018 -0.093,2.176 -1.112,2.578l-0.735,0.143Zm735.676,1.615c-1.091,0 -1.978,-0.883 -1.982,-1.978c-0.017,-3.871 -0.211,-7.814 -0.58,-11.724c-0.101,-1.094 0.702,-2.062 1.793,-2.168c1.06,-0.11 2.057,0.702 2.163,1.792c0.376,4.032 0.58,8.098 0.592,12.083c0.004,1.095 -0.879,1.986 -1.978,1.99l-0.008,0.005Zm-489.749,0.173l-0.524,-0.068c-2.637,-0.718 -5.338,-1.2 -8.013,-1.428c-1.103,-0.093 -2.198,-0.152 -3.288,-0.182c-1.099,-0.025 -1.966,-0.942 -1.936,-2.037c0.03,-1.095 1.01,-1.851 2.037,-1.935c1.175,0.029 2.346,0.093 3.52,0.194c2.917,0.249 5.854,0.769 8.728,1.555c1.056,0.292 1.678,1.382 1.39,2.443c-0.241,0.883 -1.043,1.458 -1.914,1.458Zm-35.243,1.881c-0.853,0 -1.643,-0.55 -1.906,-1.408c-0.317,-1.052 0.279,-2.163 1.327,-2.48c4.087,-1.239 8.072,-2.173 11.863,-2.781c1.095,-0.182 2.096,0.566 2.274,1.648c0.173,1.086 -0.566,2.1 -1.648,2.278c-3.605,0.575 -7.425,1.471 -11.335,2.658l-0.575,0.085Zm-364.647,6.584c-0.541,0 -1.087,-0.224 -1.48,-0.664c-2.92,-3.27 -5.185,-6.825 -6.728,-10.557c-0.422,-1.014 0.06,-2.176 1.074,-2.594c1.01,-0.415 2.176,0.059 2.595,1.077c1.373,3.318 3.402,6.492 6.022,9.429c0.731,0.82 0.659,2.075 -0.156,2.806c-0.38,0.334 -0.854,0.503 -1.327,0.503Zm342.557,2.308c-0.743,0 -1.454,-0.415 -1.796,-1.129c-0.473,-0.989 -0.051,-2.176 0.938,-2.65l1.327,-0.634c3.504,-1.643 6.661,-3.046 9.657,-4.272c1.006,-0.415 2.177,0.072 2.591,1.081c0.418,1.023 -0.072,2.182 -1.086,2.595c-2.933,1.201 -6.031,2.574 -9.471,4.197l-1.306,0.617l-0.854,0.195Zm-243.068,0.029c-0.684,0 -1.348,-0.354 -1.72,-0.985c-0.549,-0.95 -0.228,-2.167 0.714,-2.717c3.335,-1.944 6.657,-4.082 9.89,-6.352c0.9,-0.63 2.134,-0.41 2.768,0.477c0.629,0.901 0.414,2.139 -0.482,2.777c-3.322,2.333 -6.745,4.531 -10.168,6.53l-1.002,0.27Zm320.784,1.01c-0.524,0 -1.048,-0.207 -1.442,-0.612c-2.518,-2.646 -5.527,-4.975 -8.938,-6.923c-0.95,-0.545 -1.284,-1.758 -0.739,-2.713c0.545,-0.951 1.766,-1.269 2.713,-0.736c3.74,2.143 7.054,4.704 9.847,7.629c0.752,0.794 0.723,2.049 -0.072,2.806c-0.385,0.368 -0.875,0.549 -1.369,0.549Zm-342.38,8.998c-0.82,0 -1.589,-0.512 -1.876,-1.331c-0.36,-1.036 0.189,-2.173 1.225,-2.532c3.622,-1.259 7.274,-2.739 10.853,-4.408c0.997,-0.469 2.177,-0.038 2.637,0.964c0.465,0.993 0.034,2.172 -0.959,2.637c-3.698,1.724 -7.477,3.258 -11.229,4.564l-0.651,0.106Zm80.67,0.642c-1.048,0 -1.923,-0.815 -1.986,-1.872c-0.093,-1.648 -0.216,-3.296 -0.351,-4.945c-0.19,-2.218 -0.49,-4.45 -0.904,-6.626c-0.203,-1.083 0.507,-2.122 1.58,-2.321c1.065,-0.198 2.122,0.499 2.325,1.581c0.439,2.307 0.76,4.678 0.959,7.037c0.144,1.677 0.262,3.36 0.359,5.046c0.063,1.094 -0.773,2.033 -1.868,2.096l-0.114,0.004Zm-139.013,0.313l-0.748,-0.144c-3.902,-1.593 -7.561,-3.52 -10.883,-5.739c-0.913,-0.604 -1.158,-1.838 -0.55,-2.751c0.609,-0.913 1.843,-1.162 2.752,-0.553c3.097,2.066 6.525,3.87 10.181,5.358c1.014,0.418 1.505,1.577 1.086,2.595c-0.313,0.77 -1.052,1.234 -1.838,1.234Zm301.972,0.22c-0.676,0 -1.336,-0.347 -1.711,-0.972c-0.558,-0.943 -0.25,-2.164 0.693,-2.722c3.363,-2.003 6.888,-3.985 10.472,-5.896c0.96,-0.515 2.177,-0.156 2.692,0.816c0.516,0.972 0.144,2.177 -0.824,2.692c-3.533,1.877 -7.003,3.829 -10.308,5.799l-1.014,0.283Zm566.045,1.555l-0.363,-0.03c-1.083,-0.202 -1.797,-1.238 -1.598,-2.32c0.697,-3.786 1.226,-7.696 1.568,-11.614c0.097,-1.098 1.082,-1.88 2.151,-1.813c1.095,0.098 1.902,1.061 1.809,2.152c-0.355,4.049 -0.897,8.085 -1.614,11.998c-0.178,0.955 -1.011,1.627 -1.953,1.627l0,0Zm-145.518,2.008l-0.706,-0.127c-3.397,-1.281 -6.897,-1.932 -10.396,-1.932c-1.09,0 -2.257,-0.875 -2.27,-1.965c-0.012,-1.086 0.579,-1.978 1.665,-1.999l0.305,-0.004l0.034,0c4.264,0 8.224,0.735 12.07,2.181c1.022,0.389 1.542,1.534 1.154,2.565c-0.296,0.794 -1.057,1.281 -1.856,1.281Zm-687.356,0.494c-1.006,0 -1.872,-0.761 -1.974,-1.783c-0.113,-1.091 0.681,-2.071 1.776,-2.177c3.807,-0.393 7.683,-1.031 11.507,-1.897c1.061,-0.262 2.139,0.418 2.38,1.496c0.245,1.064 -0.427,2.134 -1.496,2.375c-3.985,0.909 -8.018,1.572 -11.99,1.978l-0.203,0.008Zm-11.901,0.44l-0.055,0c-1.72,-0.051 -3.436,-0.148 -5.156,-0.3c-2.324,-0.203 -4.687,-0.546 -7.024,-1.019c-1.073,-0.216 -1.771,-1.259 -1.551,-2.337c0.22,-1.074 1.26,-1.779 2.342,-1.555c2.188,0.439 4.399,0.76 6.58,0.951c1.64,0.143 3.284,0.241 4.919,0.287c1.094,0.025 1.961,0.942 1.931,2.037c-0.033,1.082 -0.913,1.936 -1.986,1.936Zm666.329,6.322c-0.508,0 -1.011,-0.19 -1.395,-0.571c-0.782,-0.768 -0.79,-2.028 -0.017,-2.81c3.069,-3.119 6.538,-5.541 10.312,-7.21c0.993,-0.452 2.181,0.009 2.62,1.014c0.449,1.002 -0.008,2.173 -1.01,2.621c-3.313,1.462 -6.373,3.605 -9.094,6.36c-0.385,0.397 -0.901,0.596 -1.416,0.596l0,0Zm-279.827,0.461c-1.082,0 -1.97,-0.875 -1.987,-1.957c-0.033,-2.075 -0.295,-4.171 -0.777,-6.242c-0.368,-1.56 -0.875,-3.111 -1.505,-4.602c-0.431,-1.011 0.038,-2.177 1.052,-2.604c1.002,-0.435 2.173,0.038 2.6,1.048c0.722,1.699 1.305,3.465 1.72,5.249c0.549,2.35 0.845,4.733 0.878,7.087c0.017,1.099 -0.853,1.999 -1.952,2.021l-0.029,0Zm-127.556,1.999c-0.596,0 -1.188,-0.271 -1.581,-0.782c-0.664,-0.875 -0.495,-2.122 0.38,-2.79c3.123,-2.366 6.42,-4.716 9.801,-6.981c0.905,-0.618 2.151,-0.368 2.751,0.545c0.617,0.913 0.372,2.143 -0.541,2.751c-3.318,2.227 -6.546,4.53 -9.606,6.851c-0.363,0.274 -0.782,0.406 -1.204,0.406Zm459.011,4.602c-0.579,0 -1.158,-0.258 -1.552,-0.748c-2.497,-3.123 -5.21,-5.849 -8.076,-8.098c-0.866,-0.68 -1.014,-1.931 -0.338,-2.789c0.676,-0.866 1.927,-1.001 2.789,-0.338c3.107,2.439 6.048,5.385 8.732,8.748c0.685,0.859 0.541,2.105 -0.317,2.79c-0.364,0.292 -0.803,0.435 -1.238,0.435Zm-602.289,5.41l-0.136,-0.005c-1.09,-0.071 -1.927,-1.022 -1.851,-2.117c0.258,-3.922 0.406,-7.89 0.423,-11.787c0.004,-1.09 0.892,-1.974 1.986,-1.974l0.009,0c1.098,0.009 1.982,0.901 1.978,1.999c-0.017,3.977 -0.161,8.022 -0.432,12.028c-0.067,1.053 -0.942,1.856 -1.977,1.856Zm722.507,1.124l-0.749,-0.144c-1.014,-0.41 -1.508,-1.564 -1.098,-2.59c1.441,-3.559 2.722,-7.282 3.808,-11.069c0.309,-1.053 1.39,-1.673 2.468,-1.356c1.048,0.303 1.656,1.406 1.357,2.459c-1.129,3.913 -2.456,7.768 -3.948,11.457c-0.312,0.778 -1.056,1.243 -1.838,1.243Zm-597.192,4.505c-0.508,0 -1.015,-0.195 -1.403,-0.575c-0.782,-0.777 -0.782,-2.037 -0.009,-2.811c2.764,-2.776 5.727,-5.54 8.816,-8.232c0.828,-0.727 2.087,-0.63 2.802,0.195c0.723,0.824 0.63,2.079 -0.195,2.801c-3.017,2.625 -5.912,5.334 -8.604,8.039c-0.389,0.388 -0.901,0.583 -1.407,0.583Zm414.538,2.794l-0.401,-0.043c-1.078,-0.22 -1.767,-1.272 -1.547,-2.345c0.845,-4.129 2.219,-8.072 4.091,-11.733c0.494,-0.98 1.694,-1.364 2.671,-0.866c0.972,0.495 1.365,1.695 0.866,2.671c-1.707,3.339 -2.962,6.948 -3.732,10.722c-0.194,0.943 -1.023,1.594 -1.948,1.594Zm-276.666,1.69c-0.406,0 -0.807,-0.123 -1.158,-0.376c-0.888,-0.638 -1.094,-1.881 -0.456,-2.772c2.362,-3.28 4.171,-6.636 5.384,-9.978c0.372,-1.032 1.509,-1.56 2.544,-1.189c1.027,0.377 1.56,1.518 1.183,2.549c-1.331,3.677 -3.317,7.362 -5.882,10.938c-0.389,0.541 -1.002,0.828 -1.615,0.828Zm350.169,5.447c-0.842,0 -1.624,-0.536 -1.894,-1.386c-1.158,-3.668 -2.658,-7.26 -4.446,-10.671c-0.511,-0.964 -0.135,-2.168 0.837,-2.675c0.959,-0.507 2.173,-0.139 2.679,0.833c1.903,3.613 3.491,7.421 4.721,11.317c0.33,1.045 -0.249,2.16 -1.298,2.489l-0.599,0.093l0,0Zm97.951,6.551c-0.389,0 -0.778,-0.114 -1.12,-0.342c-0.909,-0.625 -1.137,-1.864 -0.52,-2.769c2.215,-3.232 4.252,-6.596 6.06,-9.99c0.52,-0.968 1.729,-1.327 2.693,-0.82c0.963,0.516 1.331,1.72 0.815,2.688c-1.876,3.525 -3.989,7.015 -6.289,10.371c-0.388,0.558 -1.006,0.862 -1.639,0.862l0,0Zm-714.325,1.521l-0.372,-0.038c-1.081,-0.202 -1.792,-1.242 -1.584,-2.324c0.735,-3.859 1.352,-7.776 1.851,-11.647c0.139,-1.086 1.149,-1.873 2.223,-1.72c1.09,0.139 1.859,1.137 1.72,2.223c-0.503,3.947 -1.145,7.953 -1.889,11.888c-0.182,0.955 -1.015,1.618 -1.949,1.618Zm112.942,0.161c-0.397,0 -0.803,-0.118 -1.15,-0.367c-0.891,-0.634 -1.102,-1.877 -0.464,-2.769c2.294,-3.229 4.792,-6.436 7.425,-9.534c0.71,-0.837 1.961,-0.942 2.794,-0.233c0.841,0.711 0.942,1.966 0.232,2.802c-2.553,3.01 -4.983,6.133 -7.219,9.269c-0.388,0.545 -0.993,0.832 -1.618,0.832Zm136.11,2.718c-0.626,0 -1.239,-0.296 -1.623,-0.845c-0.634,-0.896 -0.418,-2.13 0.477,-2.769c3.306,-2.324 6.344,-4.788 9.04,-7.315c0.799,-0.748 2.054,-0.714 2.811,0.084c0.748,0.799 0.714,2.059 -0.089,2.811c-2.827,2.658 -6.014,5.245 -9.471,7.674c-0.35,0.241 -0.748,0.36 -1.145,0.36Zm295.599,5.354c-0.802,0 -1.551,-0.486 -1.855,-1.271c-0.245,-0.643 -0.481,-1.298 -0.701,-1.949c-1.09,-3.22 -1.763,-6.661 -2.012,-10.214c-0.081,-1.096 0.744,-2.046 1.838,-2.122c1.002,-0.076 2.05,0.739 2.122,1.843c0.228,3.224 0.837,6.322 1.813,9.217c0.207,0.608 0.423,1.208 0.646,1.8c0.393,1.027 -0.118,2.172 -1.141,2.565l-0.71,0.131l0,0Zm-513.427,1.336l-0.407,-0.042c-4.065,-0.85 -7.843,-1.429 -11.545,-1.758c-1.095,-0.093 -1.898,-1.066 -1.801,-2.16c0.098,-1.095 1.074,-1.881 2.156,-1.8c3.858,0.346 7.784,0.946 12.002,1.83c1.074,0.228 1.763,1.276 1.534,2.354c-0.194,0.929 -1.018,1.576 -1.939,1.576l0,0Zm-58.893,3.617c-0.871,0 -1.665,-0.574 -1.91,-1.445c-0.301,-1.06 0.317,-2.151 1.369,-2.451c3.914,-1.095 7.848,-2.063 11.711,-2.857c1.052,-0.241 2.126,0.461 2.345,1.538c0.229,1.074 -0.46,2.126 -1.538,2.35c-3.774,0.782 -7.62,1.72 -11.436,2.798l-0.541,0.067Zm255.801,1.053c-0.769,0 -1.5,-0.448 -1.822,-1.204c-0.435,-1.011 0.034,-2.181 1.049,-2.608c1.187,-0.507 2.374,-1.027 3.562,-1.556c2.392,-1.064 4.759,-2.235 7.037,-3.469c0.968,-0.516 2.172,-0.165 2.692,0.803c0.524,0.963 0.165,2.172 -0.794,2.696c-2.376,1.277 -4.835,2.489 -7.316,3.601c-1.209,0.536 -2.418,1.065 -3.622,1.581l-0.786,0.156l0,0Zm391.429,1.225l-0.029,0c-1.095,-0.012 -1.97,-0.921 -1.953,-2.016l0.005,-0.739c0.004,-3.601 -0.225,-7.252 -0.676,-10.874c-0.136,-1.094 0.637,-2.079 1.728,-2.219c1.065,-0.165 2.079,0.643 2.215,1.724c0.469,3.787 0.705,7.612 0.701,11.373l-0.004,0.795c-0.013,1.09 -0.905,1.956 -1.987,1.956l0,0Zm-565.44,0.685l-0.638,-0.106c-3.757,-1.285 -7.506,-2.51 -11.267,-3.613c-1.052,-0.304 -1.661,-1.412 -1.349,-2.46c0.305,-1.056 1.395,-1.665 2.465,-1.348c3.812,1.121 7.619,2.359 11.431,3.656c1.04,0.359 1.594,1.487 1.243,2.523c-0.287,0.829 -1.057,1.348 -1.885,1.348Zm644.769,0.44c-0.524,0 -1.048,-0.207 -1.437,-0.622c-0.76,-0.786 -0.73,-2.045 0.068,-2.801c2.823,-2.697 5.528,-5.558 8.051,-8.504c0.718,-0.837 1.969,-0.93 2.802,-0.219c0.832,0.714 0.93,1.969 0.216,2.801c-2.608,3.052 -5.41,6.006 -8.331,8.791c-0.384,0.372 -0.878,0.554 -1.369,0.554l0,0Zm-597.796,4.222l-0.816,-0.178c-1.002,-0.452 -1.445,-1.623 -0.997,-2.624c1.656,-3.681 3.503,-7.312 5.502,-10.79c0.55,-0.946 1.758,-1.285 2.709,-0.731c0.955,0.545 1.281,1.762 0.735,2.713c-1.931,3.364 -3.727,6.876 -5.325,10.439c-0.329,0.735 -1.056,1.171 -1.808,1.171l0,0Zm-151.275,0.19c-0.781,0 -1.521,-0.461 -1.838,-1.23c-0.414,-1.01 0.068,-2.177 1.082,-2.591c3.732,-1.542 7.51,-2.983 11.251,-4.281c1.031,-0.355 2.168,0.186 2.527,1.226c0.358,1.035 -0.186,2.168 -1.226,2.527c-3.66,1.272 -7.375,2.684 -11.039,4.197l-0.757,0.152l0,0Zm255.933,1.411c-0.85,0 -1.636,-0.545 -1.898,-1.403c-0.321,-1.048 0.266,-2.159 1.319,-2.48c3.753,-1.159 7.522,-2.422 11.199,-3.766c1.015,-0.372 2.173,0.156 2.549,1.192c0.371,1.027 -0.161,2.164 -1.188,2.544c-3.74,1.361 -7.577,2.654 -11.398,3.82l-0.583,0.093Zm-211.595,0.689l-0.6,-0.093c-1.048,-0.334 -1.623,-1.445 -1.289,-2.493c1.188,-3.749 2.273,-7.565 3.228,-11.348l0.394,-0.777c-1.12,0.097 -2.067,-0.647 -2.202,-1.729c-0.136,-1.086 0.638,-2.079 1.728,-2.214c4.083,-0.507 8.144,-0.824 12.066,-0.943c1.061,-0.042 2.016,0.828 2.046,1.927c0.029,1.095 -0.833,2.012 -1.927,2.05c-2.925,0.08 -5.934,0.283 -8.964,0.596c0.608,0.473 0.913,1.272 0.71,2.058c-0.972,3.868 -2.084,7.76 -3.297,11.585c-0.266,0.845 -1.052,1.381 -1.893,1.381Zm82.492,0.862l-0.617,-0.097c-3.791,-1.251 -7.561,-2.57 -11.314,-3.888c-1.035,-0.367 -1.576,-1.504 -1.213,-2.535c0.368,-1.04 1.526,-1.577 2.536,-1.214c3.723,1.31 7.472,2.621 11.229,3.863c1.044,0.343 1.615,1.467 1.268,2.506c-0.279,0.837 -1.052,1.365 -1.889,1.365l0,0Zm481.313,3.8c-0.494,0 -0.985,-0.182 -1.369,-0.545c-3.068,-2.921 -5.756,-6.061 -8.017,-9.34c-0.618,-0.905 -0.385,-2.143 0.519,-2.764c0.905,-0.621 2.139,-0.389 2.76,0.511c2.096,3.056 4.615,5.985 7.476,8.715c0.795,0.76 0.828,2.015 0.068,2.81c-0.389,0.414 -0.913,0.613 -1.437,0.613l0,0Zm-375.319,0.473c-0.93,0 -1.759,-0.655 -1.944,-1.597c-0.22,-1.078 0.477,-2.122 1.559,-2.338c3.871,-0.773 7.751,-1.652 11.529,-2.603c1.061,-0.257 2.143,0.38 2.413,1.446c0.267,1.06 -0.38,2.142 -1.441,2.413c-3.841,0.963 -7.788,1.851 -11.727,2.641l-0.389,0.038Zm-254.369,2.963c-0.71,0 -1.399,-0.381 -1.753,-1.044c-0.52,-0.968 -0.157,-2.176 0.811,-2.692c3.546,-1.902 7.159,-3.724 10.734,-5.414c0.99,-0.465 2.173,-0.051 2.642,0.942c0.473,0.993 0.046,2.181 -0.943,2.646c-3.512,1.669 -7.066,3.457 -10.556,5.325l-0.935,0.237l0,0Zm751.854,0.034c-0.655,0 -1.297,-0.326 -1.682,-0.926c-0.583,-0.925 -0.309,-2.155 0.617,-2.743c3.313,-2.096 6.534,-4.365 9.585,-6.745c0.853,-0.672 2.109,-0.52 2.789,0.343c0.676,0.866 0.52,2.117 -0.346,2.789c-3.149,2.459 -6.483,4.805 -9.902,6.973l-1.061,0.309l0,0Zm-521.061,0.486c-1.006,0 -1.872,-0.77 -1.969,-1.793c-0.11,-1.094 0.693,-2.062 1.783,-2.171c3.884,-0.377 7.832,-0.863 11.732,-1.433c1.065,-0.169 2.097,0.583 2.253,1.669c0.164,1.086 -0.583,2.096 -1.67,2.253c-3.968,0.591 -7.979,1.086 -11.93,1.47l-0.199,0.005Zm-35.708,0.857l-0.097,-0.003c-3.964,-0.199 -7.995,-0.495 -11.985,-0.884c-1.091,-0.106 -1.889,-1.082 -1.784,-2.176c0.106,-1.086 1.103,-1.843 2.173,-1.78c3.921,0.385 7.894,0.681 11.791,0.875c1.094,0.055 1.939,0.985 1.884,2.079c-0.05,1.065 -0.933,1.889 -1.982,1.889Zm12.054,0.301l-0.131,-3.973c4.057,-0.004 7.992,-0.106 11.812,-0.283c1.213,-0.169 2.029,0.79 2.084,1.885c0.051,1.099 -0.795,2.028 -1.89,2.079c-3.888,0.19 -7.881,0.287 -11.875,0.292Zm480.946,6.141l-0.508,-0.064c-1.061,-0.283 -1.695,-1.365 -1.42,-2.43c1.006,-3.787 1.775,-7.637 2.303,-11.436c0.153,-1.087 1.188,-1.818 2.24,-1.7c1.087,0.148 1.848,1.154 1.695,2.24c-0.545,3.961 -1.348,7.971 -2.392,11.914c-0.236,0.888 -1.04,1.476 -1.918,1.476l0,0Zm-38.696,2.007l-0.845,-0.191c-3.749,-1.762 -7.328,-3.774 -10.638,-5.984c-0.912,-0.604 -1.162,-1.838 -0.553,-2.751c0.613,-0.917 1.851,-1.158 2.756,-0.554c3.148,2.1 6.558,4.015 10.125,5.697c0.994,0.465 1.42,1.648 0.951,2.642c-0.338,0.714 -1.052,1.141 -1.796,1.141l0,0Zm81.212,0.93c-0.795,0 -1.548,-0.482 -1.856,-1.272c-0.397,-1.023 0.114,-2.177 1.137,-2.57c3.622,-1.399 7.218,-3 10.705,-4.763c0.972,-0.49 2.18,-0.102 2.671,0.879c0.494,0.98 0.105,2.172 -0.875,2.667c-3.605,1.817 -7.324,3.478 -11.069,4.928l-0.713,0.131l0,0Zm-565.281,1.432l-0.427,-0.046c-1.069,-0.237 -1.753,-1.298 -1.512,-2.367c0.857,-3.892 1.944,-7.827 3.224,-11.677l0.038,-0.11c-2.367,-0.524 -4.805,-1.128 -7.375,-1.826c-1.056,-0.291 -1.686,-1.381 -1.394,-2.438c0.283,-1.053 1.365,-1.686 2.434,-1.395c4.078,1.107 7.818,1.97 11.453,2.641c1.078,0.199 1.792,1.235 1.589,2.313c-0.199,1.081 -1.268,1.783 -2.312,1.592l-0.562,-0.101l-0.097,0.575c-1.239,3.723 -2.286,7.518 -3.119,11.28c-0.207,0.925 -1.023,1.559 -1.94,1.559l0,0Zm-185.756,0.077c-0.638,0 -1.272,-0.309 -1.652,-0.88c-0.608,-0.913 -0.364,-2.147 0.545,-2.759c3.288,-2.198 6.703,-4.358 10.156,-6.433c0.938,-0.575 2.159,-0.253 2.722,0.685c0.566,0.938 0.262,2.155 -0.681,2.721c-3.398,2.042 -6.754,4.167 -9.987,6.332l-1.103,0.334l0,0Zm77.763,1.871l-0.828,-0.177c-0.994,-0.461 -1.437,-1.636 -0.981,-2.633c1.627,-3.559 3.166,-7.218 4.577,-10.878c0.397,-1.023 1.551,-1.535 2.566,-1.141c1.022,0.397 1.534,1.542 1.14,2.565c-1.436,3.736 -3.008,7.472 -4.669,11.102c-0.33,0.732 -1.053,1.162 -1.805,1.162l0,0Zm614.747,2.832l-0.359,-0.034c-2.768,-0.494 -5.553,-1.124 -8.279,-1.855c-1.187,-0.313 -2.366,-0.659 -3.533,-1.031c-1.048,-0.33 -1.627,-1.446 -1.297,-2.494c0.329,-1.044 1.449,-1.618 2.489,-1.293c1.116,0.351 2.244,0.681 3.372,0.985c2.616,0.702 5.291,1.301 7.954,1.779c1.078,0.194 1.797,1.226 1.602,2.308c-0.177,0.955 -1.01,1.635 -1.949,1.635l0,0Zm35.569,0.089c-0.951,0 -1.793,-0.685 -1.953,-1.661c-0.182,-1.077 0.549,-2.109 1.631,-2.286c3.821,-0.634 7.667,-1.479 11.433,-2.519c1.077,-0.283 2.151,0.334 2.45,1.39c0.288,1.057 -0.337,2.152 -1.394,2.443c-3.901,1.069 -7.882,1.948 -11.833,2.608l-0.334,0.025l0,0Zm-746.951,9.745c-0.529,0 -1.053,-0.206 -1.442,-0.625c-0.756,-0.794 -0.722,-2.054 0.077,-2.806c2.666,-2.519 5.713,-5.071 9.306,-7.789c0.874,-0.655 2.125,-0.486 2.78,0.389c0.664,0.875 0.49,2.121 -0.384,2.785c-3.478,2.629 -6.416,5.084 -8.973,7.501c-0.384,0.368 -0.875,0.545 -1.364,0.545Zm718.765,3.17l-0.917,-0.224c-0.976,-0.507 -1.357,-1.703 -0.845,-2.679c1.648,-3.187 3.152,-6.453 4.463,-9.72c-0.178,-0.322 -0.271,-0.698 -0.245,-1.086c0.059,-1.099 1.001,-2.017 2.096,-1.873c3.888,0.228 7.789,0.228 11.681,0.008c1.082,-0.118 2.037,0.782 2.092,1.877c0.063,1.09 -0.773,2.033 -1.872,2.092c-3.305,0.19 -6.606,0.228 -9.919,0.097c-1.399,3.508 -3.001,7.02 -4.772,10.435c-0.355,0.684 -1.048,1.073 -1.762,1.073l0,0Zm-633.351,5.178l-1.044,-0.292c-0.934,-0.575 -1.226,-1.805 -0.646,-2.739c2.045,-3.318 4.019,-6.758 5.87,-10.219c0.528,-0.976 1.728,-1.335 2.688,-0.824c0.972,0.52 1.34,1.725 0.824,2.692c-1.893,3.537 -3.91,7.054 -6.002,10.443c-0.375,0.605 -1.026,0.939 -1.69,0.939l0,0Zm116.729,0.692c-1.086,0 -1.97,-0.862 -1.982,-1.952l-0.009,-1.352c0,-3.516 0.195,-7.155 0.575,-10.79c0.118,-1.086 1.057,-1.885 2.185,-1.766c1.09,0.114 1.88,1.09 1.767,2.185c-0.368,3.499 -0.554,6.989 -0.554,10.391l0.004,1.273c0.021,1.094 -0.849,1.995 -1.948,2.011l-0.038,0Zm-215.897,10.194l-0.723,-0.131c-1.027,-0.41 -1.526,-1.559 -1.124,-2.578c0.794,-2.037 1.749,-4.015 2.835,-5.904c0.951,-1.644 2.033,-3.305 3.22,-4.915c0.651,-0.883 1.89,-1.082 2.778,-0.423c0.883,0.651 1.073,1.889 0.422,2.781c-1.095,1.484 -2.096,3.018 -2.975,4.539c-0.989,1.716 -1.86,3.525 -2.582,5.372c-0.309,0.781 -1.057,1.259 -1.851,1.259l0,0Zm719.55,3.88c-0.431,0 -0.871,-0.14 -1.234,-0.423c-0.858,-0.684 -1.006,-1.927 -0.321,-2.793c2.459,-3.106 4.763,-6.31 6.85,-9.513c0.604,-0.926 1.843,-1.171 2.751,-0.584c0.918,0.596 1.18,1.826 0.579,2.747c-2.155,3.314 -4.53,6.61 -7.07,9.817c-0.389,0.491 -0.968,0.749 -1.555,0.749l0,0Zm-634.161,4.67c-0.444,0 -0.888,-0.144 -1.251,-0.448c-0.854,-0.689 -0.985,-1.936 -0.296,-2.794c2.468,-3.034 4.869,-6.195 7.125,-9.386c0.63,-0.892 1.873,-1.112 2.768,-0.478c0.896,0.638 1.108,1.877 0.474,2.777c-2.304,3.254 -4.759,6.487 -7.278,9.594c-0.393,0.481 -0.968,0.735 -1.542,0.735l0,0Zm133.912,4.784c-0.866,0 -1.66,-0.567 -1.91,-1.437c-1.107,-3.855 -1.965,-7.865 -2.544,-11.918c-0.152,-1.086 0.6,-2.096 1.686,-2.252c1.053,-0.136 2.092,0.595 2.249,1.69c0.557,3.871 1.369,7.7 2.425,11.381c0.305,1.056 -0.304,2.155 -1.36,2.456l-0.546,0.08l0,0Zm483.879,7.831c-0.55,0 -1.095,-0.224 -1.484,-0.663c-0.726,-0.82 -0.659,-2.071 0.166,-2.802c2.932,-2.617 5.772,-5.363 8.439,-8.174c0.752,-0.795 2.012,-0.82 2.802,-0.072c0.799,0.757 0.828,2.008 0.072,2.807c-2.738,2.886 -5.655,5.718 -8.677,8.401c-0.376,0.338 -0.849,0.503 -1.318,0.503l0,0Zm-704.368,2.168c-0.828,0 -1.601,-0.52 -1.884,-1.348c-1.078,-3.186 -1.627,-6.618 -1.627,-10.194c0,-0.773 0.025,-1.555 0.076,-2.333c0.071,-1.094 1.023,-1.965 2.113,-1.851c1.095,0.077 1.923,1.019 1.851,2.114c-0.047,0.684 -0.068,1.373 -0.068,2.066c0,3.149 0.478,6.145 1.42,8.921c0.351,1.036 -0.207,2.169 -1.242,2.524l-0.639,0.101Zm70.308,2.608c-0.541,0 -1.086,-0.224 -1.479,-0.655c-0.735,-0.816 -0.668,-2.071 0.144,-2.806c2.641,-2.384 5.278,-4.988 8.055,-7.967c0.74,-0.811 2.13,-1.019 2.941,-0.279c0.812,0.735 1.006,1.851 0.267,2.659l-0.309,0.337c-2.853,3.056 -5.566,5.744 -8.292,8.2c-0.38,0.337 -0.854,0.511 -1.327,0.511Zm159.934,9.048c-0.66,0 -1.298,-0.325 -1.678,-0.921c-2.185,-3.436 -4.133,-7.046 -5.79,-10.722c-0.449,-1.002 -0.004,-2.181 0.997,-2.629c1.002,-0.46 2.177,-0.004 2.625,0.997c1.58,3.504 3.432,6.944 5.519,10.219c0.592,0.93 0.313,2.156 -0.604,2.748l-1.069,0.308Zm455.076,0.469c-0.659,0 -1.306,-0.329 -1.686,-0.933c-0.583,-0.926 -0.296,-2.152 0.629,-2.739c3.284,-2.054 6.543,-4.294 9.687,-6.653c0.879,-0.659 2.122,-0.477 2.781,0.398c0.659,0.879 0.482,2.122 -0.397,2.785c-3.234,2.426 -6.585,4.725 -9.961,6.842l-1.053,0.3l0,0Zm-230.663,1.83c-0.782,0 -1.522,-0.469 -1.839,-1.238c-0.414,-1.019 0.072,-2.181 1.091,-2.591l1.09,-0.435c4.171,-1.614 7.586,-2.587 10.76,-3.073c1.078,-0.156 2.092,0.579 2.261,1.665c0.165,1.087 -0.575,2.097 -1.665,2.261c-2.878,0.444 -6.031,1.345 -9.915,2.849l-1.036,0.414l-0.747,0.148l0,0Zm34.566,0.896l-0.642,-0.11l-1.492,-0.511c-3.673,-1.26 -6.842,-2.346 -9.695,-3.051c-1.065,-0.263 -1.712,-1.344 -1.454,-2.405c0.266,-1.061 1.344,-1.716 2.409,-1.454c3.022,0.748 6.267,1.864 10.029,3.148l1.488,0.516c1.035,0.355 1.589,1.483 1.234,2.523c-0.279,0.824 -1.053,1.344 -1.877,1.344l0,0Zm-438.577,1.061c-0.761,0 -1.488,-0.44 -1.818,-1.175c-0.448,-1.002 0,-2.177 1.002,-2.624c3.318,-1.484 6.694,-3.403 10.033,-5.706c0.896,-0.626 2.138,-0.397 2.764,0.507c0.621,0.904 0.393,2.143 -0.512,2.769c-3.537,2.434 -7.125,4.475 -10.662,6.056l-0.807,0.173Zm-34.672,0.841l-0.807,-0.177c-4.033,-1.801 -7.523,-4.197 -10.38,-7.122c-0.77,-0.782 -0.757,-2.037 0.029,-2.81c0.782,-0.761 2.041,-0.748 2.807,0.034c2.51,2.561 5.595,4.674 9.166,6.272c1.002,0.447 1.449,1.622 1.002,2.628c-0.33,0.731 -1.052,1.175 -1.817,1.175l0,0Zm16.215,3.385c-1.66,-0.004 -3.334,-0.101 -4.978,-0.291c-1.09,-0.127 -1.872,-1.112 -1.746,-2.202c0.123,-1.091 1.116,-1.834 2.202,-1.746c3.762,0.436 7.65,0.33 11.285,-0.338c1.085,-0.165 2.113,0.52 2.311,1.598c0.199,1.077 -0.515,2.117 -1.597,2.311c-2.422,0.444 -4.941,0.668 -7.477,0.668l0,0Zm479.788,1.813l-0.541,-0.076c-3.846,-1.094 -7.679,-2.236 -11.474,-3.423c-1.048,-0.33 -1.632,-1.441 -1.306,-2.489c0.333,-1.049 1.449,-1.627 2.493,-1.302c3.766,1.179 7.557,2.312 11.373,3.394c1.057,0.304 1.665,1.398 1.365,2.455c-0.249,0.875 -1.043,1.441 -1.91,1.441l0,0Zm152.153,1.048c-0.786,0 -1.53,-0.464 -1.843,-1.238c-0.418,-1.014 0.076,-2.172 1.09,-2.587c3.593,-1.462 7.177,-3.11 10.672,-4.906c0.98,-0.503 2.18,-0.118 2.675,0.858c0.503,0.972 0.122,2.172 -0.858,2.671c-3.597,1.851 -7.294,3.554 -10.992,5.055l-0.744,0.147l0,0Zm-228.843,2.333l-1.28,-1.534l-1.086,-1.665c3.491,-2.282 6.796,-4.45 10.13,-6.432c0.93,-0.567 2.16,-0.258 2.726,0.689c0.558,0.946 0.249,2.163 -0.689,2.721c-3.292,1.957 -6.546,4.096 -9.801,6.221Zm99.791,2.498l-0.432,-0.051c-3.9,-0.862 -7.784,-1.8 -11.66,-2.785c-1.06,-0.27 -1.698,-1.352 -1.428,-2.413c0.271,-1.061 1.344,-1.708 2.418,-1.433c3.824,0.977 7.67,1.893 11.529,2.751c1.073,0.238 1.745,1.302 1.512,2.376c-0.206,0.925 -1.031,1.555 -1.939,1.555Zm-289.506,1.982c-0.486,0 -0.964,-0.169 -1.344,-0.52c-3.009,-2.755 -5.849,-5.697 -8.44,-8.756c-0.714,-0.833 -0.608,-2.089 0.228,-2.798c0.833,-0.71 2.092,-0.609 2.798,0.232c2.49,2.924 5.207,5.748 8.093,8.385c0.808,0.744 0.871,1.999 0.127,2.806c-0.389,0.431 -0.925,0.651 -1.462,0.651l0,0Zm395.833,0.342c-0.9,0 -1.715,-0.621 -1.931,-1.534c-0.254,-1.065 0.406,-2.134 1.471,-2.388c3.854,-0.913 7.679,-1.956 11.368,-3.106c1.04,-0.321 2.16,0.258 2.485,1.306c0.326,1.044 -0.257,2.164 -1.306,2.489c-3.774,1.171 -7.691,2.245 -11.63,3.174l-0.457,0.059l0,0Zm-82.893,2.042l-0.296,-0.022c-3.943,-0.583 -7.89,-1.25 -11.83,-1.982c-1.077,-0.203 -1.787,-1.238 -1.584,-2.316c0.203,-1.081 1.251,-1.792 2.316,-1.589c3.888,0.727 7.78,1.378 11.681,1.961c1.086,0.161 1.834,1.167 1.669,2.253c-0.143,0.984 -0.993,1.695 -1.956,1.695Zm59.399,1.889c-1.006,0 -1.863,-0.757 -1.973,-1.78c-0.11,-1.094 0.685,-2.07 1.775,-2.18c3.96,-0.41 7.886,-0.934 11.685,-1.568c1.065,-0.199 2.105,0.549 2.287,1.635c0.177,1.078 -0.55,2.11 -1.636,2.287c-3.875,0.642 -7.891,1.183 -11.935,1.593l-0.203,0.013l0,0Zm-35.707,0.617l-0.118,-0.004c-3.948,-0.246 -7.975,-0.58 -11.969,-1.006c-1.095,-0.118 -1.885,-1.095 -1.767,-2.185c0.119,-1.099 1.162,-1.881 2.185,-1.767c3.935,0.423 7.899,0.752 11.787,0.989c1.095,0.068 1.928,1.01 1.864,2.105c-0.063,1.057 -0.938,1.868 -1.982,1.868l0,0Zm14.39,0.444l-2.51,-0.017c-1.095,-0.013 -1.97,-0.913 -1.953,-2.012c0.009,-1.094 1.036,-2.062 2.012,-1.961l2.451,0.017c3.123,0 6.238,-0.068 9.349,-0.203c1.044,-0.025 2.028,0.807 2.07,1.902c0.051,1.095 -0.798,2.024 -1.897,2.075c-3.165,0.135 -6.343,0.199 -9.522,0.199l0,0Zm-183.212,2.557c-0.735,0 -1.441,-0.411 -1.783,-1.116c-0.481,-0.985 -0.076,-2.173 0.909,-2.658c1.766,-0.858 3.516,-1.733 5.262,-2.617c1.724,-0.883 3.44,-1.834 5.155,-2.848c0.943,-0.554 2.16,-0.245 2.722,0.702c0.558,0.942 0.245,2.159 -0.706,2.721c-1.783,1.052 -3.571,2.05 -5.376,2.963c-1.753,0.9 -3.528,1.783 -5.311,2.65l-0.872,0.203l0,0Zm-148.509,6.026l-0.981,-0.262c-3.545,-2.012 -6.99,-4.209 -10.223,-6.534c-0.892,-0.638 -1.098,-1.88 -0.456,-2.772c0.642,-0.896 1.88,-1.095 2.772,-0.453c3.124,2.24 6.436,4.362 9.868,6.306c0.956,0.541 1.29,1.754 0.744,2.709c-0.363,0.647 -1.035,1.006 -1.724,1.006l0,0Zm126.668,3.512c-0.803,0 -1.555,-0.486 -1.855,-1.272c-0.393,-1.031 0.122,-2.181 1.141,-2.57c3.567,-1.373 7.252,-2.882 10.942,-4.501c0.993,-0.431 2.176,0.013 2.616,1.023c0.435,1.006 -0.021,2.173 -1.023,2.616c-3.748,1.64 -7.485,3.174 -11.106,4.569l-0.715,0.135Zm-104.887,6.119l-0.626,-0.105c-3.862,-1.281 -7.665,-2.743 -11.3,-4.353c-1.002,-0.439 -1.462,-1.615 -1.014,-2.616c0.439,-1.002 1.609,-1.467 2.62,-1.014c3.52,1.55 7.206,2.97 10.946,4.213c1.044,0.347 1.606,1.475 1.259,2.515c-0.274,0.832 -1.048,1.36 -1.885,1.36l0,0Zm82.217,1.234c-0.888,0 -1.686,-0.591 -1.923,-1.487c-0.275,-1.061 0.36,-2.142 1.42,-2.421c3.719,-0.977 7.527,-2.097 11.331,-3.335c1.048,-0.338 2.159,0.237 2.502,1.281c0.338,1.039 -0.233,2.159 -1.276,2.501c-3.868,1.256 -7.756,2.401 -11.551,3.394l-0.503,0.067Zm-59.023,4.214l-0.287,-0.017c-3.973,-0.57 -7.976,-1.323 -11.885,-2.244c-1.069,-0.249 -1.733,-1.319 -1.483,-2.388c0.249,-1.061 1.318,-1.758 2.387,-1.474c3.8,0.887 7.68,1.622 11.538,2.168c1.09,0.16 1.847,1.17 1.686,2.252c-0.139,0.989 -0.988,1.703 -1.956,1.703l0,0Zm35.636,0.284c-0.99,0 -1.848,-0.732 -1.97,-1.746c-0.131,-1.087 0.642,-2.08 1.732,-2.211c3.85,-0.468 7.764,-1.086 11.635,-1.838c1.057,-0.194 2.118,0.499 2.329,1.576c0.207,1.082 -0.494,2.118 -1.576,2.329c-3.96,0.766 -7.967,1.399 -11.906,1.873l-0.244,0.017Zm-16.779,1.064c-2.371,0 -4.742,-0.059 -7.112,-0.19c-1.1,-0.054 -1.936,-0.993 -1.877,-2.088c0.055,-1.094 1.01,-1.994 2.087,-1.876c3.919,0.207 7.828,0.241 11.733,0.085c1.111,0.012 2.02,0.823 2.058,1.918c0.042,1.09 -0.812,2.016 -1.91,2.058c-1.657,0.06 -3.322,0.093 -4.979,0.093l0,0Z" style="fill:#bbcddd;fill-rule:nonzero;"/></g><defs><radialGradient id="_Radial1" cx="0" cy="0" r="1" gradientUnits="userSpaceOnUse" gradientTransform="matrix(62.9709,0,0,9.35597,92.5041,369.729)"><stop offset="0" style="stop-color:#748ca0;stop-opacity:1"/><stop offset="1" style="stop-color:#bbcddd;stop-opacity:1"/></radialGradient><radialGradient id="_Radial2" cx="0" cy="0" r="1" gradientUnits="userSpaceOnUse" gradientTransform="matrix(77.5599,0,0,9.46267,206.246,557.891)"><stop offset="0" style="stop-color:#748ca0;stop-opacity:1"/><stop offset="1" style="stop-color:#bbcddd;stop-opacity:1"/></radialGradient><radialGradient id="_Radial3" cx="0" cy="0" r="1" gradientUnits="userSpaceOnUse" gradientTransform="matrix(106.993,0,0,12.042,596,318.786)"><stop offset="0" style="stop-color:#748ca0;stop-opacity:1"/><stop offset="1" style="stop-color:#bbcddd;stop-opacity:1"/></radialGradient><radialGradient id="_Radial4" cx="0" cy="0" r="1" gradientUnits="userSpaceOnUse" gradientTransform="matrix(103.403,0,0,14.9053,395.502,554.222)"><stop offset="0" style="stop-color:#748ca0;stop-opacity:1"/><stop offset="1" style="stop-color:#bbcddd;stop-opacity:1"/></radialGradient><radialGradient id="_Radial5" cx="0" cy="0" r="1" gradientUnits="userSpaceOnUse" gradientTransform="matrix(56.913,0,0,7.91756,576.731,553.102)"><stop offset="0" style="stop-color:#748ca0;stop-opacity:1"/><stop offset="1" style="stop-color:#bbcddd;stop-opacity:1"/></radialGradient></defs></svg>