<?xml version="1.0" encoding="UTF-8" standalone="no"?><!DOCTYPE svg PUBLIC "-//W3C//DTD SVG 1.1//EN" "http://www.w3.org/Graphics/SVG/1.1/DTD/svg11.dtd"><svg width="100%" height="100%" viewBox="0 0 6667 6667" version="1.1" xmlns="http://www.w3.org/2000/svg" xmlns:xlink="http://www.w3.org/1999/xlink" xml:space="preserve" xmlns:serif="http://www.serif.com/" style="fill-rule:evenodd;clip-rule:evenodd;stroke-linejoin:round;stroke-miterlimit:1.41421;"><g><path d="M5695.86,3529.12l-258.56,-447.821l-1146.03,662.768l167.834,290.7c0.338,0.592 0.987,0.958 1.635,0.931c682.418,-12.068 1131.17,-222.446 1208.95,-261.578c1.918,-0.959 3.694,1.607 2.115,3.046c-433.189,398.596 -1149.81,366.54 -1149.81,366.54l-871.567,0c-1.015,0 -1.86,-0.818 -1.86,-1.833l0,-116.946c0,-1.607 -1.889,-2.452 -3.073,-1.409l-684.053,758.484c-0.846,0.733 -0.846,2.058 0,2.791l684.053,758.482c1.184,1.044 3.073,0.198 3.073,-1.409l0,-102.991c0,-1.013 0.817,-1.86 1.86,-1.86l943.883,0c158.587,0 305.192,-84.607 384.5,-221.965l717.039,-1241.94c79.308,-137.386 79.308,-306.63 0,-443.988Z" style="fill:#8cc63f;fill-rule:nonzero;"/><path d="M3269.44,2195.41c0.338,-0.565 0.338,-1.27 0,-1.862c-336.149,-596.512 -736.324,-891.895 -807.878,-941.711c-1.777,-1.243 -0.367,-4.003 1.663,-3.328c554.956,190.332 867.958,831.983 870.072,836.299c0,0.028 0,0.028 0.029,0.055l552.108,956.823c0.508,0.902 0.198,2.031 -0.704,2.538l-80.689,46.688c-1.382,0.788 -1.185,2.847 0.338,3.354l1019.19,220.867c1.044,0.367 2.228,-0.311 2.425,-1.411l293.971,-980.278c0.311,-1.552 -1.381,-2.764 -2.763,-1.976l-83.198,48.127c-0.874,0.509 -2.03,0.196 -2.538,-0.674l-596.654,-1033.9c-79.307,-137.414 -225.884,-222.08 -384.528,-222.08l-1434.02,0c-158.615,0 -305.192,84.638 -384.5,221.994l-260.28,450.865l1146.42,662.064l151.539,-262.45Z" style="fill:#8cc63f;fill-rule:nonzero;"/><path d="M2270.13,4144.66c-341.364,592.566 -391.576,1086.74 -397.976,1173.66c-0.169,2.143 -3.27,2.339 -3.693,0.226c-119.37,-576.412 276.322,-1174.73 276.322,-1174.73l0.141,-0.112l-0.338,0l570.519,-986.567c0.507,-0.903 1.663,-1.185 2.537,-0.678l74.571,43.08c1.382,0.79 3.073,-0.423 2.763,-1.974l-305.276,-978.475l-1010.79,218.443c-1.494,0.506 -1.691,2.564 -0.31,3.355l89.401,51.648c0.874,0.509 1.184,1.635 0.677,2.54l-597.754,1033.99c-79.42,137.387 -79.477,306.742 -0.112,444.185l716.954,1241.8c79.308,137.358 225.857,221.965 384.472,221.965l786.395,0l0,-1293.31l-586.871,0c-0.677,0 -1.297,0.366 -1.636,0.958Z" style="fill:#8cc63f;fill-rule:nonzero;"/><path d="M3573.28,2850.03c0,0 -990.993,463.525 -522.167,1076.22c23.372,-200.06 100.763,-590.085 355.742,-840.949c0,0 -238.655,286.782 -253.4,796.967c0,0.085 -0.029,0.114 -0.029,0.198c0,0.253 -0.028,0.704 -0.028,1.325c-0.056,1.945 -3.947,53.99 -21.962,87.822c35.58,-17.423 93.263,-35.918 123.627,-50.579c555.069,-271.105 139.416,-779.347 318.217,-1071.01Z" style="fill:#0c9344;fill-rule:nonzero;"/></g></svg>