<?xml version="1.0" encoding="UTF-8" standalone="no"?><!DOCTYPE svg PUBLIC "-//W3C//DTD SVG 1.1//EN" "http://www.w3.org/Graphics/SVG/1.1/DTD/svg11.dtd"><svg width="100%" height="100%" viewBox="0 0 2412 2412" version="1.1" xmlns="http://www.w3.org/2000/svg" xmlns:xlink="http://www.w3.org/1999/xlink" xml:space="preserve" xmlns:serif="http://www.serif.com/" style="fill-rule:evenodd;clip-rule:evenodd;stroke-linejoin:round;stroke-miterlimit:1.41421;"><g><path d="M2211.53,1205.57c0,555.575 -450.392,1005.95 -1005.98,1005.95c-555.589,0 -1005.98,-450.377 -1005.98,-1005.95c0,-555.588 450.387,-1005.98 1005.98,-1005.98c555.583,0 1005.98,450.391 1005.98,1005.98Z" style="fill:#56bcbf;fill-rule:nonzero;"/><path d="M1812.76,1011.76l381.874,11.194c-36.642,-196.102 -127.177,-372.071 -259.83,-510.335l-122.044,0l0,499.141Z" style="fill:#44403e;fill-rule:nonzero;"/><path d="M768.389,1463.75l-560.123,-125.373c23.57,183.082 98.07,350.319 206.378,488.889l250.306,88.902l103.439,-452.418Z" style="fill:#f47747;fill-rule:nonzero;"/><path d="M1172.54,975.12c-1.785,17.936 14.584,34.222 36.527,36.406c21.924,2.161 41.154,-10.605 42.939,-28.546l28.189,-284.685c1.781,-17.927 -14.588,-34.236 -36.512,-36.401c-21.966,-2.17 -41.182,10.586 -42.949,28.541l-28.194,284.685Z" style="fill:#f6b968;fill-rule:nonzero;"/><path d="M1173.68,976.043l-0.13,-296.816c0.928,-9.617 35.307,-20.936 44.006,-26.074l-26.77,327.485c-0.375,3.96 -5.156,18.627 -4.321,22.346c-8.676,-6.858 -13.819,-16.587 -12.785,-26.941Z" style="fill:#eeaa59;fill-rule:nonzero;"/><path d="M1097.38,1020c-1.043,17.978 15.942,33.633 37.968,34.912c22.008,1.28 40.723,-12.274 41.771,-30.252l18.386,-289.841c1.044,-17.983 -17.607,-29.372 -39.624,-30.665c-22.012,-1.276 -40.709,12.255 -41.766,30.252l-16.735,285.594Z" style="fill:#f6b968;fill-rule:nonzero;"/><path d="M1097.47,1018.75l16.021,-292.702c0.942,-9.599 19.152,-9.608 27.869,-14.751l-31.982,322.871c-0.389,3.956 0.042,7.809 0.872,11.537c-8.676,-6.863 -13.809,-16.6 -12.78,-26.955Z" style="fill:#eeaa59;fill-rule:nonzero;"/><path d="M1017,1026.63c-1.076,17.992 15.933,33.646 37.945,34.931c22.021,1.294 40.755,-12.251 41.799,-30.257l16.689,-285.561c1.094,-18.02 -15.92,-33.652 -37.941,-34.936c-21.999,-1.285 -40.709,12.256 -41.771,30.243l-16.721,285.58Z" style="fill:#f6b968;fill-rule:nonzero;"/><path d="M1962.31,944.223c2.875,-2.708 6.307,-4.503 9.845,-5.583l1.409,-23.598c0.265,-4.865 4.429,-8.551 9.316,-8.291c4.823,0.287 8.551,4.456 8.264,9.32l-1.41,23.538c3.116,1.354 5.987,3.334 8.416,5.963c9.539,10.295 8.927,26.339 -1.321,35.85c-10.299,9.538 -26.353,8.94 -35.868,-1.331c-9.548,-10.29 -8.936,-26.339 1.349,-35.868Z" style="fill:#33302f;fill-rule:nonzero;"/><path d="M2047.32,937.504l1.382,-23.64c0.287,-4.846 4.438,-8.542 9.302,-8.259c4.85,0.279 8.565,4.452 8.277,9.293l-1.382,23.556c3.079,1.341 5.959,3.311 8.417,5.954c9.533,10.267 8.889,26.348 -1.336,35.864c-10.299,9.52 -26.357,8.917 -35.854,-1.368c-9.575,-10.234 -8.94,-26.316 1.317,-35.836c2.931,-2.698 6.297,-4.488 9.877,-5.564Z" style="fill:#33302f;fill-rule:nonzero;"/><path d="M2123.51,936.025l1.382,-23.622c0.274,-4.845 4.429,-8.546 9.288,-8.268c4.874,0.283 8.579,4.447 8.292,9.312l-1.373,23.528c3.07,1.354 5.949,3.325 8.416,5.954c9.525,10.281 8.904,26.362 -1.372,35.901c-10.258,9.529 -26.344,8.926 -35.854,-1.364c-9.539,-10.294 -8.941,-26.324 1.344,-35.877c2.908,-2.699 6.298,-4.479 9.877,-5.564Z" style="fill:#33302f;fill-rule:nonzero;"/><path d="M2070.24,947.126c9.446,10.178 8.839,26.037 -1.326,35.464c-10.16,9.423 -26.028,8.82 -35.441,-1.303c-9.413,-10.201 -8.838,-26.046 1.336,-35.469c10.169,-9.408 25.99,-8.81 35.431,1.308Z" style="fill:#22201f;fill-rule:nonzero;"/><path d="M2145.8,946.208c9.413,10.173 8.852,26.046 -1.322,35.483c-10.15,9.413 -26.032,8.796 -35.459,-1.336c-9.386,-10.183 -8.797,-26.042 1.363,-35.455c10.146,-9.418 26.005,-8.815 35.418,1.308Z" style="fill:#22201f;fill-rule:nonzero;"/><path d="M1995.31,948.081c9.45,10.165 8.852,26.023 -1.322,35.437c-10.132,9.436 -26.005,8.838 -35.432,-1.289c-9.422,-10.188 -8.838,-26.033 1.308,-35.46c10.164,-9.418 26.046,-8.829 35.446,1.312Z" style="fill:#22201f;fill-rule:nonzero;"/><path d="M1286.2,572.083c-22.281,7.864 -283.428,148.679 -290.667,186.341c-6.167,31.991 -3.835,230.834 -2.189,285.529c0.047,1.734 0,6.854 0,6.854c0,21.72 19.917,39.285 44.526,39.285c24.567,0 44.497,-17.565 44.497,-39.285l0,-228.414c2.643,-7.498 5.096,-12.636 7.429,-14.63c15.186,-13.035 142.196,-72.58 203.072,-76.638l75.761,-84.399l-79.698,-75.209c-1.173,0.176 -2.175,0.371 -2.731,0.566Z" style="fill:#ffcc90;fill-rule:nonzero;"/><path d="M1023.55,1055.45c0,0 -5.912,2.936 -13.628,3.005c-0.01,0.019 -0.037,-0.014 -0.061,0.028c-0.037,-0.028 -0.051,0 -0.078,-0.028c-7.707,0.042 -13.875,-2.782 -13.875,-2.782c-0.862,-18.511 -2.318,-46.213 2.518,-56.985c2.133,-4.8 5.361,-6.33 8.338,-6.191l0.028,-0.037c0.009,-0.028 0.032,0.009 0.046,0.009c0.023,0 0.07,0 0.088,-0.037l0,0.051c2.935,-0.199 6.33,1.289 8.913,6.052c5.805,10.66 6.858,38.39 7.711,56.915Z" style="fill:#ffe0bc;fill-rule:nonzero;"/><path d="M1003.24,749.845c-0.867,1.359 -0.422,3.219 0.927,4.141l15.873,10.833c1.363,0.927 3.181,0.589 4.034,-0.756c0.853,-1.35 0.417,-3.209 -0.969,-4.132l-15.822,-10.832c-1.386,-0.955 -3.176,-0.598 -4.043,0.746Z" style="fill:#ffe0bc;fill-rule:nonzero;"/><path d="M996.845,760.001c-0.853,1.377 -0.436,3.227 0.899,4.178l15.859,10.818c1.391,0.932 3.186,0.598 4.044,-0.751c0.844,-1.354 0.417,-3.204 -0.96,-4.136l-15.84,-10.847c-1.387,-0.941 -3.191,-0.584 -4.002,0.738Z" style="fill:#ffe0bc;fill-rule:nonzero;"/><path d="M1527.4,1332.41l-830.466,-150.473l68.569,-378.354l830.457,150.459l-68.56,378.368Z" style="fill:#c1e4ea;fill-rule:nonzero;"/><path d="M771.473,1136.16l702.199,127.233l47.771,-263.568l-702.208,-127.246l-47.762,263.581Zm725.834,161.316l-759.935,-137.68l58.218,-321.286l759.927,137.689l-58.21,321.277Z" style="fill:#2a7b6d;fill-rule:nonzero;"/><path d="M955.779,1033.45c-4.837,26.825 -30.526,44.613 -57.356,39.763c-26.808,-4.869 -44.605,-30.54 -39.745,-57.352c4.855,-26.839 30.531,-44.622 57.352,-39.763c26.82,4.851 44.618,30.522 39.749,57.352Z" style="fill:#2a7b6d;fill-rule:nonzero;"/><path d="M1434.22,1120.16c-4.859,26.812 -30.53,44.595 -57.337,39.744c-26.84,-4.869 -44.632,-30.521 -39.782,-57.347c4.874,-26.839 30.531,-44.608 57.347,-39.767c26.821,4.85 44.623,30.526 39.772,57.37Z" style="fill:#2a7b6d;fill-rule:nonzero;"/><path d="M1259.76,1088.52c-11.347,62.587 -71.254,104.103 -133.827,92.77c-62.582,-11.333 -104.126,-71.249 -92.774,-133.831c11.333,-62.573 71.249,-104.08 133.826,-92.756c62.559,11.347 104.094,71.226 92.775,133.817Z" style="fill:#2a7b6d;fill-rule:nonzero;"/><path d="M1288.93,571.517l3.937,159.608c12.618,-0.82 22.453,0.664 27.79,5.486c40.779,36.93 36.341,67.145 6.979,114.351c-17.13,27.563 -40.343,54.755 -68.119,106.639c-61.251,114.545 -19.573,118.914 1.785,132.491c38.395,24.442 102.401,-117.94 155.375,-157.105c71.648,-52.946 166.713,-118.681 166.713,-118.681l229.369,0l0,-242.223c0,0 -478.552,-7.448 -523.829,-0.566Z" style="fill:#ffcc90;fill-rule:nonzero;"/><path d="M1288.98,1068.01c0,0 -11.38,-5.105 -23.673,-14.509c-0.065,-0.032 -0.065,-0.056 -0.116,-0.083c-0.009,-0.047 -0.074,-0.047 -0.097,-0.098c-12.27,-9.422 -20.144,-19.095 -20.144,-19.095c11.268,-14.737 27.846,-36.981 42.856,-39.003c6.65,-0.904 12.868,1.952 17.468,5.671l0.051,0c0.047,0 0.047,0.047 0.074,0.079c0.038,0.023 0.089,0.065 0.14,0.065l-0.014,0.037c4.785,3.473 9.163,8.741 10.02,15.418c1.934,15.015 -15.283,36.805 -26.565,51.518Z" style="fill:#ffe0bc;fill-rule:nonzero;"/><path d="M1332.45,910.391c-0.848,1.354 0.687,3.886 3.506,5.717l32.348,20.932c2.796,1.809 5.773,2.175 6.622,0.867c0.9,-1.349 -0.696,-3.904 -3.515,-5.717l-32.279,-20.937c-2.805,-1.841 -5.796,-2.207 -6.682,-0.862Z" style="fill:#ffe0bc;fill-rule:nonzero;"/><path d="M1325.95,920.477c-0.885,1.367 0.696,3.922 3.455,5.731l32.325,20.932c2.82,1.803 5.81,2.207 6.668,0.885c0.863,-1.368 -0.709,-3.927 -3.515,-5.75l-32.316,-20.941c-2.8,-1.799 -5.796,-2.188 -6.617,-0.857Z" style="fill:#ffe0bc;fill-rule:nonzero;"/><rect x="1687.13" y="526.064" width="125.633" height="382.88" style="fill:#f2ebec;fill-rule:nonzero;"/><path d="M1296.38,1648.43c-9.473,15.646 -29.844,20.617 -45.49,11.157c-15.645,-9.501 -20.635,-29.895 -11.133,-45.532l65.29,-107.603c9.487,-15.646 29.858,-20.645 45.504,-11.157c15.645,9.473 20.612,29.858 11.133,45.49l-65.304,107.645Z" style="fill:#f6b968;fill-rule:nonzero;"/><path d="M1160.78,1714.31c-16.851,7.145 -78.923,17.004 -86.041,0.125l-14.667,-15.622c-7.146,-16.833 -30.174,-71.361 -15.145,-60.941c76.47,53.048 206.003,-33.596 206.003,-33.596c16.841,-7.109 36.28,0.756 43.384,17.626c7.146,16.846 -0.746,36.28 -17.602,43.398l-115.932,49.01Z" style="fill:#f6b968;fill-rule:nonzero;"/><path d="M1197.74,1684.93l109.078,-60.328c3.729,-2.045 6.845,-4.716 9.349,-7.767c3.403,-2.88 6.223,-6.386 8.193,-10.573l38.335,-97.133c2.63,-5.486 -54.17,88.341 -54.17,88.341l-167.909,103.291c21.02,-2.156 47.4,-10.47 57.124,-15.831Z" style="fill:#eeaa59;fill-rule:nonzero;"/><path d="M1377.88,1635.87c-7.568,16.633 -27.206,24.011 -43.862,16.434c-16.657,-7.568 -24.025,-27.192 -16.458,-43.876l52.089,-114.597c7.582,-16.642 27.215,-24.011 43.848,-16.443c16.671,7.545 24.025,27.206 16.48,43.872l-52.097,114.61Z" style="fill:#f6b968;fill-rule:nonzero;"/><path d="M1251,1717.35c-15.896,9.074 -76.341,26.218 -85.402,10.336l-16.429,-13.8c-9.061,-15.896 6.863,-20.051 22.745,-29.149l155.584,-87.321c15.882,-9.089 36.118,-3.566 45.193,12.344c9.102,15.896 3.529,36.113 -12.344,45.193l-109.347,62.397Z" style="fill:#f6b968;fill-rule:nonzero;"/><path d="M1251.99,1688.46l109.092,-60.296c3.724,-2.054 6.83,-4.734 9.362,-7.767c3.362,-2.889 6.182,-6.441 8.189,-10.619l52.362,-110.01c2.63,-5.472 3.367,-11.245 2.704,-16.828l-70.911,118.074l-167.932,103.291c21.043,-2.156 47.4,-10.475 57.134,-15.845Z" style="fill:#eeaa59;fill-rule:nonzero;"/><path d="M1435.21,1636.5c-7.582,16.615 -27.197,23.983 -43.867,16.429c-16.648,-7.554 -24.02,-27.192 -16.462,-43.857l52.098,-114.588c7.567,-16.679 27.206,-24.034 43.862,-16.457c16.656,7.531 24.011,27.192 16.457,43.872l-52.088,114.601Z" style="fill:#f6b968;fill-rule:nonzero;"/><path d="M1308.37,1717.97c-15.906,9.079 -76.35,26.232 -85.439,10.322l-16.42,-13.809c-9.061,-15.873 6.872,-20.06 22.745,-29.098l155.588,-87.349c15.869,-9.075 36.119,-3.538 45.156,12.358c9.103,15.868 3.552,36.105 -12.32,45.179l-109.31,62.397Z" style="fill:#f6b968;fill-rule:nonzero;"/><path d="M1404.19,1727.49c-17.426,14.375 -45.369,9.227 -62.462,-11.482c-17.041,-20.695 -12.942,-46.603 4.475,-60.978l145.141,-111.355c21.683,-14.389 51.055,-24.321 65.791,-5.221c19.11,24.697 -2.791,51.175 -27.391,74.291l-125.554,114.745Z" style="fill:#ffcc90;fill-rule:nonzero;"/><path d="M1346.2,1655.03c-18.715,9.39 -188.971,41.878 -209.267,11.612c-26.654,-39.61 -16.587,-64.122 18.001,-97.746c20.181,-19.633 45.439,-37.662 79.675,-75.589c75.538,-83.625 43.319,-98.552 26.218,-111.939c-31.134,-24.312 -110.882,77.917 -163.731,99.836c-71.402,29.571 -165.229,65.077 -165.229,65.077l-163.481,-38.562l-44.122,204.116c0,0 386.873,102.526 407.267,100.597c18.353,-1.758 219.431,-47.674 272.095,-84.418l-52.863,-77.194c-1.72,2.082 -3.241,3.538 -4.563,4.21Z" style="fill:#ffcc90;fill-rule:nonzero;"/><path d="M800.102,1849.04l-113.854,-26.042l79.359,-347.021l113.859,26.019l-79.364,347.044Z" style="fill:#f2ebec;fill-rule:nonzero;"/><path d="M603.16,1819.13c-1.864,-3.181 -4.396,-5.713 -7.271,-7.647l5.152,-21.354c1.067,-4.4 -1.604,-8.815 -6.028,-9.914c-4.377,-1.043 -8.82,1.66 -9.886,6.075l-5.143,21.279c-3.121,0.376 -6.204,1.359 -9.102,3.029c-11.264,6.547 -15.08,20.996 -8.533,32.241c6.557,11.259 20.992,15.122 32.247,8.528c11.272,-6.548 15.093,-20.955 8.564,-32.237Z" style="fill:#a83a48;fill-rule:nonzero;"/><path d="M529.38,1790.07l5.179,-21.377c1.039,-4.391 -1.646,-8.805 -6.056,-9.877c-4.4,-1.047 -8.82,1.623 -9.886,6.033l-5.138,21.322c-3.121,0.347 -6.223,1.321 -9.079,3.005c-11.287,6.542 -15.108,21.006 -8.574,32.264c6.552,11.259 21.015,15.071 32.26,8.5c11.273,-6.52 15.094,-20.978 8.537,-32.214c-1.841,-3.176 -4.382,-5.694 -7.243,-7.656Z" style="fill:#a83a48;fill-rule:nonzero;"/><path d="M461.998,1768.09l5.18,-21.354c1.08,-4.387 -1.614,-8.801 -6.024,-9.886c-4.41,-1.048 -8.815,1.632 -9.872,6.032l-5.161,21.294c-3.126,0.352 -6.219,1.322 -9.112,3.005c-11.268,6.571 -15.085,21.048 -8.514,32.302c6.534,11.245 21.001,15.084 32.228,8.518c11.287,-6.571 15.098,-21.011 8.537,-32.269c-1.832,-3.2 -4.373,-5.709 -7.262,-7.642Z" style="fill:#a83a48;fill-rule:nonzero;"/><path d="M506.366,1792.43c-11.162,6.483 -14.899,20.76 -8.449,31.88c6.483,11.157 20.77,14.899 31.866,8.453c11.152,-6.482 14.941,-20.76 8.458,-31.917c-6.496,-11.105 -20.746,-14.871 -31.875,-8.416Z" style="fill:#702730;fill-rule:nonzero;"/><path d="M439.429,1771.1c-11.147,6.478 -14.931,20.756 -8.448,31.913c6.45,11.133 20.764,14.885 31.875,8.416c11.12,-6.483 14.904,-20.784 8.439,-31.852c-6.482,-11.134 -20.746,-14.927 -31.866,-8.477Z" style="fill:#702730;fill-rule:nonzero;"/><path d="M572.727,1813.59c-11.147,6.483 -14.917,20.784 -8.43,31.875c6.459,11.134 20.742,14.927 31.866,8.482c11.134,-6.511 14.908,-20.784 8.43,-31.88c-6.459,-11.12 -20.732,-14.922 -31.866,-8.477Z" style="fill:#702730;fill-rule:nonzero;"/><path d="M1264.4,1423.58c0,0 -5.287,-8.04 -14.014,-16.318c-0.027,-0.027 -0.051,-0.027 -0.065,-0.06c-0.037,0 -0.051,-0.051 -0.111,-0.079c-8.69,-8.203 -17.078,-13.011 -17.078,-13.011c-9.877,10.419 -24.813,25.842 -24.526,37.56c0.125,5.226 3.107,9.613 6.52,12.641l0,0.028c0,0.06 0.028,0.06 0.051,0.088c0.023,0.023 0.065,0.074 0.088,0.097l0.023,-0.023c3.242,3.241 7.818,5.908 13.016,5.759c11.695,-0.376 26.246,-16.22 36.096,-26.682Z" style="fill:#ffe0bc;fill-rule:nonzero;"/><path d="M1553.84,1580.03c0,0 -2.768,-5.574 -8.254,-10.624c-0.023,0 -0.037,0 -0.037,-0.06c-0.051,0 -0.051,-0.023 -0.088,-0.023c-5.495,-5.04 -11.38,-7.396 -11.38,-7.396c-9.951,10.35 -24.971,25.722 -26.932,35.209c-0.886,4.201 0.686,7.216 2.88,9.061l-0.01,0c0.01,0.065 0.037,0.042 0.051,0.065c0.024,0.009 0.024,0.009 0.024,0.06l0.023,-0.023c2.031,2.008 5.226,3.367 9.473,2.207c9.567,-2.471 24.303,-18.117 34.25,-28.476Z" style="fill:#ffe0bc;fill-rule:nonzero;"/><path d="M1143.82,1479.93c1.122,-0.983 3.696,0.065 5.773,2.361l24.02,26.579c2.082,2.305 2.848,4.976 1.762,5.982c-1.094,0.988 -3.681,-0.06 -5.759,-2.393l-24.006,-26.542c-2.096,-2.282 -2.875,-4.999 -1.79,-5.987Z" style="fill:#ffe0bc;fill-rule:nonzero;"/><path d="M1152.13,1472.48c1.127,-0.997 3.71,0.024 5.778,2.305l24.02,26.58c2.068,2.309 2.866,4.989 1.767,5.986c-1.109,1.011 -3.701,-0.074 -5.797,-2.383l-23.978,-26.58c-2.096,-2.268 -2.889,-4.976 -1.79,-5.908Z" style="fill:#ffe0bc;fill-rule:nonzero;"/><path d="M1371.62,1700.72c1.247,-0.774 3.292,0.158 4.563,2.077l14.556,22.37c1.251,1.929 1.251,4.164 0.018,4.934c-1.261,0.834 -3.302,-0.149 -4.563,-2.082l-14.56,-22.328c-1.276,-1.906 -1.248,-4.164 -0.014,-4.971Z" style="fill:#ffe0bc;fill-rule:nonzero;"/><path d="M1381.08,1694.78c1.276,-0.789 3.321,0.125 4.577,2.054l14.551,22.355c1.271,1.943 1.271,4.164 0.014,4.948c-1.261,0.798 -3.306,-0.135 -4.567,-2.082l-14.561,-22.342c-1.256,-1.956 -1.256,-4.164 -0.014,-4.933Z" style="fill:#ffe0bc;fill-rule:nonzero;"/></g></svg>