<?xml version="1.0" encoding="UTF-8" standalone="no"?><!DOCTYPE svg PUBLIC "-//W3C//DTD SVG 1.1//EN" "http://www.w3.org/Graphics/SVG/1.1/DTD/svg11.dtd"><svg width="100%" height="100%" viewBox="0 0 2173 2312" version="1.1" xmlns="http://www.w3.org/2000/svg" xmlns:xlink="http://www.w3.org/1999/xlink" xml:space="preserve" xmlns:serif="http://www.serif.com/" style="fill-rule:evenodd;clip-rule:evenodd;stroke-linejoin:round;stroke-miterlimit:1.41421;"><g><g><path d="M298.089,1790.39l-80.532,0c-21.028,0 -38.045,17.046 -38.045,37.988l0,88.381c0,20.914 17.017,37.959 38.045,37.959l80.532,0c20.913,0 37.93,-17.045 37.93,-37.959l0,-88.381c0,-20.942 -17.017,-37.988 -37.93,-37.988Z" style="fill:#4c5155;fill-rule:nonzero;"/><path d="M1954.66,1790.39l-80.473,0c-21.029,0 -38.046,17.046 -38.046,37.988l0,88.381c0,20.914 17.017,37.959 38.046,37.959l80.473,0c21.028,0 38.103,-17.045 38.103,-37.959l0,-88.381c0,-20.942 -17.075,-37.988 -38.103,-37.988Z" style="fill:#4c5155;fill-rule:nonzero;"/><path d="M76.062,1870.09c-42.027,0 -76.062,-34.005 -76.062,-76.004l0,-1361.73c0,-41.941 34.035,-75.976 76.062,-75.976l2020.15,0c41.913,0 76.005,34.035 76.005,75.976l0,1361.73c0,41.999 -34.092,76.004 -76.005,76.004l-2020.15,0Z" style="fill:#b8c7d8;fill-rule:nonzero;"/><path d="M1694.13,1734.1c-7.219,0 -13.207,-5.958 -13.207,-13.293l0,-237.84c0,-7.362 5.988,-13.322 13.207,-13.322l352.951,0c7.277,0 13.207,5.96 13.207,13.322l0,237.84c0,7.335 -5.93,13.293 -13.207,13.293l-352.951,0Z" style="fill:#fff;fill-rule:nonzero;"/><path d="M1565.62,1649.27c0,49.39 -40.022,89.412 -89.413,89.412l-1294.29,0c-49.362,0 -89.355,-40.022 -89.355,-89.412l0,-1072.03c0,-49.419 39.993,-89.47 89.355,-89.47l1294.29,0c49.391,0 89.413,40.051 89.413,89.47l0,1072.03Z" style="fill:#3a4245;fill-rule:nonzero;"/><rect x="312.527" y="737.443" width="1033.07" height="732.201" style="fill:#4d5256;fill-rule:nonzero;"/><path d="M1487.23,1673.16l-1315.71,0l237.268,-203.52l936.809,0l0,-732.201l-83.224,0l224.862,-192.862l0,1128.58Z" style="fill:#61686a;fill-rule:nonzero;"/><path d="M1345.6,1469.64l-936.809,0l853.585,-732.201l83.224,0l0,732.201Z" style="fill:#717578;fill-rule:nonzero;"/><path d="M1691.5,1359.46l365.784,0l0,-864.614l-365.784,0l0,864.614Zm373.406,7.649l-380.941,0l0,-879.827l380.941,0l0,879.827Z" style="fill:#4d5256;fill-rule:nonzero;"/><path d="M1691.5,627.262l179.054,0l0,-132.414l-179.054,0l0,132.414Zm186.731,7.591l-194.266,0l0,-147.569l194.266,0l0,147.569Z" style="fill:#4d5256;fill-rule:nonzero;"/><path d="M1878.23,627.262l179.053,0l0,-132.414l-179.053,0l0,132.414Zm186.675,7.591l-194.352,0l0,-147.569l194.352,0l0,147.569Z" style="fill:#4d5256;fill-rule:nonzero;"/><path d="M1691.5,767.238l179.054,0l0,-132.385l-179.054,0l0,132.385Zm186.731,7.649l-194.266,0l0,-147.625l194.266,0l0,147.625Z" style="fill:#4d5256;fill-rule:nonzero;"/><path d="M1878.23,767.238l179.053,0l0,-132.385l-179.053,0l0,132.385Zm186.675,7.649l-194.352,0l0,-147.625l194.352,0l0,147.625Z" style="fill:#4d5256;fill-rule:nonzero;"/><path d="M1691.5,907.301l179.054,0l0,-132.414l-179.054,0l0,132.414Zm186.731,7.564l-194.266,0l0,-147.627l194.266,0l0,147.627Z" style="fill:#4d5256;fill-rule:nonzero;"/><path d="M1878.23,907.301l179.053,0l0,-132.414l-179.053,0l0,132.414Zm186.675,7.564l-194.352,0l0,-147.627l194.352,0l0,147.627Z" style="fill:#4d5256;fill-rule:nonzero;"/><path d="M1878.23,1118.53c-12.606,-12.319 -29.823,-19.882 -48.789,-19.882c-5.529,0 -10.886,0.63 -16.043,1.862c0,-0.63 -0.028,-1.232 -0.028,-1.862c0,-38.533 31.227,-69.816 69.787,-69.816c38.561,0 69.817,31.283 69.817,69.816c0,1.662 -0.057,3.295 -0.172,4.928c-7.964,-3.18 -16.674,-4.928 -25.784,-4.928c-18.965,0 -36.211,7.563 -48.788,19.882Z" style="fill:#88b2c7;fill-rule:nonzero;"/><path d="M1927.02,1238.34c-18.965,0 -36.211,-7.564 -48.788,-19.854c12.978,-12.691 21.028,-30.396 21.028,-49.991c0,-0.602 0,-1.232 0,-1.863c29.25,-6.904 51.396,-32.229 53.544,-63.055c25.812,10.256 44.062,35.466 44.062,64.918c0,38.589 -31.284,69.845 -69.846,69.845Z" style="fill:#88b2c7;fill-rule:nonzero;"/><path d="M1899.26,1166.63c-0.516,-18.85 -8.48,-35.839 -21.028,-48.101c12.577,-12.319 29.823,-19.882 48.788,-19.882c9.11,0 17.82,1.748 25.784,4.928c-2.148,30.826 -24.294,56.151 -53.544,63.055Z" style="fill:#70a8bf;fill-rule:nonzero;"/><path d="M1829.44,1238.34c-38.56,0 -69.845,-31.256 -69.845,-69.845c0,-33.061 22.976,-60.735 53.802,-67.984c0.745,28.621 18.708,52.971 43.919,63.056c-0.115,1.632 -0.172,3.266 -0.172,4.928c0,19.595 8.079,37.3 21.085,49.991c-12.606,12.29 -29.823,19.854 -48.789,19.854Z" style="fill:#88b2c7;fill-rule:nonzero;"/><path d="M1857.32,1163.56c-25.211,-10.085 -43.174,-34.435 -43.919,-63.056c5.157,-1.232 10.514,-1.862 16.043,-1.862c18.966,0 36.183,7.563 48.789,19.882c-11.918,11.603 -19.681,27.417 -20.913,45.036Z" style="fill:#70a8bf;fill-rule:nonzero;"/><path d="M1878.23,1218.48c-13.006,-12.691 -21.085,-30.396 -21.085,-49.991c0,-1.662 0.057,-3.296 0.172,-4.928c7.993,3.18 16.701,4.928 25.84,4.928c5.53,0 10.916,-0.631 16.101,-1.863c0,0.631 0,1.261 0,1.863c0,19.595 -8.05,37.3 -21.028,49.991Z" style="fill:#70a8bf;fill-rule:nonzero;"/><path d="M1883.16,1168.49c-9.139,0 -17.847,-1.748 -25.84,-4.928c1.232,-17.619 8.995,-33.433 20.913,-45.036c12.548,12.262 20.512,29.251 21.028,48.101c-5.185,1.232 -10.571,1.863 -16.101,1.863Z" style="fill:#64a3bb;fill-rule:nonzero;"/></g></g></svg>