<?xml version="1.0" encoding="UTF-8" standalone="no"?><!DOCTYPE svg PUBLIC "-//W3C//DTD SVG 1.1//EN" "http://www.w3.org/Graphics/SVG/1.1/DTD/svg11.dtd"><svg width="100%" height="100%" viewBox="0 0 6234 6234" version="1.1" xmlns="http://www.w3.org/2000/svg" xmlns:xlink="http://www.w3.org/1999/xlink" xml:space="preserve" xmlns:serif="http://www.serif.com/" style="fill-rule:evenodd;clip-rule:evenodd;stroke-linejoin:round;stroke-miterlimit:1.41421;"><g><g><path d="M5308.95,3980.17l-4393.95,0l0,-2592.45l4393.95,0l0,2592.45Zm-4576.84,-2900.53c-78.289,0 -141.694,63.512 -141.694,141.878l0,2934.23c0,78.288 63.405,141.709 141.694,141.709l4768.99,0c78.266,0 141.855,-63.421 141.855,-141.709l0,-2934.23c0,-78.366 -63.589,-141.878 -141.855,-141.878l-4768.99,0Z" style="fill:#616e7d;fill-rule:nonzero;"/><path d="M5592.28,4358.7l-4951.26,0c-32.693,0 -64.465,12.918 -89.839,36.856l-498.808,469.041c-103.233,96.936 -43.645,289.102 89.701,289.102l5949.21,0c133.308,0 192.888,-192.166 89.701,-289.102l-498.985,-469.041c-25.197,-23.938 -56.992,-36.856 -89.716,-36.856Z" style="fill:#616e7d;fill-rule:nonzero;"/><path d="M1107.89,3155.44l1960.6,0l0,597.004l-1960.6,0l0,-597.004Zm0,-225.305l951.123,0l0,118.194l-951.123,0l0,-118.194Zm0,-1322.25l3983.35,0l0,1215.83l-3983.35,0l0,-1215.83Zm3983.35,1440.44l-951.238,0l0,-118.194l951.238,0l0,118.194Zm-1961.95,0l0,-118.194l951.238,0l0,118.194l-951.238,0Zm1960.56,189.893l-1960.56,0l0,-89.709l1960.56,0l0,89.709Zm0,153.751l-1960.56,0l0,-89.524l1960.56,0l0,89.524Zm0,153.944l-1960.56,0l0,-89.617l1960.56,0l0,89.617Zm-939.557,153.935l-1021,0l0,-89.686l1021,0l0,89.686Zm-1080.61,-651.523l-951.077,0l0,-118.194l951.077,0l0,118.194Zm2239.27,931.839l0,-2592.45l-4393.95,0l0,2592.45l4393.95,0Z" style="fill:#fff;fill-rule:nonzero;"/><rect x="1107.89" y="1607.89" width="3983.35" height="1215.83" style="fill:#aad4c8;fill-rule:nonzero;"/><rect x="1107.89" y="2930.14" width="951.123" height="118.194" style="fill:#82bfab;fill-rule:nonzero;"/><rect x="1107.89" y="3155.44" width="1960.6" height="597.003" style="fill:#82bfab;fill-rule:nonzero;"/><rect x="2118.6" y="2930.14" width="951.077" height="118.194" style="fill:#82bfab;fill-rule:nonzero;"/><rect x="3129.29" y="2930.14" width="951.238" height="118.194" style="fill:#82bfab;fill-rule:nonzero;"/><rect x="3129.29" y="3148.51" width="1960.56" height="89.709" style="fill:#aad4c8;fill-rule:nonzero;"/><rect x="3129.29" y="3302.45" width="1960.56" height="89.525" style="fill:#aad4c8;fill-rule:nonzero;"/><rect x="3129.29" y="3456.3" width="1960.56" height="89.617" style="fill:#aad4c8;fill-rule:nonzero;"/><rect x="3129.29" y="3610.17" width="1021" height="89.686" style="fill:#aad4c8;fill-rule:nonzero;"/><rect x="4140" y="2930.14" width="951.238" height="118.194" style="fill:#82bfab;fill-rule:nonzero;"/></g></g></svg>