<?xml version="1.0" encoding="UTF-8" standalone="no"?><!DOCTYPE svg PUBLIC "-//W3C//DTD SVG 1.1//EN" "http://www.w3.org/Graphics/SVG/1.1/DTD/svg11.dtd"><svg width="100%" height="100%" viewBox="0 0 2689 3003" version="1.1" xmlns="http://www.w3.org/2000/svg" xmlns:xlink="http://www.w3.org/1999/xlink" xml:space="preserve" xmlns:serif="http://www.serif.com/" style="fill-rule:evenodd;clip-rule:evenodd;stroke-linejoin:round;stroke-miterlimit:1.41421;"><g><path d="M2345.12,777.492l-189.271,312.251c-14.697,24.246 -6.956,55.812 17.228,70.471l169.411,102.689c24.245,14.697 55.812,6.956 70.508,-17.289l189.272,-312.251c14.659,-24.184 6.918,-55.751 -17.327,-70.447l-169.411,-102.689c-24.184,-14.659 -55.751,-6.919 -70.41,17.265Z" style="fill:#bac2d6;fill-rule:nonzero;"/><path d="M2583.08,865.977c22.519,13.65 29.749,43.048 16.121,65.53l-189.271,312.251c-13.65,22.519 -43.072,29.734 -65.591,16.084l-169.412,-102.689c-22.482,-13.627 -29.672,-43.035 -16.022,-65.554l189.271,-312.251c13.628,-22.482 43.011,-29.687 65.493,-16.06l169.411,102.689Zm-411.864,297.299l169.411,102.689c25.899,15.698 59.727,7.403 75.426,-18.496l189.271,-312.25c15.676,-25.862 7.366,-59.666 -18.533,-75.364l-169.411,-102.689c-25.849,-15.669 -59.65,-7.391 -75.326,18.471l-189.272,312.251c-15.698,25.898 -7.415,59.719 18.434,75.388Z" style="fill:#000072;fill-rule:nonzero;"/><path d="M2184.21,1141.85l169.412,102.689c14.082,8.535 32.471,4.026 41.007,-10.056l20.396,-33.649c-10.312,0.798 -20.962,-1.522 -30.489,-7.297l-169.411,-102.688c-9.49,-5.753 -16.449,-14.107 -20.519,-23.606l-20.39,33.637c-8.535,14.082 -4.051,32.456 9.994,40.97Z" style="fill:#928faa;fill-rule:nonzero;"/><path d="M2575.82,935.552l8.076,-13.323c8.513,-14.045 3.989,-32.41 -10.093,-40.945l-169.411,-102.689c-14.045,-8.514 -32.395,-4.014 -40.908,10.031l-8.076,13.323c10.305,-0.786 20.938,1.506 30.428,7.259l169.411,102.688c9.527,5.775 16.503,14.156 20.573,23.656Z" style="fill:#e0e3ed;fill-rule:nonzero;"/><path d="M1991.2,934.855l189.064,114.602l134.531,-221.943l-160.411,-97.233l-163.184,204.574Z" style="fill:#bac2d6;fill-rule:nonzero;"/><path d="M2179.06,1044.54l-182.514,-110.631l158.677,-198.934l154.656,93.745l-130.819,215.82Zm-193.193,-108.732l195.604,118.566l138.242,-228.066l-166.154,-100.714l-167.692,210.214Z" style="fill:#000072;fill-rule:nonzero;"/><path d="M1121.91,363.06c-16.592,33.311 11.231,71.525 47.935,65.391c205.625,-34.263 365.596,152.369 305.787,342.75c-9.941,31.732 2.514,66.156 30.923,83.376l316.046,191.572c30.797,18.668 70.599,11.566 93.037,-16.611l75.56,-94.683l163.184,-204.574l55.025,-68.955c26.907,-33.755 18.045,-83.499 -18.874,-105.877l-518.153,-314.079c-210.248,-127.443 -460.8,-57.873 -550.47,121.69Z" style="fill:#bac2d6;fill-rule:nonzero;"/><path d="M2188.68,558.51c16.726,10.139 28.281,26.988 31.71,46.247c3.43,19.258 -1.588,39.056 -13.781,54.337l-293.769,368.212c-21.242,26.674 -59.225,33.455 -88.381,15.782l-316.047,-191.572c-26.817,-16.255 -38.882,-48.836 -29.357,-79.247c28.451,-90.553 8.619,-186.949 -53.054,-257.854c-62.911,-72.342 -158.884,-105.802 -256.74,-89.5c-15.763,2.635 -30.828,-3.45 -40.321,-16.269c-9.631,-13.005 -11.067,-29.448 -3.831,-43.982c40.933,-81.95 115.599,-142.147 210.255,-169.496c109.245,-31.584 231.41,-13.627 335.163,49.263l518.153,314.079Zm-683.979,299.128l316.047,191.572c32.229,19.536 74.228,12.041 97.691,-17.439l293.769,-368.212c13.467,-16.886 19.023,-38.786 15.224,-60.06c-3.792,-21.286 -16.563,-39.911 -35.041,-51.111l-518.153,-314.079c-105.455,-63.922 -229.698,-82.152 -340.864,-50.024c-96.612,27.923 -172.835,89.419 -214.667,173.184c-8.334,16.733 -6.618,36.443 4.47,51.436c11.118,15.028 28.789,22.172 47.256,19.083c95.368,-15.901 188.882,16.672 250.162,87.12c60.02,69.016 79.321,162.863 51.631,251.031c-10.527,33.554 2.842,69.537 32.475,87.499Z" style="fill:#000072;fill-rule:nonzero;"/><path d="M1517.69,836.209l316.047,191.572c6.441,3.905 13.476,6.193 20.584,6.952l36.428,-45.65l-303.299,-183.845c-28.409,-17.22 -40.864,-51.644 -30.923,-83.376c39.077,-124.383 -15.669,-247.183 -115.675,-307.802c-53.058,-32.161 -118.838,-46.816 -190.112,-34.948c-11.465,1.926 -22.075,-0.487 -30.732,-5.735c-19.029,-11.534 -28.61,-36.749 -17.204,-59.656c8.887,-17.754 19.34,-34.474 31.168,-50.01c-39.477,28.665 -71.185,65.588 -92.841,108.94c-4.166,8.392 -3.357,17.857 2.189,25.338c1.233,1.668 3.549,4.311 7.014,6.411c3.858,2.338 9.157,4.01 15.977,2.869c73.196,-12.193 145.419,1.83 205.163,38.044c25.188,15.268 48.158,34.499 68.033,57.346c65.776,75.653 86.957,178.442 56.626,274.972c-7.059,22.529 1.818,46.613 21.557,58.578Z" style="fill:#928faa;fill-rule:nonzero;"/><path d="M1890.75,989.083l12.747,7.727c2.486,1.507 5.012,2.837 7.583,4.01l162.572,-203.757l63.937,-80.178c0.136,-0.169 0.284,-0.331 0.42,-0.499l54.598,-68.443c8.987,-11.263 12.694,-25.86 10.163,-40.054c-2.539,-14.181 -11.049,-26.606 -23.367,-34.072l-518.153,-314.079c-66.197,-40.126 -140.127,-61.196 -212.966,-61.912c52.055,9.149 104.55,28.344 154.755,58.776l518.152,314.079c36.92,22.378 45.782,72.122 18.874,105.877l-55.024,68.954l-163.185,204.575l-31.106,38.996Z" style="fill:#e0e3ed;fill-rule:nonzero;"/><path d="M1854.32,1034.73c16.569,1.755 33.572,-4.834 44.535,-18.583l12.223,-15.33c-2.571,-1.173 -5.097,-2.503 -7.583,-4.01l-12.747,-7.727l-36.428,45.65Z" style="fill:#ceccd9;fill-rule:nonzero;"/><path d="M2292.34,905.996l220.412,133.603l41.454,-68.389l-220.412,-133.603l-41.454,68.389Z" style="fill:#e0e3ed;fill-rule:nonzero;"/><path d="M2573.81,881.284c14.082,8.535 18.606,26.9 10.093,40.945l-189.271,312.251c-8.536,14.082 -26.925,18.591 -41.007,10.056l-169.412,-102.689c-14.045,-8.514 -18.529,-26.888 -9.994,-40.97l189.272,-312.251c8.513,-14.045 26.863,-18.545 40.908,-10.031l169.411,102.689Zm-411.864,297.298l169.411,102.689c34.336,20.812 79.198,9.812 100.01,-24.524l189.271,-312.25c20.79,-34.299 9.775,-79.136 -24.561,-99.949l-169.411,-102.689c-34.298,-20.79 -79.121,-9.799 -99.911,24.5l-189.271,312.251c-20.813,34.335 -9.836,79.182 24.462,99.972Z" style="fill-rule:nonzero;"/><path d="M2173.03,1019.96l-149.807,-90.806l136.179,-170.712l125.892,76.31l-112.264,185.208Zm-192.964,-66.733l189.065,114.602c10.151,6.153 23.348,2.916 29.501,-7.234l134.531,-221.943c6.146,-10.139 2.917,-23.349 -7.234,-29.502l-160.411,-97.233c-9.233,-5.597 -21.19,-3.468 -27.93,4.972l-163.172,204.582c-3.862,4.825 -5.445,11.082 -4.36,17.165c1.085,6.083 4.732,11.392 10.01,14.591Z" style="fill-rule:nonzero;"/><path d="M1121.91,363.06l-0.062,-0.037l0.062,0.037Zm1057.49,210.757c12.318,7.466 20.828,19.891 23.367,34.072c2.531,14.194 -1.176,28.791 -10.163,40.054l-293.75,368.207c-15.653,19.664 -43.641,24.65 -65.119,11.631l-316.047,-191.572c-19.739,-11.965 -28.616,-36.049 -21.557,-58.578c30.331,-96.53 9.15,-199.319 -56.626,-274.972c-66.994,-77.043 -169.14,-112.722 -273.196,-95.39c-12.949,2.164 -20.387,-5.759 -22.991,-9.28c-5.546,-7.481 -6.355,-16.946 -2.189,-25.338c38.668,-77.412 109.412,-134.343 199.2,-160.29c104.467,-30.194 221.426,-12.93 320.918,47.377l518.153,314.079Zm-683.979,299.128l316.047,191.572c39.907,24.189 91.902,14.901 120.973,-21.596l293.754,-368.187c16.688,-20.929 23.553,-48.028 18.864,-74.38c-4.697,-26.339 -20.518,-49.408 -43.392,-63.273l-518.153,-314.079c-109.716,-66.504 -239.165,-85.428 -355.108,-51.91c-101.473,29.313 -181.626,94.087 -225.716,182.378l-0.002,0.032c-11.353,22.789 -9.016,49.624 6.096,70.052c15.003,20.247 39.754,30.243 64.61,26.087c89.18,-14.863 176.545,15.506 233.701,81.211c55.901,64.292 73.861,151.733 48.051,233.925c-12.988,41.456 3.576,85.923 40.275,108.168Z" style="fill-rule:nonzero;"/><path d="M1062.15,1600.32l290.822,176.282l449.983,-742.361l-290.822,-176.282l-449.983,742.361Z" style="fill:#f9b46f;fill-rule:nonzero;"/><path d="M1351.76,1771.68l-284.699,-172.571l446.272,-736.238l284.699,172.571l-446.272,736.238Zm-294.533,-170.16l296.944,179.994l453.695,-748.484l-296.945,-179.993l-453.694,748.483Z" style="fill:#371a45;fill-rule:nonzero;"/><path d="M1384.2,1224.38c8.936,3.959 18.007,7.667 27.312,10.962c17.511,6.194 35.995,10.617 55.007,11.793c18.948,1.087 38.54,-1.788 56.284,-8.547c35.708,-13.385 64.269,-37.163 96.414,-51.134c12.522,-5.436 25.652,-9.667 39.108,-12.143l9.954,-16.421c-0.221,0.033 -0.443,0.067 -0.671,0.112c-18.549,2.923 -36.913,7.665 -54.152,15.333c-34.429,15.197 -62.955,38.779 -95.636,50.817c-16.164,6.142 -33.277,8.629 -50.522,7.687c-17.227,-1.082 -34.387,-5.121 -51.042,-11.014c-8.287,-2.93 -16.447,-6.235 -24.574,-9.789l-7.482,12.344Z" style="fill:#d29567;fill-rule:nonzero;"/><path d="M1418.21,1168.28c13.195,4.365 26.808,7.459 40.784,8.463c10.375,1.114 20.903,0.514 31.337,-0.512c10.358,-1.675 20.802,-3.683 30.599,-7.858c20.033,-7.331 36.971,-21.628 50.542,-36.642c13.769,-15.063 25.687,-30.913 39.808,-43.685c6.813,-6.185 14.096,-11.432 22.1,-15.438l-14.045,-8.513c-6.351,3.903 -12.287,8.392 -17.655,13.326c-15.481,14.075 -27.604,30.319 -40.758,44.616c-13.082,14.373 -27.584,26.53 -45.241,33.007c-8.589,3.702 -17.907,5.455 -27.162,6.994c-9.387,0.874 -18.862,1.477 -28.344,0.435c-11.606,-0.907 -23.162,-3.224 -34.342,-6.769l-7.623,12.576Z" style="fill:#d29567;fill-rule:nonzero;"/><path d="M1473.48,1077.1c27,2.804 54.479,-2.09 78.901,-13.541c11.626,-5.478 22.455,-12.376 32.395,-20.349c-4.872,-2.736 -9.926,-4.895 -15.056,-6.514c-7.374,5.342 -15.202,10.024 -23.407,13.892c-19.835,9.326 -42.008,13.835 -63.811,12.843c-2.069,2.613 -3.997,5.379 -5.772,8.306l-3.25,5.363Z" style="fill:#d29567;fill-rule:nonzero;"/><path d="M1318.39,1332.96c9.123,-2.373 18.399,-4.001 27.744,-4.833c20.584,-1.638 41.736,0.952 63.384,2.806c21.54,1.921 44.427,2.7 66.604,-2.644c22.039,-5.227 42.118,-14.79 61.551,-24.142c18.817,-9.056 37.287,-18.255 56.72,-23.354l10.874,-17.939c-4.356,0.86 -8.654,1.955 -12.866,3.186c-21.614,6.322 -41.624,15.742 -60.956,25.206c-19.335,9.328 -38.562,18.369 -58.607,23.096c-19.943,4.807 -40.821,4.224 -62.118,2.316c-21.256,-1.783 -43.183,-4.559 -65.73,-2.804c-5.481,0.479 -10.931,1.211 -16.343,2.183l-10.257,16.923Z" style="fill:#d29567;fill-rule:nonzero;"/><path d="M1354.2,1273.88c0.434,0.029 0.869,0.058 1.296,0.1c2.346,0.3 4.68,0.593 7.04,0.098c2.347,-0.336 4.708,-1.249 7.224,-4.847l0.042,-0.042c1.011,-1.447 1.002,-3.311 0.154,-4.729c-1.231,-2.002 -2.505,-3.243 -3.79,-4.022c-1.029,-0.624 -2.061,-0.965 -3.104,-1.178l-8.862,14.62Z" style="fill:#d29567;fill-rule:nonzero;"/><path d="M1239.03,1463.89c14.885,-14.639 29.134,-29.444 44.991,-41.683c9.31,-7.183 19.211,-13.405 29.769,-17.454c10.504,-4.097 21.681,-5.795 32.742,-4.817c22.357,1.982 43.316,14.669 65.435,25.665c11.136,5.495 22.922,10.746 35.863,13.568c12.85,2.833 27.045,2.813 39.837,-1.22c5.324,-1.629 10.363,-3.699 15.158,-6.084l17.071,-28.163c-2.014,1.609 -4.061,3.164 -6.136,4.652c-9.478,6.88 -19.568,12.67 -30.218,15.876c-10.626,3.304 -21.677,3.303 -32.67,0.942c-10.998,-2.38 -21.807,-7.089 -32.554,-12.398c-10.771,-5.324 -21.571,-11.318 -33.129,-16.448c-11.526,-5.128 -24.024,-9.455 -37.38,-10.652c-13.305,-1.2 -26.911,0.917 -39.163,5.714c-12.317,4.741 -23.328,11.747 -33.362,19.461c-2.743,2.122 -5.427,4.313 -8.055,6.521l-28.199,46.52Z" style="fill:#d29567;fill-rule:nonzero;"/><path d="M1176.57,1644.56l15.16,9.189c6.919,-4.094 13.73,-8.287 20.303,-12.86c15.328,-10.785 29.103,-23.399 41.563,-37.078c12.502,-13.637 23.693,-28.286 34.107,-43.339c10.553,-14.952 19.746,-30.947 29.848,-45.1c10.093,-14.108 22.217,-26.569 37.491,-31.326c15.165,-5.074 32.281,-2.401 48.171,3.899c10.485,4.111 20.519,9.407 30.438,15.419c5.265,3.192 10.496,6.58 15.74,10.11c0.945,0.623 1.89,1.246 2.835,1.869l7.771,-12.82l-2.768,-1.594c-0.771,-0.468 -1.53,-0.928 -2.302,-1.396c-1.592,-0.965 -3.183,-1.93 -4.792,-2.921c-1.568,-0.951 -3.135,-1.901 -4.715,-2.858c-11.669,-7.074 -23.823,-14.122 -37.039,-19.17c-8.864,-3.414 -18.216,-6.135 -28.056,-7.11c-9.807,-1.005 -20.087,-0.204 -29.726,2.962c-9.708,3.006 -18.4,8.589 -25.742,15.039c-7.323,6.528 -13.452,13.933 -18.913,21.506c-10.884,15.303 -19.691,30.744 -30.009,45.336c-10.152,14.676 -20.967,28.817 -32.911,41.837c-11.869,13.033 -24.945,24.966 -39.204,35.009c-7.122,5.009 -14.589,9.592 -22.561,13.049c-1.568,0.791 -3.141,1.562 -4.689,2.348Z" style="fill:#d29567;fill-rule:nonzero;"/><path d="M1159.6,1594.93c1.433,-0.872 2.854,-1.752 4.282,-2.645c10.533,-6.575 20.817,-13.569 30.811,-20.941c5.055,-3.616 9.791,-7.644 14.946,-11.15c2.577,-1.737 5.168,-3.498 7.249,-5.854c2.123,-2.313 3.876,-5.068 3.821,-9.84c-0.013,-1.331 -0.723,-2.481 -1.788,-3.127c-0.38,-0.23 -0.808,-0.406 -1.277,-0.489l-0.052,0.002c-4.726,-0.822 -7.644,0.373 -10.193,2.01c-2.673,1.51 -4.824,3.622 -6.995,5.739c-4.426,4.098 -9.415,7.521 -14.198,11.186c-3.117,2.296 -6.255,4.546 -9.424,6.762l-17.182,28.347Z" style="fill:#d29567;fill-rule:nonzero;"/><path d="M1266.96,1699.35l13.886,8.417c0.048,-5.245 0.735,-10.438 1.573,-15.606c1.942,-11.766 4.956,-23.369 9.207,-34.471c8.445,-22.191 21.678,-42.585 39.391,-57.969c17.444,-15.38 39.998,-25.821 62.405,-23.976c6.611,0.557 13.193,2.019 19.52,4.399l7.527,-12.418c-8.227,-3.279 -16.914,-5.631 -25.937,-6.243c-13.587,-1.119 -27.299,1.502 -39.58,6.515c-12.319,5.074 -23.537,12.256 -33.328,20.922c-19.76,17.157 -34.235,39.628 -43.378,63.69c-4.605,12.044 -7.866,24.551 -9.939,37.225l-1.347,9.515Z" style="fill:#d29567;fill-rule:nonzero;"/><path d="M1336.01,1707.07l34.321,-56.622c-12.539,4.472 -22.976,13.735 -29.234,25.413c-3.78,7.119 -5.866,15.616 -5.672,23.637c0.043,2.554 0.247,5.09 0.585,7.572Z" style="fill:#d29567;fill-rule:nonzero;"/><path d="M1320.88,1732.03l24.858,15.068l2.701,-4.458c-0.031,-0.086 -0.082,-0.167 -0.114,-0.253c-3.077,-6.386 -6.137,-12.997 -8.578,-20.102c-1.67,-4.813 -3.003,-9.908 -3.74,-15.21l-15.127,24.955Zm36.489,-4.121l38.989,-64.323c-4.834,-1.775 -10.086,-1.978 -15.04,-1.264c-11.422,1.8 -22.055,9.839 -27.558,20.217c-5.74,10.351 -4.774,22.792 -0.458,35.119c1.16,3.416 2.56,6.826 4.067,10.251Zm12.959,-77.456c2.819,-1.004 5.74,-1.762 8.743,-2.269c8.235,-1.404 16.635,-0.097 24.372,2.333c0.238,0.077 0.483,0.142 0.709,0.211l33.95,-56.009c-4.275,-2.809 -8.358,-5.769 -12.619,-8.436c-0.122,-0.074 -0.257,-0.155 -0.379,-0.23c-3.894,-2.36 -7.967,-4.343 -12.157,-5.91l-42.619,70.31Zm50.146,-82.728c4.206,1.679 8.291,3.587 12.236,5.642c2.239,1.14 4.429,2.333 6.56,3.625c2.351,1.425 4.623,2.953 6.774,4.625l31.731,-52.348c-1.488,-0.584 -2.959,-1.224 -4.402,-1.881c-4.728,-2.146 -9.223,-4.619 -13.594,-7.269c-2.559,-1.551 -5.069,-3.157 -7.552,-4.779l-31.753,52.385Zm39.524,-65.205l20.17,11.64c1.681,0.985 3.344,1.943 4.999,2.913l80.697,-133.129c-4.959,3.926 -9.898,8.015 -14.861,12.224c-14.579,12.394 -29.642,26.471 -48.177,35.697l-42.828,70.655Zm59.899,-98.818c7.253,-5.751 14.204,-12.136 21.326,-18.637c9.048,-8.296 18.511,-16.809 29.699,-23.389c3.775,-2.25 7.832,-4.328 12.065,-5.982l48.595,-80.169c-1.727,0.059 -3.456,0.149 -5.208,0.277c-10.029,0.635 -20.075,2.097 -30.115,4.517c-0.617,0.162 -1.246,0.316 -1.863,0.478l-74.499,122.905Zm85.373,-140.844c6.815,-1.327 13.786,-2.109 20.825,-1.927c4.457,0.022 9.02,0.478 13.458,1.443l54.741,-90.308c-8.254,0.44 -16.489,0.739 -24.719,1.61c-3.76,0.401 -7.512,0.956 -11.243,1.642l-53.062,87.54Zm63.016,-103.961c9.065,-1.42 18.275,-2.25 27.462,-1.772c2.414,0.107 4.839,0.304 7.237,0.602l17.072,-28.163c-18.868,-1.994 -38.092,6.765 -48.58,24.068l-3.191,5.265Z" style="fill:#fcddbe;fill-rule:nonzero;"/><path d="M1658.33,1175.32c3.731,-0.686 7.483,-1.241 11.243,-1.642c8.23,-0.871 16.465,-1.17 24.719,-1.61l8.691,-14.339c-2.398,-0.298 -4.823,-0.495 -7.237,-0.602c-9.187,-0.478 -18.397,0.352 -27.462,1.772l-9.954,16.421Z" style="fill:#ebcfba;fill-rule:nonzero;"/><path d="M1594.39,1280.8c0.617,-0.162 1.246,-0.316 1.863,-0.478c10.04,-2.42 20.086,-3.882 30.115,-4.517c1.752,-0.128 3.481,-0.218 5.208,-0.277l7.971,-13.151c-4.438,-0.965 -9.001,-1.421 -13.458,-1.443c-7.039,-0.182 -14.01,0.6 -20.825,1.927l-10.874,17.939Z" style="fill:#ebcfba;fill-rule:nonzero;"/><path d="M1502.82,1431.86c18.535,-9.226 33.598,-23.303 48.177,-35.697c4.963,-4.209 9.902,-8.298 14.861,-12.224l17.123,-28.25c-4.233,1.654 -8.29,3.732 -12.065,5.982c-11.188,6.58 -20.651,15.093 -29.699,23.389c-7.122,6.501 -14.073,12.886 -21.326,18.637l-17.071,28.163Z" style="fill:#ebcfba;fill-rule:nonzero;"/><path d="M1459.78,1520.12c4.371,2.65 8.866,5.123 13.594,7.269c1.443,0.657 2.914,1.297 4.402,1.881l7.392,-12.196c-1.655,-0.97 -3.318,-1.928 -4.999,-2.913l-20.17,-11.64l-7.771,12.82c2.483,1.622 4.993,3.228 7.552,4.779Z" style="fill:#ebcfba;fill-rule:nonzero;"/><path d="M1412.94,1580.14c4.19,1.567 8.263,3.55 12.157,5.91c0.122,0.075 0.257,0.156 0.379,0.23c4.261,2.667 8.344,5.627 12.619,8.436l7.942,-13.102c-2.151,-1.672 -4.423,-3.2 -6.774,-4.625c-2.131,-1.292 -4.321,-2.485 -6.56,-3.625c-3.945,-2.055 -8.03,-3.963 -12.236,-5.642l-7.527,12.418Z" style="fill:#ebcfba;fill-rule:nonzero;"/><path d="M1348.44,1742.64l8.93,-14.731c-1.507,-3.425 -2.907,-6.835 -4.067,-10.251c-4.316,-12.327 -5.282,-24.768 0.458,-35.119c5.503,-10.378 16.136,-18.417 27.558,-20.217c4.954,-0.714 10.206,-0.511 15.04,1.264l7.794,-12.858c-0.226,-0.069 -0.471,-0.134 -0.709,-0.211c-7.737,-2.43 -16.137,-3.737 -24.372,-2.333c-3.003,0.507 -5.924,1.265 -8.743,2.269l-34.321,56.622c0.737,5.302 2.07,10.397 3.74,15.21c2.441,7.105 5.501,13.716 8.578,20.102c0.032,0.086 0.083,0.167 0.114,0.253Z" style="fill:#ebcfba;fill-rule:nonzero;"/><path d="M1091.65,1593.08l19.654,11.913c4.563,-2.224 9.092,-4.502 13.606,-6.839c10.678,-5.6 21.152,-11.609 31.374,-18.004c6.952,-4.343 13.785,-8.874 20.495,-13.564l62.251,-102.699c-2.66,2.622 -5.354,5.243 -8.072,7.848c-17.97,17.354 -38.293,32.513 -60.07,44.848c-10.917,6.159 -22.188,11.633 -33.572,16.906c-4.013,1.703 -8.107,3.291 -12.302,4.549l-33.364,55.042Zm34.152,20.701l16.359,9.916l17.436,-28.764c-9.163,5.615 -18.519,10.911 -28.035,15.893c-1.913,1 -3.83,1.981 -5.76,2.955Zm11.993,-96.829c8.965,-3.658 17.629,-8.034 26.025,-12.824c20.794,-11.792 40.009,-26.116 57.246,-42.758c15.086,-14.364 29.575,-29.98 46.163,-44.003l51.163,-84.406c-10.892,2.858 -21.543,6.784 -31.806,11.698c-18.988,8.785 -36.807,20.337 -54.1,32.761c-6.312,4.529 -12.555,9.167 -18.641,14.068l-76.05,125.464Zm95.579,-157.681c14.901,-10.273 30.471,-19.857 47.171,-27.6c15.123,-7.243 31.377,-12.594 48.104,-15.633l25.556,-42.16c-4.257,-0.269 -8.539,0.082 -12.805,0.159c-9.385,0.373 -18.757,1.138 -28.086,2.248c-9.337,1.122 -18.639,2.6 -27.854,4.432c-1.711,0.336 -3.397,0.687 -5.11,1.055l-46.976,77.499Zm57.011,-94.054c7.054,-1.251 14.116,-2.294 21.214,-3.149c9.713,-1.162 19.459,-1.935 29.22,-2.348c4.885,-0.271 9.764,-0.059 14.66,-0.541c2.437,-0.264 4.899,-0.513 7.335,0.026c0.089,0.02 0.177,0.04 0.253,0.053l21.139,-34.874c-7.906,-3.504 -15.689,-7.183 -23.4,-10.953c-8.169,-4.064 -16.301,-8.19 -24.612,-11.771c-1.877,-0.936 -3.73,-1.858 -5.565,-2.837l-40.244,66.394Zm48.157,-79.447c1.529,0.71 3.028,1.468 4.488,2.235c7.897,4.569 15.973,8.594 24.079,12.569c8.149,3.986 16.341,7.846 24.579,11.466l26.527,-43.764c-6.5,-2.148 -12.891,-4.615 -19.183,-7.274c-6.311,-2.654 -12.562,-5.739 -18.489,-9.332c-5.241,-3.177 -10.224,-6.75 -14.776,-10.815l-27.225,44.915Zm39.05,-53.788c0.869,0.527 1.746,1.041 2.618,1.536c0.659,0.433 1.313,0.846 1.986,1.255c1.347,0.816 2.729,1.603 4.11,2.39c1.362,0.792 2.731,1.572 4.078,2.389c0.71,0.43 1.413,0.873 2.108,1.328c4.296,2.084 8.324,4.693 12.693,6.655c6.685,3.199 13.588,5.926 20.653,8.165l47.645,-78.601c-0.428,-0.041 -0.855,-0.082 -1.274,-0.136c-13.735,-1.511 -27.156,-5.392 -39.913,-10.948c-3.141,-1.503 -6.323,-2.912 -9.409,-4.615c-0.363,-0.203 -0.73,-0.426 -1.085,-0.641c-1.825,-1.106 -3.597,-2.298 -5.31,-3.587l-43.577,71.891c0.09,0.071 0.188,0.131 0.286,0.19c1.467,0.923 2.922,1.838 4.391,2.729Zm49.114,-86.301c3.906,2.368 7.878,4.625 11.937,6.935c10.854,5.657 22.999,8.632 35.206,10.121c2.885,0.325 5.769,0.567 8.656,0.693c20.828,-26.323 55.788,-36.678 87.218,-26.735c12.804,-9.301 24.265,-20.639 33.997,-33.242c7.668,-9.971 14.371,-20.726 20.07,-32.006c2.662,-5.302 5.316,-10.676 7.178,-16.345l-38.927,-23.596c-1.896,8.764 -3.999,17.619 -7.723,26.028c-7.568,17.431 -20.957,32.807 -39.203,40.753c-9.023,3.974 -19.471,5.494 -29.391,4.153c-8.985,-1.227 -17.403,-4.522 -24.836,-9.027c-0.796,-0.482 -1.597,-0.985 -2.378,-1.492c-8.048,-5.23 -14.956,-11.761 -20.982,-18.947l-43.191,71.254c0.796,0.483 1.585,0.978 2.369,1.453Zm158.073,-2.472c0.831,0.453 1.646,0.93 2.467,1.428l32.094,19.454c11.81,-7.275 25.021,-12.495 38.565,-14.784c20.801,-4.069 42.465,-2.406 62.576,3.974c10.123,3.105 19.553,8.017 28.896,13.128c2.173,1.333 4.297,2.772 6.321,4.35l17.754,-29.29l-129.773,-78.662c-2.383,5.035 -4.499,10.183 -7.104,15.117c-6.101,12.025 -13.252,23.547 -21.522,34.29c-8.818,11.399 -18.963,21.893 -30.274,30.995Zm48.606,29.395l88.63,53.724l25.719,-42.43c-2.171,-1.583 -4.347,-3.187 -6.604,-4.739c-1.611,-1.128 -3.271,-2.201 -4.949,-3.218c-6.269,-3.8 -13.028,-6.875 -20.093,-9.031c-17.826,-5.648 -37.177,-7.147 -55.526,-3.534c-4.639,0.637 -9.046,2.218 -13.556,3.386c-4.288,1.771 -8.769,3.141 -12.804,5.433c-0.268,0.139 -0.549,0.271 -0.817,0.409Zm-135.062,-91.429c6.049,3.667 12.612,6.155 19.277,7.064c7.412,0.976 14.931,-0.075 21.907,-3.131c14.015,-6.022 25.432,-18.725 31.659,-33.252c3.116,-7.405 5.526,-15.304 6.447,-23.536c0.175,-1.753 0.306,-3.515 0.481,-5.268l-58.728,-35.598l-43.851,72.344c0.929,1.451 1.93,2.811 3.031,4.032c5.201,6.199 11.162,11.806 17.791,16.091c0.658,0.433 1.312,0.846 1.986,1.254Z" style="fill:#be8562;fill-rule:nonzero;"/><path d="M1330.63,1198.82c1.835,0.979 3.688,1.901 5.565,2.837c8.311,3.581 16.443,7.707 24.612,11.771c7.711,3.77 15.494,7.449 23.4,10.953l7.482,-12.344c-8.238,-3.62 -16.43,-7.48 -24.579,-11.466c-8.106,-3.975 -16.182,-8 -24.079,-12.569c-1.46,-0.767 -2.959,-1.525 -4.488,-2.235l-7.913,13.053Z" style="fill:#a3705d;fill-rule:nonzero;"/><path d="M1380.54,1151.67c5.927,3.593 12.178,6.678 18.489,9.332c6.292,2.659 12.683,5.126 19.183,7.274l7.623,-12.576c-7.065,-2.239 -13.968,-4.966 -20.653,-8.165c-4.369,-1.962 -8.397,-4.571 -12.693,-6.655c-0.695,-0.455 -1.398,-0.898 -2.108,-1.328c-1.347,-0.817 -2.716,-1.597 -4.078,-2.389c-1.381,-0.787 -2.763,-1.574 -4.11,-2.39c-0.673,-0.409 -1.327,-0.822 -1.986,-1.255c-0.872,-0.495 -1.749,-1.009 -2.618,-1.536c-1.469,-0.891 -2.924,-1.806 -4.391,-2.729c-0.098,-0.059 -0.196,-0.119 -0.286,-0.19l-7.148,11.792c4.552,4.065 9.535,7.638 14.776,10.815Zm238.797,-87.579l14.045,8.513c0.268,-0.138 0.549,-0.27 0.817,-0.409c4.035,-2.292 8.516,-3.662 12.804,-5.433c4.51,-1.168 8.917,-2.749 13.556,-3.386c18.349,-3.613 37.7,-2.114 55.526,3.534c7.065,2.156 13.824,5.231 20.093,9.031c1.678,1.017 3.338,2.09 4.949,3.218c2.257,1.552 4.433,3.156 6.604,4.739l7.964,-13.139c-2.024,-1.578 -4.148,-3.017 -6.321,-4.35c-9.343,-5.111 -18.773,-10.023 -28.896,-13.128c-20.111,-6.38 -41.775,-8.043 -62.576,-3.974c-13.544,2.289 -26.755,7.509 -38.565,14.784Z" style="fill:#a3705d;fill-rule:nonzero;"/><path d="M1421.8,1060.76c0.355,0.215 0.722,0.438 1.085,0.641c3.086,1.703 6.268,3.112 9.409,4.615c12.757,5.556 26.178,9.437 39.913,10.948c0.419,0.054 0.846,0.095 1.274,0.136l3.25,-5.363c1.775,-2.927 3.703,-5.693 5.772,-8.306c-2.887,-0.126 -5.771,-0.368 -8.656,-0.693c-12.207,-1.489 -24.352,-4.464 -35.206,-10.121c-4.059,-2.31 -8.031,-4.567 -11.937,-6.935c-0.784,-0.475 -1.573,-0.97 -2.369,-1.453l-7.845,12.944c1.713,1.289 3.485,2.481 5.31,3.587Zm147.921,-24.064c5.13,1.619 10.184,3.778 15.056,6.514c11.311,-9.102 21.456,-19.596 30.274,-30.995c8.27,-10.743 15.421,-22.265 21.522,-34.29c2.605,-4.934 4.721,-10.082 7.104,-15.117l-12.711,-7.705c-1.862,5.669 -4.516,11.043 -7.178,16.345c-5.699,11.28 -12.402,22.035 -20.07,32.006c-9.732,12.603 -21.193,23.941 -33.997,33.242Z" style="fill:#a3705d;fill-rule:nonzero;"/><path d="M1490.89,993.414c7.433,4.505 15.851,7.8 24.836,9.027c9.92,1.341 20.368,-0.179 29.391,-4.153c18.246,-7.946 31.635,-23.322 39.203,-40.753c3.724,-8.409 5.827,-17.264 7.723,-26.028l-13.947,-8.454c-0.175,1.753 -0.306,3.515 -0.481,5.268c-0.921,8.232 -3.331,16.131 -6.447,23.536c-6.227,14.527 -17.644,27.23 -31.659,33.252c-6.976,3.056 -14.495,4.107 -21.907,3.131c-6.665,-0.909 -13.228,-3.397 -19.277,-7.064c-0.674,-0.408 -1.328,-0.821 -1.986,-1.254c-6.629,-4.285 -12.59,-9.892 -17.791,-16.091c-1.101,-1.221 -2.102,-2.581 -3.031,-4.032l-7.987,13.176c6.026,7.186 12.934,13.717 20.982,18.947c0.781,0.507 1.582,1.01 2.378,1.492Z" style="fill:#a3705d;fill-rule:nonzero;"/><path d="M1213.84,1391.49c6.086,-4.901 12.329,-9.539 18.641,-14.068c17.293,-12.424 35.112,-23.976 54.1,-32.761c10.263,-4.914 20.914,-8.84 31.806,-11.698l10.257,-16.923c-16.727,3.039 -32.981,8.39 -48.104,15.633c-16.7,7.743 -32.27,17.327 -47.171,27.6l-19.529,32.217Z" style="fill:#a3705d;fill-rule:nonzero;"/><path d="M1280.35,1281.77c1.713,-0.368 3.399,-0.719 5.11,-1.055c9.215,-1.832 18.517,-3.31 27.854,-4.432c9.329,-1.11 18.701,-1.875 28.086,-2.248c4.266,-0.077 8.548,-0.428 12.805,-0.159l8.862,-14.62c-0.076,-0.013 -0.164,-0.033 -0.253,-0.053c-2.436,-0.539 -4.898,-0.29 -7.335,-0.026c-4.896,0.482 -9.775,0.27 -14.66,0.541c-9.761,0.413 -19.507,1.186 -29.22,2.348c-7.098,0.855 -14.16,1.898 -21.214,3.149l-10.035,16.555Z" style="fill:#a3705d;fill-rule:nonzero;"/><path d="M1125.01,1538.04c4.195,-1.258 8.289,-2.846 12.302,-4.549c11.384,-5.273 22.655,-10.747 33.572,-16.906c21.777,-12.335 42.1,-27.494 60.07,-44.848c2.718,-2.605 5.412,-5.226 8.072,-7.848l28.199,-46.52c-16.588,14.023 -31.077,29.639 -46.163,44.003c-17.237,16.642 -36.452,30.966 -57.246,42.758c-8.396,4.79 -17.06,9.166 -26.025,12.824l-12.781,21.086Z" style="fill:#a3705d;fill-rule:nonzero;"/><path d="M1111.3,1604.99l14.498,8.788c1.93,-0.974 3.847,-1.955 5.76,-2.955c9.516,-4.982 18.872,-10.278 28.035,-15.893l17.182,-28.347c-6.71,4.69 -13.543,9.221 -20.495,13.564c-10.222,6.395 -20.696,12.404 -31.374,18.004c-4.514,2.337 -9.043,4.615 -13.606,6.839Z" style="fill:#a3705d;fill-rule:nonzero;"/><path d="M1345.74,1747.1l-254.087,-154.015l427.716,-705.626l254.086,154.015l-427.715,705.626Zm-294.722,-128.413l290.822,176.282c10.151,6.153 23.348,2.917 29.501,-7.235l449.983,-742.36c6.146,-10.139 2.918,-23.348 -7.234,-29.502l-290.821,-176.282c-10.139,-6.145 -23.356,-2.905 -29.502,7.234l-449.983,742.361c-6.153,10.151 -2.905,23.356 7.234,29.502Z" style="fill-rule:nonzero;"/><path d="M957.688,1620.72l-452.767,746.953c-20.486,33.797 -9.682,77.852 24.114,98.338l300.006,181.849c10.102,6.123 21.137,9.464 32.161,10.201l0.037,-0.061c25.838,1.847 51.777,-10.56 66.139,-34.254l452.767,-746.953c20.485,-33.796 9.683,-77.852 -24.114,-98.338l-300.006,-181.848c-33.796,-20.486 -77.851,-9.683 -98.337,24.113Z" style="fill:#f15a23;fill-rule:nonzero;"/><path d="M859.291,2654.3c-9.961,-0.997 -19.737,-4.261 -28.395,-9.509l-300.006,-181.849c-32.069,-19.439 -42.347,-61.35 -22.907,-93.42l452.766,-746.953c19.439,-32.07 61.351,-42.347 93.421,-22.908l300.005,181.849c32.083,19.447 42.348,61.351 22.908,93.42l-452.766,746.953c-13.271,21.895 -37.34,34.364 -62.827,32.545l-2.199,-0.128Zm-332.112,-185.235l300.006,181.849c10.261,6.22 21.929,9.927 33.789,10.719l2.205,0.064c27.359,1.162 52.972,-12.531 67.26,-36.102l452.767,-746.953c21.488,-35.45 10.131,-81.767 -25.319,-103.255l-300.006,-181.849c-35.45,-21.487 -81.767,-10.13 -103.255,25.32l-452.766,746.952c-21.488,35.45 -10.13,81.767 25.319,103.255Z" style="fill:#000072;fill-rule:nonzero;"/><path d="M540.168,2447.64l51.736,31.36c-3.304,-17.559 -0.406,-36.347 9.57,-52.804l452.767,-746.953c9.968,-16.445 25.284,-27.707 42.386,-32.912l-51.735,-31.36c-23.621,-14.318 -54.511,-6.753 -68.837,16.88l-452.766,746.953c-14.325,23.633 -6.741,54.518 16.879,68.836Z" style="fill:#b44d38;fill-rule:nonzero;"/><path d="M591.904,2479l8.596,5.21c-5.146,-17.67 -3.176,-37.356 7.097,-54.303l452.766,-746.953c10.273,-16.947 26.814,-27.8 44.861,-31.413l-8.597,-5.21c-17.102,5.205 -32.418,16.467 -42.386,32.912l-452.767,746.953c-9.976,16.457 -12.874,35.245 -9.57,52.804Z" style="fill:#b9472d;fill-rule:nonzero;"/><path d="M837.591,2627.92l2.583,1.566c23.633,14.325 54.511,6.753 68.836,-16.88l452.767,-746.953c14.325,-23.633 6.754,-54.511 -16.88,-68.836l-2.571,-1.558c4.142,17.613 1.642,36.794 -8.468,53.472l-452.766,746.952c-10.117,16.69 -25.972,27.792 -43.501,32.237Z" style="fill:#f9b59c;fill-rule:nonzero;"/><path d="M1344.9,1796.82c23.634,14.325 31.205,45.203 16.88,68.836l-452.767,746.953c-14.325,23.633 -45.203,31.205 -68.836,16.88l-300.006,-181.849c-23.62,-14.318 -31.204,-45.203 -16.879,-68.836l452.766,-746.953c14.326,-23.633 45.216,-31.198 68.837,-16.88l300.005,181.849Zm-826.996,687.555l300.006,181.849c43.887,26.602 101.237,12.539 127.839,-31.347l452.766,-746.953c26.602,-43.887 12.539,-101.237 -31.347,-127.839l-300.006,-181.849c-43.886,-26.602 -101.237,-12.539 -127.839,31.348l-452.766,746.952c-26.602,43.887 -12.539,101.238 31.347,127.839Z" style="fill-rule:nonzero;"/><path d="M2113.13,983.645l59.903,36.311l112.264,-185.208l-25.837,-15.661l-146.33,164.558Z" style="fill:#928faa;fill-rule:nonzero;"/><path d="M2098.62,999.964l81.65,49.493l134.531,-221.943l-40.837,-24.754l-14.501,16.327l25.837,15.661l-112.264,185.208l-59.903,-36.311l-14.513,16.319Z" style="fill-rule:nonzero;"/><path d="M1875.21,607.804c13.629,8.261 30.318,16.971 47.535,27.407c17.204,10.428 32.658,21.202 46.287,29.464c25.433,15.416 44.55,22.081 57.057,1.448c19.217,-31.703 -5.172,-81.632 -54.483,-111.522c-49.311,-29.89 -104.871,-28.421 -124.087,3.281c-12.507,20.633 2.258,34.506 27.691,49.922Z" style="fill:#c8cede;fill-rule:nonzero;"/><path d="M1002.3,2210.1c30.797,18.668 60.343,-29.027 96.208,-88.195c35.872,-59.181 64.481,-107.427 33.684,-126.095c-30.784,-18.659 -84.813,14.178 -120.686,73.359c-35.865,59.168 -39.99,122.271 -9.206,140.931Z" style="fill:#f47b4f;fill-rule:nonzero;"/></g></svg>