<?xml version="1.0" encoding="UTF-8" standalone="no"?><!DOCTYPE svg PUBLIC "-//W3C//DTD SVG 1.1//EN" "http://www.w3.org/Graphics/SVG/1.1/DTD/svg11.dtd"><svg width="100%" height="100%" viewBox="0 0 2173 2312" version="1.1" xmlns="http://www.w3.org/2000/svg" xmlns:xlink="http://www.w3.org/1999/xlink" xml:space="preserve" xmlns:serif="http://www.serif.com/" style="fill-rule:evenodd;clip-rule:evenodd;stroke-linejoin:round;stroke-miterlimit:1.41421;"><g><g><rect x="998.031" y="1560.68" width="176.161" height="154.442" style="fill:#212526;fill-rule:nonzero;"/><rect x="533.153" y="1712.03" width="1105.92" height="52.502" style="fill:#3a4245;fill-rule:nonzero;"/><path d="M400.707,1608.57c-25.613,0 -46.346,-20.746 -46.346,-46.359l0,-969.326c0,-25.587 20.733,-46.306 46.346,-46.306l1370.81,0c25.573,0 46.332,20.719 46.332,46.306l0,969.326c0,25.613 -20.759,46.359 -46.332,46.359l-1370.81,0Z" style="fill:#3a4245;fill-rule:nonzero;"/><path d="M354.361,1562.22c0,25.613 20.733,46.359 46.346,46.359l1370.81,0c25.573,0 46.332,-20.746 46.332,-46.359l0,-969.326l-1463.49,969.326Z" style="fill:#2e3638;fill-rule:nonzero;"/><path d="M1728.46,1537.67c0,8.275 -6.696,15.01 -15.01,15.01l-28.666,0c-8.3,0 -15.01,-6.735 -15.01,-15.01c0,-8.314 6.71,-15.023 15.01,-15.023l28.666,0c8.314,0 15.01,6.709 15.01,15.023Z" style="fill:#ff3912;fill-rule:nonzero;"/><rect x="420.413" y="640.09" width="1331.42" height="821.712" style="fill:#589eb7;fill-rule:nonzero;"/><path d="M1714.55,1421.65l-1201.29,0l1201.29,-741.373l0,741.373Z" style="fill:#95cad8;fill-rule:nonzero;"/><path d="M2006.16,1764.53l-46.345,0l0,-1015.66c0,-25.587 20.759,-46.346 46.345,-46.346l119.712,0c25.587,0 46.346,20.759 46.346,46.346l0,1015.66l-46.346,0l-119.712,0Z" style="fill:#3a4245;fill-rule:nonzero;"/><rect x="1980.66" y="748.87" width="170.688" height="957.657" style="fill:#4d5256;fill-rule:nonzero;"/><path d="M1980.66,1706.53l170.689,0l0,-957.657l-170.689,957.657Z" style="fill:#44494c;fill-rule:nonzero;"/><path d="M46.319,1764.53l-46.319,0l0,-1015.66c0,-25.587 20.746,-46.346 46.319,-46.346l119.726,0c25.586,0 46.332,20.759 46.332,46.346l0,1015.66l-46.332,0l-119.726,0Z" style="fill:#3a4245;fill-rule:nonzero;"/><rect x="20.838" y="748.87" width="170.675" height="957.657" style="fill:#4d5256;fill-rule:nonzero;"/><path d="M20.838,1706.53l170.675,0l0,-957.657l-170.675,957.657Z" style="fill:#44494c;fill-rule:nonzero;"/></g></g></svg>